<svg xmlns="http://www.w3.org/2000/svg" xmlns:xlink="http://www.w3.org/1999/xlink" viewBox="0 0 12.426 16"><defs><style>.a,.c{fill:#999;}.b{clip-path:url(#a);}.c{fill-rule:evenodd;}</style><clipPath id="a"><path class="a" d="M0-25.613H12.426v16H0Z" transform="translate(0 25.613)"/></clipPath></defs><g class="b" transform="translate(0 0)"><g transform="translate(0 0)"><path class="c" d="M-1.443-.575-2.9.865h1.456Zm.528-.434V1.016c0,.3-.08.378-.381.379H-3.313V13.942H6.67V-1.009ZM-3.662,14.469a.38.38,0,0,1-.182-.367q0-6.436,0-12.873A.436.436,0,0,1-3.708.9q1.153-1.146,2.3-2.3c.047-.047.1-.087.152-.131H7.025a.381.381,0,0,1,.179.369q0,7.631,0,15.263a.381.381,0,0,1-.179.369Z" transform="translate(3.844 1.531)"/></g><g transform="translate(11.564)"><path class="c" d="M-.108-9.613c-.107-.072-.216-.156-.169-.3a.534.534,0,0,1,.172-.2c.031-.026.089-.019.145-.031V-25.085c-.144-.019-.29-.047-.324-.227-.027-.15.068-.229.175-.3h.5a.38.38,0,0,1,.181.367q0,7.633,0,15.265a.38.38,0,0,1-.181.367Z" transform="translate(0.288 25.613)"/></g><g transform="translate(1.721 10.318)"><path class="c" d="M-.319-1.649H2.009v-.177c0-.411,0-.823,0-1.234,0-.181.1-.294.253-.294a.259.259,0,0,1,.256.292q0,.82,0,1.64a.265.265,0,0,1-.3.3q-1.381,0-2.764,0a.268.268,0,0,1-.305-.3q-.007-1.336,0-2.671c0-.206.1-.3.315-.3q1.366,0,2.733,0c.2,0,.32.1.317.266s-.122.254-.329.254q-1.163,0-2.326,0H-.319Z" transform="translate(0.851 4.394)"/></g><g transform="translate(1.731 4.815)"><path class="c" d="M-2.275,0H1.13a1.316,1.316,0,0,1,.141,0,.256.256,0,0,1,.256.261.253.253,0,0,1-.249.251,1.076,1.076,0,0,1-.156,0h-6.78A1.083,1.083,0,0,1-5.874.5.227.227,0,0,1-6.061.263.228.228,0,0,1-5.88.02.855.855,0,0,1-5.681,0h3.406" transform="translate(6.061 0.001)"/></g><g transform="translate(1.73 8.943)"><path class="c" d="M-2.281-.313H-5.687a.923.923,0,0,1-.156-.006.25.25,0,0,1-.234-.249.248.248,0,0,1,.225-.256A.921.921,0,0,1-5.7-.833q3.413,0,6.826,0a1.037,1.037,0,0,1,.125,0,.257.257,0,0,1,.257.26.257.257,0,0,1-.263.255,1.316,1.316,0,0,1-.141,0Z" transform="translate(6.077 0.834)"/></g><g transform="translate(3.452 2.407)"><path class="c" d="M-1.754-.312H-4.269A.983.983,0,0,1-4.44-.321a.246.246,0,0,1-.234-.261A.256.256,0,0,1-4.422-.83c.041,0,.084,0,.125,0H.857c.218,0,.337.095.336.261s-.118.257-.339.257c-.87,0-1.738,0-2.608,0" transform="translate(4.674 0.832)"/></g><g transform="translate(5.962 6.191)"><path class="c" d="M-1-.314H-2.315c-.062,0-.141.009-.181-.024A.5.5,0,0,1-2.67-.567.209.209,0,0,1-2.5-.813a.566.566,0,0,1,.169-.022q1.334,0,2.668,0a.671.671,0,0,1,.154.017.232.232,0,0,1,.191.249.228.228,0,0,1-.188.236.872.872,0,0,1-.185.018H-1" transform="translate(2.676 0.836)"/></g><g transform="translate(1.729 7.567)"><path class="c" d="M-1.014,0C-.577,0-.14,0,.3,0c.067,0,.154-.009.2.028A.4.4,0,0,1,.647.267C.65.341.565.435.494.489A.389.389,0,0,1,.283.519q-1.3,0-2.606,0c-.021,0-.042,0-.062,0-.2-.006-.32-.106-.316-.266S-2.582,0-2.387,0c.458,0,.916,0,1.373,0" transform="translate(2.701 0.001)"/></g><g transform="translate(5.962 7.568)"><path class="c" d="M-1.013,0C-.575,0-.139,0,.3,0A.645.645,0,0,1,.5.027.2.2,0,0,1,.652.266.434.434,0,0,1,.493.489.388.388,0,0,1,.282.52q-1.3,0-2.606,0A.8.8,0,0,1-2.508.5.23.23,0,0,1-2.7.252.229.229,0,0,1-2.509.018.8.8,0,0,1-2.323,0c.437,0,.873,0,1.311,0" transform="translate(2.698 0.001)"/></g><g transform="translate(5.961 10.32)"><path class="c" d="M-1-.313c-.437,0-.874,0-1.311,0A.672.672,0,0,1-2.5-.336a.207.207,0,0,1-.165-.247.521.521,0,0,1,.176-.227c.036-.031.109-.023.166-.023q1.326,0,2.652,0a.678.678,0,0,1,.184.023.206.206,0,0,1,.166.232.492.492,0,0,1-.162.237c-.042.036-.129.027-.2.028-.442,0-.885,0-1.326,0" transform="translate(2.668 0.834)"/></g><g transform="translate(5.961 11.696)"><path class="c" d="M-1.008-.313c-.442,0-.884,0-1.326,0a.585.585,0,0,1-.184-.024.206.206,0,0,1-.159-.25A.491.491,0,0,1-2.5-.809c.041-.033.12-.022.182-.022q1.311,0,2.621,0a.733.733,0,0,1,.185.019.225.225,0,0,1,.18.226A.227.227,0,0,1,.5-.337a.628.628,0,0,1-.184.023c-.442,0-.885,0-1.327,0" transform="translate(2.685 0.833)"/></g><g transform="translate(1.741 6.191)"><path class="c" d="M-1-.314c-.437,0-.873,0-1.311,0-.067,0-.151.007-.2-.029C-2.575-.4-2.663-.49-2.661-.565A.4.4,0,0,1-2.507-.8c.041-.037.129-.029.195-.031q1.318,0,2.637,0c.067,0,.153-.007.2.029.071.062.157.157.155.237S.582-.4.508-.34C.464-.3.379-.315.312-.315c-.437,0-.874,0-1.311,0" transform="translate(2.661 0.836)"/></g><g transform="translate(5.961 13.071)"><path class="c" d="M-.491-.313c-.177,0-.353,0-.529,0s-.289-.106-.289-.259a.252.252,0,0,1,.274-.256q.545-.011,1.09,0A.252.252,0,0,1,.328-.57c0,.152-.109.252-.29.257s-.352,0-.529,0" transform="translate(1.309 0.833)"/></g></g></svg>