<svg xmlns="http://www.w3.org/2000/svg" xmlns:xlink="http://www.w3.org/1999/xlink" viewBox="0 0 16 16"><defs><style>.a{fill:#fe5d70;}.b{clip-path:url(#a);}</style><clipPath id="a"><path class="a" d="M0-20.959H16v16H0Z" transform="translate(0 21)"/></clipPath></defs><g class="b" transform="translate(0 -0.041)"><g transform="translate(0 1.041)"><g transform="translate(0 0)"><path class="a" d="M-7.687-1.309H-20.606v-1.64a.353.353,0,0,1,.352-.352H-8.04a.353.353,0,0,1,.352.352Zm0,7.468a.352.352,0,0,1-.063.2,2.889,2.889,0,0,0-2.821-2.285,2.856,2.856,0,0,0-.86.131c-.065.019-.13.043-.193.067a.312.312,0,0,0-.177.4.313.313,0,0,0,.405.177c.049-.019.1-.038.151-.053a2.247,2.247,0,0,1,.674-.1A2.262,2.262,0,0,1-8.357,6.511a2.289,2.289,0,0,1,.045.446c0,.061,0,.12-.008.179a2.261,2.261,0,0,1-2.251,2.08,2.261,2.261,0,0,1-2.251-2.08c0-.059-.008-.119-.008-.179a2.271,2.271,0,0,1,.045-.447,2.351,2.351,0,0,1,.06-.236.313.313,0,0,0-.2-.393.313.313,0,0,0-.393.2,2.91,2.91,0,0,0-.1.425h-4.5l.468-.468.077-.076a.934.934,0,0,0,.127-.158c.007-.012.015-.023.021-.036a.929.929,0,0,0,.1-.275l.229-1.133a.337.337,0,0,0,.005-.035l0-.016c0-.008,0-.015,0-.023s0-.019,0-.029,0-.005,0-.008,0-.028,0-.042l0-.007a.427.427,0,0,0-.009-.042h0a.42.42,0,0,0-.1-.173.45.45,0,0,0-.126-.086.416.416,0,0,0-.249-.027l-1.133.23a.917.917,0,0,0-.469.251l-.077.076-1.546,1.547V-.684H-7.687Zm-9.882-1.606-.157.773-.616-.616ZM-18.8,6.511l-.625.625-1.444,1.444-.725-.725L-20.745,7l.492-.493L-18.839,5.1l.725.725Zm-2.759,2.761a.512.512,0,0,1-.363.15.508.508,0,0,1-.362-.15.509.509,0,0,1-.129-.217.218.218,0,0,1-.009-.036.457.457,0,0,1-.011-.073c0-.013,0-.025,0-.037a.51.51,0,0,1,.151-.363l.249-.249.725.725ZM-8.04-3.926H-20.254a.978.978,0,0,0-.977.977V6.159a.969.969,0,0,0,.074.373l-1.1,1.1h0l-.47.469a1.138,1.138,0,0,0,0,1.609,1.131,1.131,0,0,0,.8.333c.038,0,.075,0,.113-.005l.055-.007.077-.015.019,0h0A.615.615,0,0,0-21.589,10l.039-.013.027-.009.01,0,.033-.014.044-.02.035-.017.051-.028.025-.016c.019-.011.037-.023.055-.036l.012-.009c.021-.015.04-.031.059-.046l.017-.015c.02-.017.04-.036.06-.055l.47-.469h0l2.107-2.107h5.095a2.888,2.888,0,0,0,2.879,2.705A2.886,2.886,0,0,0-7.69,7.071a.979.979,0,0,0,.627-.912V-2.949a.978.978,0,0,0-.977-.977" transform="translate(23.063 3.926)"/></g><g transform="translate(11.093 9.448)"><path class="a" d="M-.456-.6-.53-.811l-.083-.233.565.233L1.1-.342.714-.186-.613.358l.157-.443a.694.694,0,0,0,.028-.1A.757.757,0,0,0-.456-.6m-.887-.626.148.415.15.421a.138.138,0,0,1,0,.1l-.038.109-.26.728a.416.416,0,0,0,.108.445.472.472,0,0,0,.326.129.491.491,0,0,0,.186-.036l2.3-.945a.532.532,0,0,0,.309-.32.506.506,0,0,0,.025-.156A.511.511,0,0,0,1.6-.811L1.582-.818l-2.3-.945a.476.476,0,0,0-.512.093.415.415,0,0,0-.108.445" transform="translate(1.367 1.801)"/></g><g transform="translate(4.093 4.299)"><path class="a" d="M-.156-.312H2.406a.312.312,0,0,0,.312-.313.312.312,0,0,0-.312-.312H-.156a.312.312,0,0,0-.313.312.313.313,0,0,0,.313.313" transform="translate(0.469 0.937)"/></g><g transform="translate(4.093 5.907)"><path class="a" d="M-.156-.312H6.413a.313.313,0,0,0,.313-.313.312.312,0,0,0-.313-.312H-.156a.312.312,0,0,0-.313.312.313.313,0,0,0,.313.313" transform="translate(0.469 0.937)"/></g><g transform="translate(7.906 4.299)"><path class="a" d="M-.012-.216a.3.3,0,0,0,.029.053.33.33,0,0,0,.039.048A.266.266,0,0,0,.1-.076a.322.322,0,0,0,.054.029A.3.3,0,0,0,.216-.03a.307.307,0,0,0,.061.007A.307.307,0,0,0,.337-.03.284.284,0,0,0,.4-.047.3.3,0,0,0,.45-.076.3.3,0,0,0,.5-.115.325.325,0,0,0,.536-.163.259.259,0,0,0,.565-.216.332.332,0,0,0,.583-.275.375.375,0,0,0,.589-.336.367.367,0,0,0,.583-.4.315.315,0,0,0,.565-.455.243.243,0,0,0,.536-.509.272.272,0,0,0,.5-.557.293.293,0,0,0,.45-.6.261.261,0,0,0,.4-.624.285.285,0,0,0,.337-.642a.31.31,0,0,0-.121,0,.3.3,0,0,0-.059.018A.28.28,0,0,0,.1-.6a.263.263,0,0,0-.047.038.276.276,0,0,0-.039.049.277.277,0,0,0-.029.053A.268.268,0,0,0-.029-.4a.307.307,0,0,0-.007.061.314.314,0,0,0,.007.061.279.279,0,0,0,.017.059" transform="translate(0.036 0.648)"/></g><g transform="translate(13.22 0.906)"><path class="a" d="M-.72-.046a.313.313,0,0,0-.442,0l-.232.233-.232-.233a.313.313,0,0,0-.442,0,.313.313,0,0,0,0,.442l.232.232L-2.068.86a.313.313,0,0,0,0,.442.309.309,0,0,0,.221.091A.31.31,0,0,0-1.626,1.3l.232-.232.232.232a.311.311,0,0,0,.221.091A.311.311,0,0,0-.72,1.3.313.313,0,0,0-.72.86L-.952.628-.72.4a.313.313,0,0,0,0-.442" transform="translate(2.159 0.137)"/></g><g transform="translate(11.069 1.687)"><path class="a" d="M-.564,0H-1.38a.313.313,0,0,0-.312.313A.312.312,0,0,0-1.38.625h.816A.312.312,0,0,0-.251.313.313.313,0,0,0-.564,0" transform="translate(1.692)"/></g><g transform="translate(10.337 8.777)"><path class="a" d="M-.3-.1A.322.322,0,0,0-.329-.15.3.3,0,0,0-.368-.2.245.245,0,0,0-.416-.236.261.261,0,0,0-.47-.265.307.307,0,0,0-.528-.283a.313.313,0,0,0-.122,0,.3.3,0,0,0-.059.018.24.24,0,0,0-.053.029A.271.271,0,0,0-.81-.2.261.261,0,0,0-.848-.15.247.247,0,0,0-.877-.1.26.26,0,0,0-.9-.038.312.312,0,0,0-.9.023.314.314,0,0,0-.9.084.244.244,0,0,0-.877.142.252.252,0,0,0-.848.2.261.261,0,0,0-.81.244.3.3,0,0,0-.762.283.24.24,0,0,0-.708.312.354.354,0,0,0-.65.33a.31.31,0,0,0,.061,0,.313.313,0,0,0,.061,0A.367.367,0,0,0-.47.312.261.261,0,0,0-.416.283.272.272,0,0,0-.368.244.3.3,0,0,0-.329.2.328.328,0,0,0-.3.142.243.243,0,0,0-.283.084.27.27,0,0,0-.276.023.269.269,0,0,0-.283-.038.258.258,0,0,0-.3-.1" transform="translate(0.901 0.289)"/></g></g></g></svg>