<svg xmlns="http://www.w3.org/2000/svg" xmlns:xlink="http://www.w3.org/1999/xlink" viewBox="0 0 16 16"><defs><style>.a,.c{fill:#999;}.b{clip-path:url(#a);}.c{fill-rule:evenodd;}</style><clipPath id="a"><path class="a" d="M0-26.176H16v16H0Z" transform="translate(0 26.176)"/></clipPath></defs><g class="b" transform="translate(0 0)"><g transform="translate(0 4.657)"><path class="c" d="M-4.308-6.321c0-.72,0-1.421,0-2.122,0-.108-.065-.138-.164-.137-.285,0-.572.007-.858,0-.149,0-.2.048-.2.2.006.645,0,1.289,0,1.935,0,.039.006.08.009.128Zm3.66,0c0-.043.01-.078.01-.114q0-3.185,0-6.373c0-.127-.042-.179-.172-.175-.271.006-.542,0-.813,0-.229,0-.236.007-.236.237V-6.32Zm-10.433.56a2.383,2.383,0,0,1,.155-.283.7.7,0,0,1,.6-.268c.208,0,.416,0,.649,0V-9.86a.577.577,0,0,1,.66-.66q.429,0,.859,0a.566.566,0,0,1,.637.634c0,.167,0,.334,0,.5a.232.232,0,0,1-.222.252.232.232,0,0,1-.243-.248c-.007-.15,0-.3,0-.452,0-.209-.008-.216-.223-.218h-.781c-.2,0-.215.013-.215.211q0,1.157,0,2.312v1.207h1.219v-1.81a1.2,1.2,0,0,1,0-.141A.24.24,0,0,1-7.749-8.5a.232.232,0,0,1,.23.246c0,.375,0,.75,0,1.125v.806h1.522V-6.5c0-.636,0-1.271,0-1.906a.566.566,0,0,1,.64-.645c.271,0,.543.013.812,0a.613.613,0,0,1,.707.7c-.014.615,0,1.229,0,1.843v.183h1.513V-12.8a.574.574,0,0,1,.422-.631.819.819,0,0,1,.216-.021c.292,0,.583,0,.875,0a.569.569,0,0,1,.644.644q0,3.14,0,6.281v.2H1.354v-.194c0-3.01.006-6.021-.006-9.032a.624.624,0,0,1,.7-.705c.276.015.553,0,.828,0a.577.577,0,0,1,.63.634c0,.587,0,1.177,0,1.766a.547.547,0,0,1-.013.138.21.21,0,0,1-.238.178.212.212,0,0,1-.212-.207,1.476,1.476,0,0,1,0-.172q0-.82,0-1.64c0-.211-.017-.228-.233-.228-.26,0-.521,0-.781,0-.186,0-.2.018-.2.207v9.257H3.041v-6.164c0-.046,0-.093,0-.141,0-.172.092-.274.234-.273s.222.1.233.262c0,.046,0,.093,0,.141v6.185c.175,0,.336.009.5,0a.8.8,0,0,1,.915.554v.281a.82.82,0,0,1-.563.562H2.045c-.1-.085-.183-.175-.125-.319s.182-.15.312-.15H4.108a.891.891,0,0,0,.14,0,.216.216,0,0,0,.2-.224.207.207,0,0,0-.186-.216.822.822,0,0,0-.155-.013H-10.268a.822.822,0,0,0-.155.013.206.206,0,0,0-.185.217.212.212,0,0,0,.2.222,1,1,0,0,0,.172.006H.935c.138,0,.27.01.321.161s-.034.237-.149.308H-10.518a.819.819,0,0,1-.563-.562Z" transform="translate(11.081 16.26)"/></g><g transform="translate(12.519 0)"><path class="c" d="M-.964-.634a.524.524,0,0,0-.523-.528.527.527,0,0,0-.527.525.531.531,0,0,0,.524.53A.531.531,0,0,0-.964-.634m-.378-1A1.08,1.08,0,0,1-.6-1.085,1,1,0,0,1-1.093.277,1,1,0,0,1-2.41-.267.99.99,0,0,1-1.8-1.576c.048-.015.095-.037.142-.055Z" transform="translate(2.48 1.631)"/></g><g transform="translate(12.095 2.218)"><path class="c" d="M-1.5-.952c0-.282.007-.556,0-.831,0-.138-.111-.194-.239-.194q-.695,0-1.39,0a.212.212,0,0,0-.239.2c-.012.274,0,.548,0,.826Zm-.936.477c-.307,0-.614,0-.921,0a.459.459,0,0,1-.49-.488c0-.256-.006-.511,0-.765a.693.693,0,0,1,.722-.717c.458,0,.916,0,1.374,0a.68.68,0,0,1,.722.68c.014.285.012.572,0,.858a.422.422,0,0,1-.455.431c-.317,0-.635,0-.952,0" transform="translate(3.846 2.448)"/></g><g transform="translate(8.424 5.023)"><path class="c" d="M-1.5-.954c0-.283.007-.553,0-.822a.2.2,0,0,0-.212-.205c-.483,0-.967-.007-1.45.006-.07,0-.193.094-.2.152-.021.287-.01.576-.01.869Zm-.943.474c-.3,0-.6,0-.906,0a.46.46,0,0,1-.5-.494c0-.281-.008-.562.007-.843a.652.652,0,0,1,.649-.63q.75-.015,1.5,0a.665.665,0,0,1,.661.658c.012.291.01.583,0,.873a.436.436,0,0,1-.458.435c-.317.006-.634,0-.952,0" transform="translate(3.851 2.455)"/></g><g transform="translate(1.073 7.949)"><path class="c" d="M-1.5-.961c0-.285.006-.545,0-.8C-1.508-1.924-1.6-2-1.772-2c-.447,0-.894,0-1.341,0-.2,0-.271.08-.275.278s0,.416,0,.623c0,.112.037.141.144.14.4,0,.8,0,1.2,0Zm-.933.469c-.3,0-.594,0-.89,0a.475.475,0,0,1-.533-.529c0-.281-.008-.563.016-.842a.623.623,0,0,1,.6-.59c.514-.021,1.03-.023,1.545,0a.659.659,0,0,1,.66.674c.013.281.01.562,0,.844a.442.442,0,0,1-.479.448c-.307.006-.614,0-.921,0" transform="translate(3.858 2.471)"/></g><g transform="translate(4.749 9.419)"><path class="c" d="M-1.493-.958c0-.288.006-.562,0-.836A.191.191,0,0,0-1.7-1.987c-.483,0-.966,0-1.45,0a.2.2,0,0,0-.212.188c-.011.278,0,.557,0,.842Zm-.934.475c-.3,0-.594,0-.89,0a.473.473,0,0,1-.523-.523c0-.244,0-.49,0-.733a.677.677,0,0,1,.687-.715q.725-.02,1.452,0a.667.667,0,0,1,.68.7c.006.265,0,.531,0,.8a.44.44,0,0,1-.469.471c-.312,0-.625,0-.937,0" transform="translate(3.842 2.465)"/></g><g transform="translate(8.842 2.805)"><path class="c" d="M-.634-.964A.524.524,0,0,0-.11-1.49a.526.526,0,0,0-.531-.521.522.522,0,0,0-.521.526.52.52,0,0,0,.528.521m0,.468a.993.993,0,0,1-1-.989.993.993,0,0,1,.99-.994,1,1,0,0,1,1,.989A1,1,0,0,1-.634-.5" transform="translate(1.631 2.479)"/></g><g transform="translate(5.165 7.207)"><path class="c" d="M-.968-.628a.524.524,0,0,0-.53-.52.528.528,0,0,0-.525.528A.528.528,0,0,0-1.49-.1.523.523,0,0,0-.968-.628m-.534,1a1,1,0,0,1-.988-1,1,1,0,0,1,1-.985,1,1,0,0,1,.988,1,1,1,0,0,1-1,.983" transform="translate(2.491 1.615)"/></g><g transform="translate(1.495 5.731)"><path class="c" d="M-.964-.629a.525.525,0,0,0-.53-.521.526.526,0,0,0-.517.534.522.522,0,0,0,.53.518A.521.521,0,0,0-.964-.629m.468,0a.994.994,0,0,1-.99,1,1,1,0,0,1-.993-.993,1,1,0,0,1,.991-1A1,1,0,0,1-.5-.625" transform="translate(2.479 1.619)"/></g></g></svg>