<svg xmlns="http://www.w3.org/2000/svg" xmlns:xlink="http://www.w3.org/1999/xlink" viewBox="0 0 16 16"><defs><style>.a,.d{fill:#aeb4c2;}.b{fill:none;}.c{clip-path:url(#a);}.d{fill-rule:evenodd;}</style><clipPath id="a"><path class="a" d="M0-24.318H16V-11.25H0Z" transform="translate(0 24.318)"/></clipPath></defs><g transform="translate(-1038 -3477)"><rect class="b" width="16" height="16" transform="translate(1038 3477)"/><g class="c" transform="translate(1038 3478)"><path class="d" d="M2.653-22.439h-.51v.779h.51Zm0,.779M8-11.783h6.577a.782.782,0,0,0,.891-.89v-7.562a.776.776,0,0,0-.88-.883c-.777,0-1.552,0-2.328,0a.211.211,0,0,1-.239-.156c-.311-.8-.636-1.593-.95-2.391a.161.161,0,0,0-.179-.123q-2.891,0-5.781,0a.161.161,0,0,0-.179.122c-.315.8-.639,1.592-.951,2.391a.211.211,0,0,1-.238.156c-.781-.005-1.563,0-2.344,0a1.26,1.26,0,0,0-.325.035.753.753,0,0,0-.541.8q0,3.8,0,7.609a.781.781,0,0,0,.89.891Zm-8-8.75a1.479,1.479,0,0,1,.4-.76,1.351,1.351,0,0,1,.954-.359H1.6V-22.97H3.2v1.318a1.5,1.5,0,0,0,.289-.005.205.205,0,0,0,.114-.117q.487-1.2.962-2.4a.183.183,0,0,1,.2-.14q3.234.006,6.468,0a.192.192,0,0,1,.211.148c.314.8.637,1.593.951,2.391a.173.173,0,0,0,.192.13c.682,0,1.364,0,2.047,0a1.28,1.28,0,0,1,1.239.738,2.731,2.731,0,0,1,.129.38v8.156a2.8,2.8,0,0,1-.135.394,1.3,1.3,0,0,1-1.257.732q-6.1,0-12.2,0c-.359,0-.718,0-1.077,0a1.324,1.324,0,0,1-.877-.312A1.452,1.452,0,0,1,0-12.377Z" transform="translate(0 24.318)"/><g transform="translate(3.2 2.405)"><path class="d" d="M-4.127-7.8A4.28,4.28,0,0,0,.145-12.061a4.273,4.273,0,0,0-4.251-4.274,4.274,4.274,0,0,0-4.28,4.261A4.283,4.283,0,0,0-4.127-7.8m.008.532a4.82,4.82,0,0,1-4.8-4.8,4.811,4.811,0,0,1,4.806-4.795A4.809,4.809,0,0,1,.68-12.076a4.819,4.819,0,0,1-4.8,4.8" transform="translate(8.92 16.868)"/></g><g transform="translate(12.804 3.737)"><path class="d" d="M-.459-.916a.53.53,0,0,0,.522.531A.539.539,0,0,0,.6-.916a.537.537,0,0,0-.542-.53.527.527,0,0,0-.522.53m-.533,0A1.068,1.068,0,0,1,.067-1.981,1.078,1.078,0,0,1,1.138-.923,1.08,1.08,0,0,1,.066.149,1.069,1.069,0,0,1-.992-.917" transform="translate(0.992 1.981)"/></g><g transform="translate(4.803 4.003)"><path class="d" d="M-2.734-5.049A2.669,2.669,0,0,0-.051-7.677a2.666,2.666,0,0,0-2.6-2.705A2.666,2.666,0,0,0-5.376-7.765,2.669,2.669,0,0,0-2.734-5.049m.018.534a3.207,3.207,0,0,1-3.194-3.2,3.2,3.2,0,0,1,3.2-3.2,3.2,3.2,0,0,1,3.194,3.2,3.206,3.206,0,0,1-3.2,3.2" transform="translate(5.91 10.915)"/></g></g></g></svg>