<svg xmlns="http://www.w3.org/2000/svg" xmlns:xlink="http://www.w3.org/1999/xlink" viewBox="0 0 45.646 40.035">
  <defs>
    <style>
      .cls-1 {
        fill: none;
      }

      .cls-2 {
        clip-path: url(#clip-path);
      }

      .cls-3 {
        fill: #fec47b;
      }

      .cls-4 {
        fill: #edb472;
      }

      .cls-5 {
        fill: #e6edef;
      }

      .cls-6 {
        fill: #d7dcdb;
      }

      .cls-7 {
        fill: #dfa666;
      }

      .cls-8 {
        fill: #ff482f;
      }

      .cls-9 {
        fill: #f03e27;
      }

      .cls-10 {
        fill: #ffd34b;
      }

      .cls-11 {
        fill: #edbf39;
      }
    </style>
    <clipPath id="clip-path">
      <path id="Path_166" data-name="Path 166" class="cls-1" d="M0-40.035H45.646V0H0Z"/>
    </clipPath>
  </defs>
  <g id="Group_737" data-name="Group 737" transform="translate(0 40.035)">
    <g id="Group_334" data-name="Group 334" class="cls-2">
      <g id="Group_317" data-name="Group 317" transform="translate(42.049 -8.722)">
        <path id="Path_149" data-name="Path 149" class="cls-3" d="M0,0H-38.453a3.6,3.6,0,0,1-3.6-3.6v-24.12a3.6,3.6,0,0,1,3.6-3.6H0a3.6,3.6,0,0,1,3.6,3.6V-3.6A3.6,3.6,0,0,1,0,0"/>
      </g>
      <g id="Group_318" data-name="Group 318" transform="translate(45.646 -36.438)">
        <path id="Path_150" data-name="Path 150" class="cls-4" d="M0,0V24.12a3.6,3.6,0,0,1-3.6,3.6H-6.65a3.6,3.6,0,0,0,3.6-3.6V0a3.6,3.6,0,0,0-3.6-3.6H-3.6A3.6,3.6,0,0,1,0,0"/>
      </g>
      <g id="Group_319" data-name="Group 319" transform="translate(41.646 -32.313)">
        <path id="Path_151" data-name="Path 151" class="cls-5" d="M0,0V15.869a.737.737,0,0,1-.744.737,2.82,2.82,0,0,0-1.612.519.665.665,0,0,0-.144.131,2.755,2.755,0,0,0-.679,1.691.744.744,0,0,1-.751.712H-33.717a.744.744,0,0,1-.751-.712,2.759,2.759,0,0,0-.678-1.691.694.694,0,0,0-.145-.131,2.82,2.82,0,0,0-1.612-.519.737.737,0,0,1-.744-.737V0A.736.736,0,0,1-36.9-.736a2.812,2.812,0,0,0,1.612-.519.694.694,0,0,0,.145-.131,2.759,2.759,0,0,0,.678-1.691.744.744,0,0,1,.751-.712H-3.93a.745.745,0,0,1,.751.712A2.755,2.755,0,0,0-2.5-1.386a.665.665,0,0,0,.144.131A2.812,2.812,0,0,0-.745-.736.736.736,0,0,1,0,0"/>
      </g>
      <g id="Group_320" data-name="Group 320" transform="translate(40.902 -33.05)">
        <path id="Path_152" data-name="Path 152" class="cls-6" d="M0,0A2.8,2.8,0,0,1-1.612-.519a.718.718,0,0,1-.145-.13,2.764,2.764,0,0,1-.678-1.692.745.745,0,0,0-.752-.712H-5.463c.4,0,.739.821.75,1.22A2.308,2.308,0,0,0-2.891.446,1.763,1.763,0,0,1-1.534,2.179V15.163A1.763,1.763,0,0,1-2.891,16.9a2.31,2.31,0,0,0-1.822,2.28c-.011.4-.351,1.22-.75,1.22h2.276a.745.745,0,0,0,.752-.712,2.759,2.759,0,0,1,.678-1.692.694.694,0,0,1,.145-.131A2.812,2.812,0,0,1,0,17.342.736.736,0,0,0,.744,16.6V.736A.736.736,0,0,0,0,0"/>
      </g>
      <g id="Group_321" data-name="Group 321" transform="translate(22.823 -32.543)">
        <path id="Path_153" data-name="Path 153" class="cls-7" d="M0,0A1.527,1.527,0,0,1,1.527,1.526,1.527,1.527,0,0,1,0,3.054,1.528,1.528,0,0,1-1.527,1.526,1.527,1.527,0,0,1,0,0"/>
      </g>
      <g id="Group_322" data-name="Group 322" transform="translate(33.953 -26.126)">
        <path id="Path_154" data-name="Path 154" class="cls-7" d="M0,0H-22.261a.669.669,0,0,1-.668-.669.669.669,0,0,1,.668-.669H0a.669.669,0,0,1,.669.669A.669.669,0,0,1,0,0"/>
      </g>
      <g id="Group_323" data-name="Group 323" transform="translate(31.06 -23.71)">
        <path id="Path_155" data-name="Path 155" class="cls-7" d="M0,0H-16.473a.669.669,0,0,1-.669-.669.669.669,0,0,1,.669-.668H0a.668.668,0,0,1,.668.668A.668.668,0,0,1,0,0"/>
      </g>
      <g id="Group_324" data-name="Group 324" transform="translate(18.177 -20.954)">
        <path id="Path_156" data-name="Path 156" class="cls-7" d="M0,0H-5.9a.669.669,0,0,1-.668-.669A.669.669,0,0,1-5.9-1.338H0a.669.669,0,0,1,.669.669A.669.669,0,0,1,0,0"/>
      </g>
      <g id="Group_325" data-name="Group 325" transform="translate(18.177 -18.558)">
        <path id="Path_157" data-name="Path 157" class="cls-7" d="M0,0H-5.9a.669.669,0,0,1-.668-.669A.669.669,0,0,1-5.9-1.338H0a.669.669,0,0,1,.669.669A.669.669,0,0,1,0,0"/>
      </g>
      <g id="Group_326" data-name="Group 326" transform="translate(33.372 -20.954)">
        <path id="Path_158" data-name="Path 158" class="cls-7" d="M0,0H-5.9a.67.67,0,0,1-.669-.669A.67.67,0,0,1-5.9-1.338H0a.669.669,0,0,1,.668.669A.669.669,0,0,1,0,0"/>
      </g>
      <g id="Group_327" data-name="Group 327" transform="translate(33.372 -18.558)">
        <path id="Path_159" data-name="Path 159" class="cls-7" d="M0,0H-5.9a.67.67,0,0,1-.669-.669A.67.67,0,0,1-5.9-1.338H0a.669.669,0,0,1,.668.669A.669.669,0,0,1,0,0"/>
      </g>
      <g id="Group_328" data-name="Group 328" transform="translate(18.881 -11.508)">
        <path id="Path_160" data-name="Path 160" class="cls-8" d="M0,0V11.046a.461.461,0,0,0,.681.405L3.722,9.8a.458.458,0,0,1,.44,0L7.2,11.451a.461.461,0,0,0,.681-.405V0Z"/>
      </g>
      <g id="Group_329" data-name="Group 329" transform="translate(26.765 -11.508)">
        <path id="Path_161" data-name="Path 161" class="cls-9" d="M0,0V11.046a.461.461,0,0,1-.681.405l-1.049-.57V0Z"/>
      </g>
      <g id="Group_330" data-name="Group 330" transform="translate(22.823 -17.758)">
        <path id="Path_162" data-name="Path 162" class="cls-10" d="M0,0A5.961,5.961,0,0,1,5.961,5.961,5.961,5.961,0,0,1,0,11.922,5.961,5.961,0,0,1,0,0"/>
      </g>
      <g id="Group_331" data-name="Group 331" transform="translate(28.784 -11.836)">
        <path id="Path_163" data-name="Path 163" class="cls-11" d="M0,0A5.963,5.963,0,0,1-5.923,6a5.977,5.977,0,0,1-1.05-.086A5.961,5.961,0,0,0-2.02,0,5.961,5.961,0,0,0-6.97-5.836,5.86,5.86,0,0,1-6-5.922,5.963,5.963,0,0,1,0,0"/>
      </g>
      <g id="Group_332" data-name="Group 332" transform="translate(23.029 -14.583)">
        <path id="Path_164" data-name="Path 164" class="cls-8" d="M0,0,.765,1.55a.231.231,0,0,0,.173.126l1.711.249a.229.229,0,0,1,.127.392L1.539,3.524a.228.228,0,0,0-.066.2l.292,1.7a.23.23,0,0,1-.334.242L-.1,4.87a.231.231,0,0,0-.214,0l-1.53.8a.231.231,0,0,1-.335-.242l.293-1.7a.231.231,0,0,0-.067-.2L-3.189,2.317a.23.23,0,0,1,.127-.392l1.711-.249a.229.229,0,0,0,.173-.126L-.413,0A.23.23,0,0,1,0,0"/>
      </g>
      <g id="Group_333" data-name="Group 333" transform="translate(24.568 -11.059)">
        <path id="Path_165" data-name="Path 165" class="cls-9" d="M0,0A.223.223,0,0,0-.065.2l.291,1.7a.231.231,0,0,1-.334.244L-1,1.679-1.322-.183a.309.309,0,0,1,.09-.275L.09-1.748,1.111-1.6a.23.23,0,0,1,.127.393Z"/>
      </g>
    </g>
  </g>
</svg>
