<svg xmlns="http://www.w3.org/2000/svg" xmlns:xlink="http://www.w3.org/1999/xlink" viewBox="0 0 16 15.999">
  <defs>
    <style>
      .cls-1, .cls-3 {
        fill: #fe9da9;
      }

      .cls-2 {
        clip-path: url(#clip-path);
      }

      .cls-3 {
        fill-rule: evenodd;
      }
    </style>
    <clipPath id="clip-path">
      <path id="Path_146" data-name="Path 146" class="cls-1" d="M0-25.609H16v16H0Z" transform="translate(0 0)"/>
    </clipPath>
  </defs>
  <g id="Symbol_27_14" data-name="Symbol 27 – 14" transform="translate(-622 -728.609)">
    <g id="Group_287" data-name="Group 287" class="cls-2" transform="translate(622 754.218)">
      <g id="Group_277" data-name="Group 277" transform="translate(0 -25.609)">
        <path id="Path_136" data-name="Path 136" class="cls-3" d="M-4.808-.32a7.483,7.483,0,0,0-7.473,7.458,7.482,7.482,0,0,0,7.455,7.477,7.483,7.483,0,0,0,7.48-7.466A7.483,7.483,0,0,0-4.808-.32m-8,7.936V6.679c.012-.113.026-.225.038-.338a7.909,7.909,0,0,1,1.948-4.457A7.852,7.852,0,0,1-6.191-.727c.3-.054.606-.084.909-.125h.938l.339.039a7.9,7.9,0,0,1,4.516,2A7.853,7.853,0,0,1,3.063,5.771c.053.3.083.605.124.908v.937c-.013.113-.026.225-.039.338A7.905,7.905,0,0,1,1.2,12.412a7.854,7.854,0,0,1-4.636,2.612c-.3.054-.605.083-.909.124h-.938l-.339-.039a7.9,7.9,0,0,1-4.515-2,7.846,7.846,0,0,1-2.553-4.585c-.053-.3-.084-.605-.124-.908" transform="translate(12.813 0.852)"/>
      </g>
      <g id="Group_278" data-name="Group 278" transform="translate(4.808 -21.637)">
        <path id="Path_137" data-name="Path 137" class="cls-3" d="M-1.916-2.719a.534.534,0,0,0,.532-.524.531.531,0,0,0-.53-.539.532.532,0,0,0-.532.522.534.534,0,0,0,.53.54m-.267-2.953c0-.4,0-.792,0-1.187a.8.8,0,0,1,.018-.2.24.24,0,0,1,.242-.186.239.239,0,0,1,.254.188.865.865,0,0,1,.019.217c0,.8,0,1.594,0,2.391a.2.2,0,0,0,.148.228A1.043,1.043,0,0,1-.862-3.1a1.072,1.072,0,0,1-.921.908,1.043,1.043,0,0,1-1.11-.655A.182.182,0,0,0-3.1-2.986c-.536,0-1.072,0-1.609,0A.988.988,0,0,1-4.909-3a.235.235,0,0,1-.2-.245A.236.236,0,0,1-4.922-3.5a.8.8,0,0,1,.2-.019c.547,0,1.093,0,1.641,0A.16.16,0,0,0-2.9-3.64a.973.973,0,0,1,.587-.59.178.178,0,0,0,.131-.207c0-.411,0-.822,0-1.234" transform="translate(5.107 7.246)"/>
      </g>
      <g id="Group_279" data-name="Group 279" transform="translate(7.728 -12.301)">
        <path id="Path_138" data-name="Path 138" class="cls-3" d="M0-.227A1.193,1.193,0,0,1,.024-.422.239.239,0,0,1,.28-.605a.226.226,0,0,1,.241.2,1.574,1.574,0,0,1,0,.372A.238.238,0,0,1,.264.18.242.242,0,0,1,.017-.035C.007-.1.006-.159,0-.227" transform="translate(0 0.605)"/>
      </g>
      <g id="Group_280" data-name="Group 280" transform="translate(3.587 -13.945)">
        <path id="Path_139" data-name="Path 139" class="cls-3" d="M-.431-.156A.627.627,0,0,1-.888.3a.255.255,0,0,1-.22-.389A1.133,1.133,0,0,1-.825-.375a.26.26,0,0,1,.394.219" transform="translate(1.149 0.415)"/>
      </g>
      <g id="Group_281" data-name="Group 281" transform="translate(7.738 -23.768)">
        <path id="Path_140" data-name="Path 140" class="cls-3" d="M-.32-.249a1.116,1.116,0,0,1-.023.189A.241.241,0,0,1-.6.124.225.225,0,0,1-.838-.063,1.535,1.535,0,0,1-.847-.434.236.236,0,0,1-.6-.662a.248.248,0,0,1,.264.231c.009.056.008.114.013.182" transform="translate(0.854 0.663)"/>
      </g>
      <g id="Group_282" data-name="Group 282" transform="translate(1.872 -17.909)">
        <path id="Path_141" data-name="Path 141" class="cls-3" d="M-.235-.321C-.5-.321-.628-.408-.627-.59s.128-.265.4-.265.392.086.391.27-.126.264-.4.264" transform="translate(0.627 0.855)"/>
      </g>
      <g id="Group_283" data-name="Group 283" transform="translate(13.34 -17.908)">
        <path id="Path_142" data-name="Path 142" class="cls-3" d="M-.233-.322c-.052,0-.1,0-.155-.012A.244.244,0,0,1-.619-.582.243.243,0,0,1-.391-.847a1.434,1.434,0,0,1,.311,0,.254.254,0,0,1,.249.266.259.259,0,0,1-.26.256,1.319,1.319,0,0,1-.141,0Z" transform="translate(0.62 0.858)"/>
      </g>
      <g id="Group_284" data-name="Group 284" transform="translate(11.692 -13.951)">
        <path id="Path_143" data-name="Path 143" class="cls-3" d="M-.438-.3c-.039.051-.08.149-.151.182A.315.315,0,0,1-.847-.122,1.041,1.041,0,0,1-1.112-.38.231.231,0,0,1-1.086-.7.23.23,0,0,1-.762-.742.665.665,0,0,1-.438-.3" transform="translate(1.167 0.793)"/>
      </g>
      <g id="Group_285" data-name="Group 285" transform="translate(3.607 -22.052)">
        <path id="Path_144" data-name="Path 144" class="cls-3" d="M-.118,0C.1,0,.4.29.377.447A.33.33,0,0,1,.242.669a.3.3,0,0,1-.257,0A.827.827,0,0,1-.286.393a.312.312,0,0,1,0-.258C-.254.065-.154.026-.118,0" transform="translate(0.315)"/>
      </g>
      <g id="Group_286" data-name="Group 286" transform="translate(11.695 -22.056)">
        <path id="Path_145" data-name="Path 145" class="cls-3" d="M-.429-.156A.623.623,0,0,1-.879.3a.257.257,0,0,1-.23-.375,1.069,1.069,0,0,1,.3-.306.252.252,0,0,1,.377.222" transform="translate(1.143 0.415)"/>
      </g>
    </g>
  </g>
</svg>
