<svg xmlns="http://www.w3.org/2000/svg" xmlns:xlink="http://www.w3.org/1999/xlink" viewBox="0 0 24 24"><defs><style>.a,.c{fill:#aeb4c2;}.b{clip-path:url(#a);}.c{fill-rule:evenodd;}</style><clipPath id="a"><path class="a" d="M0-41.936H24v24H0Z" transform="translate(0 41.936)"/></clipPath></defs><g transform="translate(0 41.936)"><g class="b" transform="translate(0 -41.936)"><g transform="translate(0 0)"><path class="c" d="M-4.448-15.94c.107-.061.181-.1.254-.145.876-.527,1.763-1.036,2.623-1.588a1.349,1.349,0,0,1,1.3-.249,1.083,1.083,0,0,0,.231.03,11.537,11.537,0,0,0,4.982-.353A10.1,10.1,0,0,0,10.7-22.3a7.625,7.625,0,0,0,1.177-6.294A8.906,8.906,0,0,0,7.332-34.3a11.237,11.237,0,0,0-4.153-1.36,11.779,11.779,0,0,0-4.936.373,9.943,9.943,0,0,0-5.731,4.043,7.667,7.667,0,0,0-.388,8.329,8.957,8.957,0,0,0,3.243,3.373.408.408,0,0,1,.217.411c-.024,1-.03,2-.042,3,0,.053.006.107.011.193m5.3-21.33h1.5c.247.029.493.06.74.088A12.423,12.423,0,0,1,10.4-33.9a9.819,9.819,0,0,1,2.987,5.186c.094.439.141.888.211,1.333v1.218c-.054.369-.091.741-.163,1.105a9.944,9.944,0,0,1-3.895,6.143,12.936,12.936,0,0,1-9.96,2.487.688.688,0,0,0-.411.084q-2.427,1.457-4.843,2.934a2.061,2.061,0,0,0-.181.137H-5.9c0-1.7,0-3.4,0-5.1a.371.371,0,0,0-.161-.33c-.4-.319-.814-.633-1.186-.988a9.8,9.8,0,0,1-3.026-5.571c-.047-.283-.087-.567-.13-.85v-1.265a1.64,1.64,0,0,0,.041-.2,8.881,8.881,0,0,1,1.21-3.847,11.784,11.784,0,0,1,8.494-5.65c.5-.091,1-.129,1.5-.192" transform="translate(10.399 37.27)"/></g><g transform="translate(6.001 8.249)"><path class="c" d="M-4.482,0c1.733,0,3.468,0,5.2,0a.747.747,0,0,1,.747,1.015.727.727,0,0,1-.639.478A1.989,1.989,0,0,1,.593,1.5H-9.551a1.678,1.678,0,0,1-.327-.017.748.748,0,0,1-.6-.806A.745.745,0,0,1-9.73,0c.6-.009,1.2,0,1.8,0Z" transform="translate(10.48 0.003)"/></g><g transform="translate(7.5 12.75)"><path class="c" d="M-3.359-1.121c-1.233,0-2.468,0-3.7,0a.745.745,0,0,1-.746-1,.729.729,0,0,1,.627-.493,1.765,1.765,0,0,1,.233-.006H.246a1.48,1.48,0,0,1,.3.018.747.747,0,0,1,.593.788.753.753,0,0,1-.706.689c-.078.006-.156,0-.234,0Z" transform="translate(7.854 2.621)"/></g></g></g></svg>