<svg xmlns="http://www.w3.org/2000/svg" xmlns:xlink="http://www.w3.org/1999/xlink" viewBox="0 0 32 32">
  <defs>
    <style>
      .cls-1 {
        fill: none;
      }

      .cls-2 {
        clip-path: url(#clip-path);
      }

      .cls-3 {
        fill: #2c63b4;
      }

      .cls-4 {
        fill: #fff;
      }
    </style>
    <clipPath id="clip-path">
      <path id="Path_410" data-name="Path 410" class="cls-1" d="M0-32H32V0H0Z"/>
    </clipPath>
  </defs>
  <g id="Group_757" data-name="Group 757" class="cls-2" transform="translate(0 32)">
    <g id="Group_755" data-name="Group 755" transform="translate(16 -32)">
      <path id="Path_408" data-name="Path 408" class="cls-3" d="M0,0A16,16,0,0,1,16,16,16,16,0,0,1,0,32,16,16,0,0,1,0,0"/>
    </g>
    <g id="Group_756" data-name="Group 756" transform="translate(17.236 -19.113)">
      <path id="Path_409" data-name="Path 409" class="cls-4" d="M0,0V-1.279a.691.691,0,0,1,.732-.769H2.6V-4.789L.031-4.8A3.175,3.175,0,0,0-3.463-1.445V0H-5.108V3.2h1.66v8H-.129v-8H2.334l.119-1.256L2.637,0Z"/>
    </g>
  </g>
</svg>
