<svg xmlns="http://www.w3.org/2000/svg" xmlns:xlink="http://www.w3.org/1999/xlink" viewBox="0 0 32 31.999">
  <defs>
    <style>
      .cls-1 {
        fill: none;
      }

      .cls-2 {
        clip-path: url(#clip-path);
      }

      .cls-3 {
        fill: #ef4c3a;
      }

      .cls-4 {
        fill: #fff;
      }
    </style>
    <clipPath id="clip-path">
      <path id="Path_417" data-name="Path 417" class="cls-1" d="M0-32H32V0H0Z"/>
    </clipPath>
  </defs>
  <g id="Group_886" data-name="Group 886" transform="translate(0 31.999)">
    <g id="Group_766" data-name="Group 766" class="cls-2">
      <g id="Group_763" data-name="Group 763" transform="translate(16 -31.999)">
        <path id="Path_414" data-name="Path 414" class="cls-3" d="M0,0A16,16,0,0,1,16,16,16,16,0,0,1,0,32,16,16,0,0,1-16,16,16,16,0,0,1,0,0"/>
      </g>
      <g id="Group_764" data-name="Group 764" transform="translate(14.949 -16.459)">
        <path id="Path_415" data-name="Path 415" class="cls-4" d="M0,0C-1.892,0-2.677-2.417-2.677-3.712a2.326,2.326,0,0,1,.471-1.546,2.006,2.006,0,0,1,1.5-.688c1.736,0,2.7,2.269,2.7,3.84A2.1,2.1,0,0,1,1.456-.583,2.226,2.226,0,0,1,0,0M.021,8.392c-2.254,0-3.769-1.025-3.769-2.548,0-.995.62-1.718,1.84-2.148A8.876,8.876,0,0,1,.343,3.36a3.547,3.547,0,0,1,.492.021C2.412,4.473,3.171,5.046,3.171,6.138c0,1.388-1.207,2.254-3.15,2.254M4.78-6.735H.856A5.981,5.981,0,0,0-3.193-5.487a3.727,3.727,0,0,0-1.369,2.8A3.346,3.346,0,0,0-1.007.585c.222,0,.468-.022.684-.042L-.354.618a1.7,1.7,0,0,0-.181.738,2.073,2.073,0,0,0,.6,1.372l.037.046L.04,2.779a9.376,9.376,0,0,0-4.023.956A2.977,2.977,0,0,0-5.634,6.28c0,1.486,1.424,2.985,4.606,2.985,3.7,0,5.632-1.983,5.632-3.944,0-1.448-.873-2.164-1.8-2.924l-.783-.591A1.122,1.122,0,0,1,1.478.919a1.407,1.407,0,0,1,.566-.99L2.071-.1a3.527,3.527,0,0,0,1.8-2.966,3.477,3.477,0,0,0-1.52-2.818h1.3A.091.091,0,0,0,3.7-5.9l1.121-.685a.082.082,0,0,0,.037-.094.084.084,0,0,0-.082-.06"/>
      </g>
      <g id="Group_765" data-name="Group 765" transform="translate(25.231 -15.721)">
        <path id="Path_416" data-name="Path 416" class="cls-4" d="M0,0H-2.068V-2a.085.085,0,0,0-.085-.083h-.89A.085.085,0,0,0-3.129-2V0H-5.186a.085.085,0,0,0-.085.083V.959a.085.085,0,0,0,.085.083h2.057V3.058a.085.085,0,0,0,.086.083h.89a.085.085,0,0,0,.085-.083V1.042H0A.083.083,0,0,0,.084.958V.083A.083.083,0,0,0,0,0"/>
      </g>
    </g>
  </g>
</svg>
