<svg xmlns="http://www.w3.org/2000/svg" xmlns:xlink="http://www.w3.org/1999/xlink" viewBox="0 0 31.5 24"><defs><style>.a,.c{fill:#fff;}.b{clip-path:url(#a);}.c{fill-rule:evenodd;}</style><clipPath id="a"><path class="a" d="M0-32H31.5V-8H0Z" transform="translate(0 32)"/></clipPath></defs><g transform="translate(0 32)"><g class="b" transform="translate(0 -32)"><g transform="translate(2.989 0)"><path class="c" d="M0-4.2a6.528,6.528,0,0,1,.46-.576Q6.276-10.6,12.1-16.421a2.125,2.125,0,0,1,.28-.247.636.636,0,0,1,.786.019,2.646,2.646,0,0,1,.256.239q2.195,2.208,4.387,4.418a2.44,2.44,0,0,1,.172.208l.056-.032c0-.079.011-.156.011-.235,0-.73,0-1.46,0-2.192a.708.708,0,0,1,.435-.7.71.71,0,0,1,.788.138.8.8,0,0,1,.234.656c0,1.188,0,2.375-.007,3.563a.636.636,0,0,0,.211.5q2.662,2.659,5.311,5.331c.182.184.334.4.5.6v.4a.791.791,0,0,1-1.4.175Q18.557-9.188,13-14.8c-.07-.071-.13-.152-.266-.316a1.735,1.735,0,0,1-.182.3Q6.99-9.262,1.422-3.709c-.065.065-.127.131-.2.191A.7.7,0,0,1,.1-3.682C.063-3.738.033-3.8,0-3.851Z" transform="translate(0 16.795)"/></g><g transform="translate(6.477 11.757)"><path class="c" d="M-3.476-2.477H-5.8v.3q0,1.808,0,3.613c0,.635-.259.895-.89.895q-3.166,0-6.33,0c-.619,0-.883-.263-.883-.875q0-5.1,0-10.192a.716.716,0,0,1,.864-.792.714.714,0,0,1,.575.637c.008.089,0,.182,0,.273V.867h5.2V.574c0-1.2,0-2.41,0-3.613,0-.635.271-.9.913-.9q1.732,0,3.463,0a.741.741,0,0,1,.852.851q0,1.83,0,3.662V.864H3.194V.579q0-4.783,0-9.569a1.473,1.473,0,0,1,.057-.464.7.7,0,0,1,.7-.454.692.692,0,0,1,.636.51,1.607,1.607,0,0,1,.044.419q0,5.194,0,10.391c0,.664-.253.92-.917.92q-3.129,0-6.255,0c-.691,0-.941-.253-.941-.95V-2.477Z" transform="translate(13.902 9.91)"/></g></g></g></svg>