<svg xmlns="http://www.w3.org/2000/svg" xmlns:xlink="http://www.w3.org/1999/xlink" viewBox="0 0 30 26.829">
  <defs>
    <style>
      .cls-1 {
        fill: none;
      }

      .cls-2 {
        clip-path: url(#clip-path);
      }

      .cls-3 {
        fill: #cc5c22;
      }

      .cls-4 {
        fill: #efeff7;
      }

      .cls-5 {
        fill: #ffa53d;
      }

      .cls-6 {
        fill: #0c0c0c;
      }
    </style>
    <clipPath id="clip-path">
      <path id="Path_438" data-name="Path 438" class="cls-1" d="M0-32H30V-5.171H0Z" transform="translate(0 32)"/>
    </clipPath>
  </defs>
  <g id="Group_794" data-name="Group 794" transform="translate(0 32)">
    <g id="Group_793" data-name="Group 793" class="cls-2" transform="translate(0 -32)">
      <g id="Group_781" data-name="Group 781" transform="translate(0 3.658)">
        <path id="Path_426" data-name="Path 426" class="cls-3" d="M-5.547,0H-33.108a1.219,1.219,0,0,0-1.22,1.22V19.512a1.22,1.22,0,0,0,1.22,1.22h9.135a1.6,1.6,0,0,1,1.429.881,2.813,2.813,0,0,0,2.518,1.558h1.4a2.815,2.815,0,0,0,2.519-1.558,1.6,1.6,0,0,1,1.428-.881h9.135a1.22,1.22,0,0,0,1.22-1.22V1.22A1.219,1.219,0,0,0-5.547,0" transform="translate(34.328)"/>
      </g>
      <g id="Group_782" data-name="Group 782" transform="translate(2.439)">
        <path id="Path_427" data-name="Path 427" class="cls-4" d="M-4.607,0a1.219,1.219,0,0,1,1.22,1.219V20.731a1.219,1.219,0,0,1-1.22,1.22h-8.9a2.439,2.439,0,0,0-2.439,2.439,2.439,2.439,0,0,0-2.44-2.439h-8.9a1.219,1.219,0,0,1-1.219-1.22V1.219A1.219,1.219,0,0,1-27.29,0Z" transform="translate(28.509)"/>
      </g>
      <g id="Group_783" data-name="Group 783" transform="translate(6.498 2.339)">
        <path id="Path_428" data-name="Path 428" class="cls-5" d="M-.94-.47-2.566.342l-.813,1.627L-4.191.342-5.818-.47l1.627-.813.812-1.626.813,1.626Z" transform="translate(5.818 2.909)"/>
      </g>
      <g id="Group_784" data-name="Group 784" transform="translate(18.176 4.09)">
        <path id="Path_429" data-name="Path 429" class="cls-6" d="M-.045-.089A.232.232,0,0,1-.276-.32.231.231,0,0,1-.045-.551.231.231,0,0,1,.187-.32a.232.232,0,0,1-.231.231" transform="translate(0.276 0.551)"/>
      </g>
      <g id="Group_785" data-name="Group 785" transform="translate(5.981 11.406)">
        <path id="Path_430" data-name="Path 430" class="cls-6" d="M-.044-.089A.231.231,0,0,1-.275-.321.231.231,0,0,1-.044-.552H4.833a.231.231,0,0,1,.231.231.231.231,0,0,1-.231.231Z" transform="translate(0.275 0.552)"/>
      </g>
      <g id="Group_786" data-name="Group 786" transform="translate(5.981 15.065)">
        <path id="Path_431" data-name="Path 431" class="cls-6" d="M-.044-.089A.23.23,0,0,1-.275-.32.231.231,0,0,1-.044-.551H4.833a.231.231,0,0,1,.231.231.231.231,0,0,1-.231.231Z" transform="translate(0.275 0.551)"/>
      </g>
      <g id="Group_787" data-name="Group 787" transform="translate(5.981 18.723)">
        <path id="Path_432" data-name="Path 432" class="cls-6" d="M-.044-.089A.231.231,0,0,1-.275-.321.231.231,0,0,1-.044-.552H4.833a.231.231,0,0,1,.231.231.231.231,0,0,1-.231.231Z" transform="translate(0.275 0.552)"/>
      </g>
      <g id="Group_788" data-name="Group 788" transform="translate(18.176 11.406)">
        <path id="Path_433" data-name="Path 433" class="cls-6" d="M-.045-.089A.232.232,0,0,1-.276-.321.232.232,0,0,1-.045-.552H5.2a.232.232,0,0,1,.231.231A.232.232,0,0,1,5.2-.089Z" transform="translate(0.276 0.552)"/>
      </g>
      <g id="Group_789" data-name="Group 789" transform="translate(18.176 15.065)">
        <path id="Path_434" data-name="Path 434" class="cls-6" d="M-.045-.089A.231.231,0,0,1-.276-.32.231.231,0,0,1-.045-.551H5.2A.231.231,0,0,1,5.43-.32.231.231,0,0,1,5.2-.089Z" transform="translate(0.276 0.551)"/>
      </g>
      <g id="Group_790" data-name="Group 790" transform="translate(18.176 7.748)">
        <path id="Path_435" data-name="Path 435" class="cls-6" d="M-.045-.089A.232.232,0,0,1-.276-.321.232.232,0,0,1-.045-.552H5.2a.232.232,0,0,1,.231.231A.232.232,0,0,1,5.2-.089Z" transform="translate(0.276 0.552)"/>
      </g>
      <g id="Group_791" data-name="Group 791" transform="translate(20.615 4.09)">
        <path id="Path_436" data-name="Path 436" class="cls-6" d="M-.045-.089A.232.232,0,0,1-.276-.32.231.231,0,0,1-.045-.551h2.8a.231.231,0,0,1,.231.231.232.232,0,0,1-.231.231Z" transform="translate(0.276 0.551)"/>
      </g>
      <g id="Group_792" data-name="Group 792" transform="translate(18.176 18.723)">
        <path id="Path_437" data-name="Path 437" class="cls-6" d="M-.045-.089A.232.232,0,0,1-.276-.321.232.232,0,0,1-.045-.552H5.2a.232.232,0,0,1,.231.231A.232.232,0,0,1,5.2-.089Z" transform="translate(0.276 0.552)"/>
      </g>
    </g>
  </g>
</svg>
