<svg xmlns="http://www.w3.org/2000/svg" viewBox="0 0 24 25.134">
  <defs>
    <style>
      .cls-1 {
        fill: #7f818c;
      }
    </style>
  </defs>
  <path id="attachment" class="cls-1" d="M7.484,25.134A6.3,6.3,0,0,1,3.027,14.38L16.063,1.344a4.669,4.669,0,0,1,6.741.2A4.668,4.668,0,0,1,23,8.283L10.755,20.529a2.951,2.951,0,0,1-4.173-4.173l8.3-8.3a.716.716,0,0,1,1.013,1.013l-8.3,8.3a1.518,1.518,0,1,0,2.147,2.147L21.989,7.269a3.27,3.27,0,0,0-.2-4.715,3.269,3.269,0,0,0-4.715-.2L4.04,15.393a4.87,4.87,0,0,0,6.888,6.888L23.964,9.245a.716.716,0,0,1,1.013,1.013L11.941,23.294A6.259,6.259,0,0,1,7.484,25.134Z" transform="translate(-1.188)"/>
</svg>
