<svg xmlns="http://www.w3.org/2000/svg" xmlns:xlink="http://www.w3.org/1999/xlink" viewBox="0 0 16 16">
  <defs>
    <style>
      .cls-1 {
        clip-path: url(#clip-path);
      }

      .cls-2 {
        fill-rule: evenodd;
      }
    </style>
    <clipPath id="clip-path">
      <path id="Path_500" data-name="Path 500" d="M0-25.368H16v16H0Z" transform="translate(0 25.368)"/>
    </clipPath>
  </defs>
  <g id="calendar" transform="translate(0 25.368)">
    <g id="Group_1087" data-name="Group 1087" class="cls-1" transform="translate(0 -25.368)">
      <g id="Group_1080" data-name="Group 1080" transform="translate(0 0)">
        <path id="Path_493" data-name="Path 493" class="cls-2" d="M-8.36-2.659c0,.231-.009.24-.251.24H-22.537c-.292,0-.292,0-.292-.293,0-.461,0-.922,0-1.383a1,1,0,0,1,1.04-1.016c.619,0,1.237,0,1.856,0,.179,0,.255.049.245.233-.012.242-.006.486,0,.728,0,.271.159.452.379.453a.406.406,0,0,0,.384-.45c0-.256.006-.512,0-.766,0-.145.054-.2.2-.2q3.127,0,6.255,0c.163,0,.21.065.206.213-.007.25,0,.5,0,.748,0,.27.159.452.379.453a.406.406,0,0,0,.384-.45c0-.255.006-.511,0-.766,0-.145.054-.2.2-.2.651,0,1.3,0,1.952,0a.99.99,0,0,1,.985.973c.007.492,0,.985,0,1.476m0,9.632A1.007,1.007,0,0,1-9.471,8.05H-21.718a1.006,1.006,0,0,1-1.111-1.078q0-4.187,0-8.375c0-.269,0-.269.278-.269H-8.658c.3,0,.3,0,.3.288q0,4.178,0,8.356M-9.494-5.859h-1.722c-.281,0-.282,0-.282-.284,0-.212,0-.424,0-.635a.381.381,0,0,0-.384-.423c-.228,0-.374.163-.379.429,0,.23-.01.461,0,.691.008.174-.061.228-.234.226-.51-.008-1.02,0-1.531,0h-4.65c-.241,0-.247-.008-.249-.242s0-.448,0-.672A.383.383,0,0,0-19.3-7.2a.38.38,0,0,0-.384.424c-.005.224-.011.449,0,.672.011.185-.051.253-.248.25-.606-.01-1.212-.006-1.818,0a1.767,1.767,0,0,0-1.841,1.794q0,5.522,0,11.046a1.905,1.905,0,0,0,.075.554A1.773,1.773,0,0,0-21.755,8.8q3.081,0,6.162,0h6.1a1.771,1.771,0,0,0,1.9-1.854q0-5.476,0-10.953a1.772,1.772,0,0,0-1.9-1.85" transform="translate(23.595 7.201)"/>
      </g>
      <g id="Group_1081" data-name="Group 1081" transform="translate(6.443 7.268)">
        <path id="Path_494" data-name="Path 494" class="cls-2" d="M-.858-1.282a.806.806,0,0,1-.8-.823.788.788,0,0,1,.787-.75.807.807,0,0,1,.806.778.8.8,0,0,1-.79.794M-.865-3.618A1.542,1.542,0,0,0-2.422-2.087,1.576,1.576,0,0,0-.869-.518,1.573,1.573,0,0,0,.7-2.089,1.557,1.557,0,0,0-.865-3.618" transform="translate(2.422 3.618)"/>
      </g>
      <g id="Group_1082" data-name="Group 1082" transform="translate(6.45 10.788)">
        <path id="Path_495" data-name="Path 495" class="cls-2" d="M-.844-1.282a.829.829,0,0,1-.787-.844.816.816,0,0,1,.78-.747.835.835,0,0,1,.82.814.819.819,0,0,1-.813.777m.03-2.333A1.5,1.5,0,0,0-2.382-2.089,1.535,1.535,0,0,0-.835-.521,1.558,1.558,0,0,0,.73-2.056,1.533,1.533,0,0,0-.814-3.615" transform="translate(2.382 3.617)"/>
      </g>
      <g id="Group_1083" data-name="Group 1083" transform="translate(10.575 7.265)">
        <path id="Path_496" data-name="Path 496" class="cls-2" d="M-.848-1.283A.806.806,0,0,1-1.636-2.1a.783.783,0,0,1,.8-.752A.8.8,0,0,1-.046-2.1a.791.791,0,0,1-.8.818m.028-2.339A1.534,1.534,0,0,0-2.394-2.085,1.569,1.569,0,0,0-.858-.52,1.542,1.542,0,0,0,.7-2.054,1.544,1.544,0,0,0-.821-3.622" transform="translate(2.395 3.622)"/>
      </g>
      <g id="Group_1084" data-name="Group 1084" transform="translate(10.579 10.79)">
        <path id="Path_497" data-name="Path 497" class="cls-2" d="M-.855-1.281a.818.818,0,0,1-.8-.825.805.805,0,0,1,.778-.766.838.838,0,0,1,.817.755.813.813,0,0,1-.791.836M-.876-3.614A1.507,1.507,0,0,0-2.413-2.073,1.543,1.543,0,0,0-.865-.52,1.531,1.531,0,0,0,.674-2.089,1.513,1.513,0,0,0-.876-3.614" transform="translate(2.413 3.614)"/>
      </g>
      <g id="Group_1085" data-name="Group 1085" transform="translate(2.313 7.27)">
        <path id="Path_498" data-name="Path 498" class="cls-2" d="M-.856-.418A.782.782,0,0,1-.061.345a.8.8,0,0,1-.81.81.8.8,0,0,1-.787-.8.789.789,0,0,1,.8-.777M-.864,1.917A1.559,1.559,0,0,0,.693.376,1.548,1.548,0,0,0-.864-1.181,1.569,1.569,0,0,0-2.416.369,1.569,1.569,0,0,0-.864,1.917" transform="translate(2.416 1.181)"/>
      </g>
      <g id="Group_1086" data-name="Group 1086" transform="translate(2.319 10.791)">
        <path id="Path_499" data-name="Path 499" class="cls-2" d="M-.846-1.282a.812.812,0,0,1-.795-.794.826.826,0,0,1,.811-.8.81.81,0,0,1,.792.8.8.8,0,0,1-.808.8m.019-2.335A1.549,1.549,0,0,0-2.388-2.088,1.57,1.57,0,0,0-.838-.52,1.574,1.574,0,0,0,.716-2.069,1.542,1.542,0,0,0-.827-3.617" transform="translate(2.388 3.617)"/>
      </g>
    </g>
  </g>
</svg>
