<svg xmlns="http://www.w3.org/2000/svg" xmlns:xlink="http://www.w3.org/1999/xlink" viewBox="0 0 16 16">
  <defs>
    <style>
      .cls-1, .cls-3 {
        fill: #fe5d70;
      }

      .cls-2 {
        clip-path: url(#clip-path);
      }

      .cls-3 {
        fill-rule: evenodd;
      }
    </style>
    <clipPath id="clip-path">
      <path id="Path_504" data-name="Path 504" class="cls-1" d="M0-28.134H16v16H0Z" transform="translate(0 28.134)"/>
    </clipPath>
  </defs>
  <g id="Group_1104" data-name="Group 1104" class="cls-2" transform="translate(0 0)">
    <g id="Group_1103" data-name="Group 1103" transform="translate(0 0)">
      <path id="Path_503" data-name="Path 503" class="cls-3" d="M-4.55-8.681l.931-1.151Q.073-14.4,3.768-18.963a11.07,11.07,0,0,1,.784-.869,1.166,1.166,0,0,1,.424-.243.561.561,0,0,1,.81.595,2.324,2.324,0,0,1-.431,1.212L-.2-9.413Q-1.582-7.2-2.968-4.994a1.666,1.666,0,0,1-2.784.21q-2.015-2.393-4.013-4.8a1.747,1.747,0,0,1,.345-2.64,1.678,1.678,0,0,1,2.255.416c.789.961,1.592,1.909,2.388,2.862l.226.268" transform="translate(10.215 20.128)"/>
    </g>
  </g>
</svg>
