<svg xmlns="http://www.w3.org/2000/svg" xmlns:xlink="http://www.w3.org/1999/xlink" viewBox="0 0 24 24"><defs><style>.a{clip-path:url(#a);}.b{fill-rule:evenodd;}</style><clipPath id="a"><path d="M0-43.226H24v24H0Z" transform="translate(0 43)"/></clipPath></defs><g transform="translate(0 43.452)"><g class="a" transform="translate(0 -43.226)"><g transform="translate(2 -0.225)"><path class="b" d="M-8.8-2.831c0-.522.014-1.059,0-1.6a.969.969,0,0,0-.933-.934.934.934,0,0,0-1.01.761c-.057.592-.014,1.194-.014,1.769Zm-.968,17.465c-.422,0-.844,0-1.265,0-.117,0-.182.023-.214.153a1.521,1.521,0,0,0,.612,1.583,1.52,1.52,0,0,0,1.7,0A1.523,1.523,0,0,0-8.328,14.8a.186.186,0,0,0-.223-.172c-.405.007-.812,0-1.218,0m8.59-1.008c-.409-.682-.791-1.325-1.179-1.964A9.107,9.107,0,0,1-3.743,7.41c-.057-1.043-.043-2.091-.044-3.138A6.089,6.089,0,0,0-5.467-.02a5.976,5.976,0,0,0-6.7-1.343,5.9,5.9,0,0,0-3.617,5.6c-.017.773,0,1.547,0,2.32a8.982,8.982,0,0,1-.938,4.162c-.466.908-1.014,1.773-1.525,2.657-.044.076-.084.153-.136.249ZM-9.555-6.366a2.258,2.258,0,0,1,1.2.619,2.1,2.1,0,0,1,.564,1.494c0,.453.014.907-.006,1.359a.362.362,0,0,0,.294.43A6.783,6.783,0,0,1-4.258-.136a6.972,6.972,0,0,1,1.466,4.4c0,.906,0,1.812.019,2.717a8.363,8.363,0,0,0,1.256,4.14c.523.868,1.042,1.74,1.568,2.607a.6.6,0,0,1,.086.656.593.593,0,0,1-.59.252q-3.291,0-6.583,0h-.225a6.746,6.746,0,0,1-.159,1.256,2.419,2.419,0,0,1-1.914,1.7,1.163,1.163,0,0,0-.128.044h-.656a5.667,5.667,0,0,1-1.119-.489,2.424,2.424,0,0,1-1.007-2.511h-.274q-3.3,0-6.607,0a.6.6,0,0,1-.591-.25.6.6,0,0,1,.085-.656c.576-.956,1.157-1.908,1.717-2.873a8.522,8.522,0,0,0,1.129-4.342c0-.874-.012-1.75.013-2.624a6.976,6.976,0,0,1,4.557-6.313c.421-.154.419-.154.423-.611.006-.507-.007-1.016.031-1.521a1.943,1.943,0,0,1,1.63-1.772.7.7,0,0,0,.108-.038Z" transform="translate(19.785 6.366)"/></g></g></g></svg>