<svg xmlns="http://www.w3.org/2000/svg" xmlns:xlink="http://www.w3.org/1999/xlink" viewBox="0 0 31.5 24"><defs><style>.a,.c{fill:#fff;}.b{clip-path:url(#a);}.c{fill-rule:evenodd;}</style><clipPath id="a"><path class="a" d="M0-32H31.5V-8H0Z" transform="translate(0 32)"/></clipPath></defs><g transform="translate(0 32)"><g class="b" transform="translate(0 -32)"><g transform="translate(2.157 0)"><path class="c" d="M-.412-.417c0,.1-.011.185-.011.271q0,9.621,0,19.246a1.869,1.869,0,0,0,1.987,2q10.379,0,20.759,0a1.869,1.869,0,0,0,1.986-2q0-8.083,0-16.168c0-.093-.008-.186-.011-.269h-1.84V2.9q0,7.632,0,15.265c0,.371.036.41.431.5a.586.586,0,0,1,.477.635.573.573,0,0,1-.546.547,1.37,1.37,0,0,1-.445-.041,1.542,1.542,0,0,1-1.144-1.642q0-9.119,0-18.239V-.417Zm25.948,2.84v17.2c-.049.185-.091.376-.15.557a3.088,3.088,0,0,1-3.077,2.146H1.576c-.106,0-.212,0-.318-.007A3.093,3.093,0,0,1-1.52,20.135c-.049-.168-.087-.341-.13-.508V-.657A1.418,1.418,0,0,1-.085-1.67q10.535.02,21.071.011a2.678,2.678,0,0,1,.526.041A1.208,1.208,0,0,1,22.453-.5c.011.195.005.389.005.583,0,.438,0,.878,0,1.334.529,0,1.023.022,1.516,0a1.371,1.371,0,0,1,1.562,1.013" transform="translate(1.65 1.67)"/></g><path class="c" d="M13.995-21.712H9.046v4.943h4.949Zm-2.484-1.25c.975,0,1.947,0,2.921,0,.593,0,.812.221.812.819q0,2.907,0,5.814c0,.587-.229.81-.825.81q-2.907,0-5.812,0c-.58,0-.808-.224-.808-.8q0-2.919,0-5.838c0-.6.211-.808.822-.808.964,0,1.927,0,2.892,0" transform="translate(-1.949 29.741)"/><g transform="translate(5.86 3.706)"><path class="c" d="M-2.784,0H4.7a2.643,2.643,0,0,1,.371.017.589.589,0,0,1,.5.566.581.581,0,0,1-.452.6,1.48,1.48,0,0,1-.339.04q-7.563,0-15.125,0c-.532,0-.821-.245-.788-.668a.581.581,0,0,1,.5-.542A2.616,2.616,0,0,1-10.268,0Z" transform="translate(11.137)"/></g><g transform="translate(15.15 9.85)"><path class="c" d="M-1.238,0C-.247,0,.744,0,1.735,0c.511,0,.791.3.713.726A.552.552,0,0,1,2,1.2a1.277,1.277,0,0,1-.288.035q-2.959,0-5.917,0c-.44,0-.7-.184-.744-.52a.565.565,0,0,1,.5-.684A7.279,7.279,0,0,1-3.626,0c.8,0,1.592,0,2.388,0" transform="translate(4.952 0.002)"/></g><g transform="translate(15.143 12.923)"><path class="c" d="M-1.238-.411c-.983,0-1.963,0-2.946,0-.4,0-.642-.141-.733-.405a.6.6,0,0,1,.443-.794,1.437,1.437,0,0,1,.288-.033q2.946,0,5.892,0c.455,0,.712.188.756.538A.567.567,0,0,1,1.97-.44a5.938,5.938,0,0,1-.713.028c-.832,0-1.663,0-2.494,0" transform="translate(4.952 1.645)"/></g><g transform="translate(15.147 6.777)"><path class="c" d="M-1.236,0c.99,0,1.981,0,2.972,0,.416,0,.659.171.72.483A.578.578,0,0,1,2,1.2a1.474,1.474,0,0,1-.314.036q-2.918,0-5.838,0c-.484,0-.754-.2-.787-.567a.578.578,0,0,1,.5-.642A4.291,4.291,0,0,1-3.864,0c.875,0,1.751,0,2.627,0" transform="translate(4.945 0.003)"/></g><g transform="translate(15.148 15.997)"><path class="c" d="M-1.236-.411c-.99,0-1.981,0-2.972,0-.448,0-.7-.2-.734-.559A.582.582,0,0,1-4.5-1.6a1.577,1.577,0,0,1,.341-.041H1.682a.739.739,0,0,1,.68.273.591.591,0,0,1-.39.936,5.526,5.526,0,0,1-.74.024c-.823,0-1.645,0-2.468,0" transform="translate(4.945 1.644)"/></g><g transform="translate(15.147 19.073)"><path class="c" d="M-1.236-.41c-1,0-2,0-3,0-.427,0-.676-.2-.707-.557A.575.575,0,0,1-4.492-1.6a1.832,1.832,0,0,1,.394-.04q2.867,0,5.731,0a1.678,1.678,0,0,1,.42.046.585.585,0,0,1,.424.6A.587.587,0,0,1,2-.432a2.007,2.007,0,0,1-.344.022c-.963,0-1.927,0-2.892,0" transform="translate(4.942 1.639)"/></g><g transform="translate(5.861 15.997)"><path class="c" d="M-1.238-.411c-.99,0-1.982,0-2.971,0-.451,0-.708-.2-.739-.555a.578.578,0,0,1,.466-.642,1,1,0,0,1,.209-.034q3.025,0,6.05,0a.615.615,0,0,1,.68.533.583.583,0,0,1-.486.676,2.268,2.268,0,0,1-.343.022c-.954,0-1.91,0-2.866,0" transform="translate(4.951 1.644)"/></g><g transform="translate(5.86 19.073)"><path class="c" d="M-1.231-.41c-1,0-2,0-3,0-.422,0-.674-.219-.694-.571a.577.577,0,0,1,.463-.62,1.281,1.281,0,0,1,.287-.035q2.959,0,5.918,0c.487,0,.78.264.75.657a.6.6,0,0,1-.647.566C1.218-.4.59-.41-.038-.41Z" transform="translate(4.926 1.639)"/></g></g></g></svg>