<svg id="Group_2047" data-name="Group 2047" xmlns="http://www.w3.org/2000/svg" viewBox="0 0 14.4 16">
  <defs>
    <style>
      .cls-1 {
        fill: #fe5d70;
      }
    </style>
  </defs>
  <path id="Path_891" data-name="Path 891" class="cls-1" d="M10.9.1h0a.367.367,0,0,0-.3-.1H5.7A1.752,1.752,0,0,0,4,1.7v.7H1.7A1.774,1.774,0,0,0,0,4.2V14.3A1.752,1.752,0,0,0,1.7,16h7a1.752,1.752,0,0,0,1.7-1.7v-.7h2.3a1.752,1.752,0,0,0,1.7-1.7v-8c0-.1,0-.2-.1-.2ZM11,1.2l2.3,2.3H12a1,1,0,0,1-1-1ZM8.7,15.3h-7a1,1,0,0,1-1-1V4.2a1,1,0,0,1,1-1H6.2V5A1.839,1.839,0,0,0,8,6.6H9.8v7.7A1.09,1.09,0,0,1,8.7,15.3Zm.6-9.4H8a1,1,0,0,1-1-1V3.6Zm3.4,7H10.4V6.3c0-.1,0-.2-.1-.2L6.9,2.5h0c-.1,0-.2-.1-.3-.1H4.7V1.7a1,1,0,0,1,1-1h4.5V2.5a1.752,1.752,0,0,0,1.7,1.7h1.8v7.7A1,1,0,0,1,12.7,12.9Z"/>
  <path id="Path_892" data-name="Path 892" class="cls-1" d="M2.1,8.7H5.6a.319.319,0,0,0,.3-.3c0-.2-.1-.4-.3-.4H2.1a.446.446,0,0,0-.4.3A.43.43,0,0,0,2.1,8.7Z"/>
  <path id="Path_893" data-name="Path 893" class="cls-1" d="M8.3,10.4H2.1a.3.3,0,0,0,0,.6H8.4a.319.319,0,0,0,.3-.3A.446.446,0,0,0,8.3,10.4Z"/>
  <path id="Path_894" data-name="Path 894" class="cls-1" d="M8.3,12.9H2.1a.3.3,0,0,0,0,.6H8.4a.319.319,0,0,0,.3-.3C8.7,13,8.5,12.9,8.3,12.9Z"/>
  <path id="Path_895" data-name="Path 895" class="cls-1" d="M12.4,8h-1c-.3,0-.4.2-.4.3a.319.319,0,0,0,.3.3h1a.319.319,0,0,0,.3-.3C12.7,8.2,12.5,8,12.4,8Z"/>
  <path id="Path_896" data-name="Path 896" class="cls-1" d="M12.4,10.4h-1a.3.3,0,0,0,0,.6h1a.319.319,0,0,0,.3-.3A.451.451,0,0,0,12.4,10.4Z"/>
</svg>
