<svg xmlns="http://www.w3.org/2000/svg" xmlns:xlink="http://www.w3.org/1999/xlink" viewBox="0 0 31.5 24"><defs><style>.a,.c{fill:#fff;}.b{clip-path:url(#a);}.c{fill-rule:evenodd;}</style><clipPath id="a"><path class="a" d="M0-32H31.5V-8H0Z" transform="translate(0 32)"/></clipPath></defs><g transform="translate(0 32)"><g class="b" transform="translate(0 -32)"><g transform="translate(0 0)"><path class="c" d="M-2.148-3.962c-.011.089-.023.127-.023.166,0,2.153,0,4.306.006,6.459a.535.535,0,0,0,.146.348A18.167,18.167,0,0,0-.3,4.587,12.328,12.328,0,0,0,10.343,6.621a11.443,11.443,0,0,0,5.931-3.58.754.754,0,0,0,.169-.46c.012-2.06.008-4.123.007-6.183,0-.094-.01-.189-.018-.313-.145.065-.256.114-.367.166C13.85-2.664,11.638-1.572,9.418-.5a4.814,4.814,0,0,1-4.273.016C3.888-1.053,2.651-1.667,1.4-2.263c-1.171-.56-2.342-1.122-3.551-1.7M-3.826-6.031c.155.085.239.134.326.176Q1.026-3.681,5.555-1.512a3.826,3.826,0,0,0,3.493-.017Q12.924-3.442,16.8-5.356c.539-.266,1.1-.494,1.642-.757q1.492-.726,2.971-1.475a1.571,1.571,0,0,0,.319-.309c-.108-.1-.211-.21-.326-.3a1.33,1.33,0,0,0-.246-.125q-6.027-2.948-12.056-5.9a3.905,3.905,0,0,0-3.578-.014l-2.048.984Q-1.709-10.756-6.9-8.26c-.194.094-.369.225-.566.346.07.095.092.153.132.173.716.361,1.355.949,2.261.731a6,6,0,0,1,.7-.084L1.644-7.8c1.79-.212,3.579-.427,5.37-.635a.573.573,0,0,1,.7.488.555.555,0,0,1-.542.618c-.4.06-.793.1-1.189.148l-6.533.766-3.273.385M-8.591-8.139A1.987,1.987,0,0,1-7.458-9.32c4.223-2.012,8.439-4.043,12.669-6.04a4.749,4.749,0,0,1,4.25.029c4.091,1.981,8.168,3.987,12.256,5.977a2.051,2.051,0,0,1,1.192,1.277v.431a2.1,2.1,0,0,1-1.175,1.179c-1.273.614-2.534,1.25-3.808,1.862a.477.477,0,0,0-.323.5c.012,2.277,0,4.553.014,6.83a1.3,1.3,0,0,1-.349.914A12.639,12.639,0,0,1,10.1,7.831,13.46,13.46,0,0,1-1.025,5.475,18.3,18.3,0,0,1-3.1,3.517a1.075,1.075,0,0,1-.251-.689c-.019-2.338-.014-4.677-.007-7.014A.384.384,0,0,0-3.607-4.6c-.547-.249-1.08-.523-1.663-.808v.818c0,1.364,0,2.728,0,4.092a.317.317,0,0,0,.181.341,1.641,1.641,0,0,1,.927,1.548A1.682,1.682,0,0,1-5.1,2.931c-.035.019-.067.043-.127.079.536,1.706,1.069,3.411,1.612,5.138H-8.139c.029-.111.051-.206.08-.3q.718-2.284,1.441-4.568c.059-.188.061-.29-.139-.413A1.726,1.726,0,0,1-6.7-.144.352.352,0,0,0-6.494-.5q-.008-2.648,0-5.292a.31.31,0,0,0-.222-.343c-.163-.062-.314-.152-.472-.223a2.353,2.353,0,0,1-1.4-1.287Z" transform="translate(8.591 15.847)"/></g></g></g></svg>