<svg xmlns="http://www.w3.org/2000/svg" xmlns:xlink="http://www.w3.org/1999/xlink" viewBox="0 0 31.5 24"><defs><style>.a,.c{fill:#fff;}.b{clip-path:url(#a);}.c{fill-rule:evenodd;}</style><clipPath id="a"><path class="a" d="M0-32H31.5V-8H0Z" transform="translate(0 32)"/></clipPath></defs><g transform="translate(0 32)"><g class="b" transform="translate(0 -32)"><g transform="translate(2.412 0)"><path class="c" d="M-4.753-5.333H-6.6c0,.273-.008.53.007.787a.215.215,0,0,0,.157.14q.764.017,1.528,0c.052,0,.141-.1.145-.151.016-.248.007-.5.007-.775M-4.773-8h-1.8V-6.2h1.8Zm0,1.808M-3.352-17.78c-.068-.281-.122-.543-.2-.8a.235.235,0,0,0-.179-.126q-1.951-.012-3.9,0a.236.236,0,0,0-.176.133c-.076.254-.13.516-.2.791Zm1.849,0c-.161-.613-.3-1.2-.469-1.784a1.256,1.256,0,0,0-1.2-.918q-2.513-.018-5.023,0a1.123,1.123,0,0,0-1.094.712c-.241.638-.386,1.313-.577,1.986h.994c.11-.447.22-.883.33-1.319.089-.351.2-.444.562-.444q2.293,0,4.581,0c.38,0,.491.088.581.452.11.435.22.872.33,1.313ZM-3.918-7.094c.071.007.113.014.154.014,1.946,0,3.89.007,5.836,0A1.753,1.753,0,0,0,3.808-8.366q1.322-3.943,2.635-7.891a.278.278,0,0,0-.109-.355,1.628,1.628,0,0,0-1.073-.324q-7.108,0-14.22,0-3.843,0-7.683,0a1.6,1.6,0,0,0-1.027.307.307.307,0,0,0-.119.4q1.308,3.894,2.6,7.793A1.806,1.806,0,0,0-13.292-7.08q2.788,0,5.575,0h.284c0-.314-.007-.583,0-.853A.875.875,0,0,1-6.5-8.857q.82-.008,1.642,0a.873.873,0,0,1,.934.927c.009.269,0,.537,0,.836m-3.517.85h-.347q-2.723,0-5.442,0a3.394,3.394,0,0,1-.673-.044,2.647,2.647,0,0,1-2.093-1.916q-1.017-3.063-2.036-6.119c-.035-.1-.077-.2-.113-.3l-.041.007v.2q0,7.384,0,14.767A1.368,1.368,0,0,0-16.684,1.83q11.006,0,22.009,0A1.373,1.373,0,0,0,6.827.325V-14.417c0-.07-.008-.139-.01-.208a.553.553,0,0,0-.1.195Q5.676-11.324,4.639-8.216a2.654,2.654,0,0,1-2.73,1.97q-2.75,0-5.5,0h-.33c0,.588,0,1.142,0,1.7a.889.889,0,0,1-.986.985c-.495.006-.99,0-1.485,0-.718,0-1.044-.331-1.046-1.057Zm15.1-9.6V.726a5.564,5.564,0,0,1-.445,1.036,2.194,2.194,0,0,1-1.964.908q-9.261-.01-18.519,0c-1.138,0-2.275,0-3.413,0a2.3,2.3,0,0,1-1.541-.518A2.413,2.413,0,0,1-19.014.726V-15.842a5.275,5.275,0,0,1,.222-.659,2.188,2.188,0,0,1,2.1-1.265q2.849-.007,5.7,0c.229,0,.311-.072.357-.284.113-.518.245-1.029.377-1.541a2.15,2.15,0,0,1,2.1-1.728q2.51-.034,5.025.005a2.067,2.067,0,0,1,1.932,1.453c.187.595.326,1.2.469,1.811a.3.3,0,0,0,.359.283c1.9-.01,3.8-.007,5.7-.005a2.116,2.116,0,0,1,1.853.875,6.012,6.012,0,0,1,.471,1.051" transform="translate(19.014 21.33)"/></g></g></g></svg>