<svg xmlns="http://www.w3.org/2000/svg" xmlns:xlink="http://www.w3.org/1999/xlink" viewBox="0 0 24 24.008">
  <defs>
    <style>
      .cls-1 {
        fill: #7f818c;
      }

      .cls-2 {
        clip-path: url(#clip-path);
      }
    </style>
    <clipPath id="clip-path">
      <path id="Path_488" data-name="Path 488" class="cls-1" d="M0-18.87H24V5.138H0Z" transform="translate(0 18.87)"/>
    </clipPath>
  </defs>
  <g id="Group_1713" data-name="Group 1713" transform="translate(0 18.87)">
    <g id="Group_1045" data-name="Group 1045" transform="translate(7.56 -18.834)">
      <path id="Path_484" data-name="Path 484" class="cls-1" d="M.3,2.3-1.111,7.959,4.545,6.544,15.3-4.208,11.054-8.452ZM9.995-5.27l1.06-1.061,2.123,2.123L12.117-3.149ZM2.037,2.684l6.9-6.892,2.12,2.118-6.9,6.9ZM1.385,4.151,2.694,5.46.949,5.9Z" transform="translate(1.111 8.452)"/>
    </g>
    <g id="Group_1049" data-name="Group 1049" class="cls-2" transform="translate(0 -18.87)">
      <g id="Group_1046" data-name="Group 1046" transform="translate(0 0)">
        <path id="Path_485" data-name="Path 485" class="cls-1" d="M2.568,4.816A10.5,10.5,0,0,1-7.913-5.7a10.5,10.5,0,0,1,10.52-10.48,10.5,10.5,0,0,1,2.762.374l.4-1.444A12,12,0,0,0-9-8.882,12,12,0,0,0-.624,5.88,12,12,0,0,0,14.138-2.49c.008-.023.013-.047.019-.07L12.709-2.95A10.515,10.515,0,0,1,2.568,4.816" transform="translate(9.432 17.69)"/>
      </g>
      <g id="Group_1047" data-name="Group 1047" transform="translate(22.412 11.971)">
        <path id="Path_486" data-name="Path 486" class="cls-1" d="M.019.008A10.607,10.607,0,0,1-.069,1.37l1.489.192a12.443,12.443,0,0,0,.1-1.555V-.028Z" transform="translate(0.069 0.028)"/>
      </g>
      <g id="Group_1048" data-name="Group 1048" transform="translate(22.123 8.807)">
        <path id="Path_487" data-name="Path 487" class="cls-1" d="M.06.378l1.487-.2A12.383,12.383,0,0,0,1.227-1.39l-1.447.4A10.463,10.463,0,0,1,.06.378" transform="translate(0.22 1.39)"/>
      </g>
    </g>
  </g>
</svg>
