<svg xmlns="http://www.w3.org/2000/svg" xmlns:xlink="http://www.w3.org/1999/xlink" viewBox="0 0 24.991 24.991">
  <defs>
    <style>
      .cls-1 {
        fill: #fff;
      }

      .cls-2 {
        stroke: rgba(0,0,0,0);
        stroke-miterlimit: 10;
        opacity: 0.6;
      }

      .cls-3 {
        clip-path: url(#clip-path);
      }
    </style>
    <clipPath id="clip-path">
      <path id="Path_488" data-name="Path 488" class="cls-1" d="M0-18.87H16.1v16.1H0Z" transform="translate(0 18.87)"/>
    </clipPath>
  </defs>
  <g id="Group_1988" data-name="Group 1988" transform="translate(-1201.5 -125.5)">
    <circle id="Ellipse_3" data-name="Ellipse 3" class="cls-2" cx="11.995" cy="11.995" r="11.995" transform="translate(1202 126)"/>
    <g id="Group_1975" data-name="Group 1975" transform="translate(1205.998 129.998)">
      <g id="Group_1045" data-name="Group 1045" transform="translate(5.071 0.024)">
        <path id="Path_484" data-name="Path 484" class="cls-1" d="M-.163-1.239l-.948,3.8,3.794-.949L9.9-5.6,7.05-8.452Zm6.5-5.079.711-.712L8.474-5.6l-.712.71ZM1-.982,5.628-5.6,7.05-4.184,2.424.443ZM.563,0l.878.878L.271,1.173Z" transform="translate(1.111 8.452)"/>
      </g>
      <g id="Group_1049" data-name="Group 1049" class="cls-3">
        <g id="Group_1046" data-name="Group 1046" transform="translate(0 0)">
          <path id="Path_485" data-name="Path 485" class="cls-1" d="M-1.382-2.592A7.044,7.044,0,0,1-8.413-9.65a7.044,7.044,0,0,1,7.057-7.03A7.043,7.043,0,0,1,.5-16.429L.764-17.4a8.051,8.051,0,0,0-9.9,5.616,8.05,8.05,0,0,0,5.616,9.9,8.049,8.049,0,0,0,9.9-5.615c.005-.015.009-.032.013-.047L5.421-7.8a7.054,7.054,0,0,1-6.8,5.209" transform="translate(9.432 17.69)"/>
        </g>
        <g id="Group_1047" data-name="Group 1047" transform="translate(15.035 8.03)">
          <path id="Path_486" data-name="Path 486" class="cls-1" d="M-.01,0A7.116,7.116,0,0,1-.069.91l1,.129A8.347,8.347,0,0,0,1,0V-.028Z" transform="translate(0.069 0.028)"/>
        </g>
        <g id="Group_1048" data-name="Group 1048" transform="translate(14.841 5.908)">
          <path id="Path_487" data-name="Path 487" class="cls-1" d="M-.032-.2l1-.136A8.307,8.307,0,0,0,.75-1.39l-.97.267A7.019,7.019,0,0,1-.032-.2" transform="translate(0.22 1.39)"/>
        </g>
      </g>
    </g>
  </g>
</svg>
