<svg xmlns="http://www.w3.org/2000/svg" xmlns:xlink="http://www.w3.org/1999/xlink" viewBox="0 0 16 16"><defs><style>.a{fill:#00355f;}.b{clip-path:url(#a);}</style><clipPath id="a"><path class="a" d="M0-16H16V0H0Z"/></clipPath></defs><g transform="translate(0 16)"><g class="b"><g transform="translate(9.655 -12.421)"><path class="a" d="M0,0A2.91,2.91,0,0,1,1.354,2.16a2.325,2.325,0,0,0,.991.222A2.346,2.346,0,0,0,4.691.036,2.346,2.346,0,0,0,0,0"/></g><g transform="translate(8.118 -7.617)"><path class="a" d="M0,0A2.347,2.347,0,0,0,2.347-2.347,2.346,2.346,0,0,0,0-4.693,2.347,2.347,0,0,0-2.347-2.346,2.347,2.347,0,0,0,0,0"/></g><g transform="translate(9.113 -7.457)"><path class="a" d="M0,0H-1.991a3.008,3.008,0,0,0-3,3V5.439l.006.039.168.052a13.674,13.674,0,0,0,4.085.659,8.37,8.37,0,0,0,3.567-.67l.156-.079H3V3A3.007,3.007,0,0,0,0,0"/></g><g transform="translate(12.996 -9.879)"><path class="a" d="M0,0H-1.976a2.892,2.892,0,0,1-.893,2.015A3.569,3.569,0,0,1-.318,5.431v.75A8.088,8.088,0,0,0,2.831,5.52l.156-.08H3V3A3.008,3.008,0,0,0,0,0"/></g><g transform="translate(4.001 -10.039)"><path class="a" d="M0,0A2.334,2.334,0,0,0,1.248-.362,2.9,2.9,0,0,1,2.339-2.214c0-.044.007-.088.007-.132A2.347,2.347,0,0,0,0-4.693,2.347,2.347,0,0,0-2.347-2.346,2.346,2.346,0,0,0,0,0"/></g><g transform="translate(6.108 -7.865)"><path class="a" d="M0,0A2.9,2.9,0,0,1-.893-2c-.073-.006-.145-.012-.219-.012H-3.1a3.008,3.008,0,0,0-3,3.005V3.425l0,.038.168.053a14.12,14.12,0,0,0,3.384.636V3.416A3.571,3.571,0,0,1,0,0"/></g></g></g></svg>