<svg xmlns="http://www.w3.org/2000/svg" xmlns:xlink="http://www.w3.org/1999/xlink" viewBox="0 0 39.996 39.997"><defs><style>.a{fill:none;}.b{clip-path:url(#a);}.c{fill:#fe5d70;}.c,.d{fill-rule:evenodd;}.d{fill:#fff;}</style><clipPath id="a"><path class="a" d="M0-30H40V10H0Z" transform="translate(0 30.001)"/></clipPath></defs><g transform="translate(39.996 9.996) rotate(180)"><g class="b" transform="translate(0 -30.001)"><g transform="translate(0 0.001)"><path class="c" d="M10,5A20,20,0,0,1-10,25,20,20,0,0,1-30,5,20,20,0,0,1-10-15,20,20,0,0,1,10,5" transform="translate(30 15)"/></g><g transform="translate(15.13 10.445)"><path class="d" d="M.458,4.78a1.968,1.968,0,0,0,1.5-.708Q5.748.3,9.536-3.474a1.862,1.862,0,0,0-.02-2.654Q5.808-9.818,2.1-13.51a4.618,4.618,0,0,0-.583-.511,1.813,1.813,0,0,0-2.6.575A1.839,1.839,0,0,0-.72-11.141Q2.285-8.125,5.3-5.123c.248.247.267.411,0,.661-.656.627-1.288,1.277-1.93,1.918-1.4,1.4-2.808,2.8-4.2,4.212a1.738,1.738,0,0,0-.392,2.006A1.71,1.71,0,0,0,.458,4.78" transform="translate(1.375 14.346)"/></g></g></g></svg>