<svg id="downlaod_file" xmlns="http://www.w3.org/2000/svg" viewBox="0 0 20 20">
  <defs>
    <style>
      .cls-1 {
        fill: #fff;
      }
    </style>
  </defs>
  <path id="Path_863" data-name="Path 863" class="cls-1" d="M0,0H20V20H0Z"/>
  <g id="Group_1902" data-name="Group 1902" transform="translate(1)">
    <path id="Path_856" data-name="Path 856" d="M13.631,8.658V4.873a.438.438,0,0,0-.121-.288L9.266.129A.423.423,0,0,0,8.962,0H2.234A2.242,2.242,0,0,0,0,2.255V14.977a2.227,2.227,0,0,0,2.234,2.238H7.545a5.732,5.732,0,1,0,6.086-8.558ZM9.379,1.463l2.847,3H10.379a1.007,1.007,0,0,1-1-1ZM2.234,16.382a1.4,1.4,0,0,1-1.4-1.4V2.255A1.408,1.408,0,0,1,2.234.834H8.545V3.456a1.838,1.838,0,0,0,1.834,1.838H12.8V8.549c-.125,0-.225-.017-.333-.017a5.816,5.816,0,0,0-3.8,1.434H3.368a.417.417,0,1,0,0,.834H7.887a6.632,6.632,0,0,0-.734,1.292H3.368a.417.417,0,0,0,0,.834H6.882a5.721,5.721,0,0,0,.25,3.46h-4.9Zm10.225,2.789a4.9,4.9,0,1,1,4.9-4.9A4.9,4.9,0,0,1,12.459,19.171Zm0,0"/>
    <path id="Path_857" data-name="Path 857" d="M75.968,202.518H80.19a.417.417,0,1,0,0-.834H75.968a.417.417,0,1,0,0,.834Zm0,0" transform="translate(-72.6 -193.806)"/>
    <path id="Path_858" data-name="Path 858" d="M250.663,286.333l-1.713,1.847v-4.552a.417.417,0,1,0-.834,0v4.552l-1.726-1.847a.421.421,0,0,0-.592-.021.415.415,0,0,0-.021.588l2.439,2.622a.414.414,0,0,0,.609,0l2.443-2.622a.414.414,0,1,0-.6-.567Zm0,0" transform="translate(-236.07 -272.148)"/>
  </g>
</svg>
