<svg xmlns="http://www.w3.org/2000/svg" viewBox="0 0 20 20">
  <defs>
    <style>
      .cls-1 {
        fill: #fff;
      }
    </style>
  </defs>
  <g id="message" transform="translate(0 -1.482)">
    <rect id="Rectangle_221" data-name="Rectangle 221" class="cls-1" width="20" height="20" transform="translate(0 1.482)"/>
    <g id="Group_1904" data-name="Group 1904">
      <g id="Group_1901" data-name="Group 1901" transform="translate(3.483 11.337)">
        <path id="Path_859" data-name="Path 859" d="M22.888,19.238a.319.319,0,0,1-.221-.088l-3.711-3.481A.322.322,0,1,1,19.4,15.2l3.711,3.481a.322.322,0,0,1-.221.557Z" transform="translate(-10.179 -15.111)"/>
        <path id="Path_860" data-name="Path 860" d="M5.724,19.238a.322.322,0,0,1-.221-.557L9.215,15.2a.322.322,0,1,1,.442.469L5.945,19.151A.319.319,0,0,1,5.724,19.238Z" transform="translate(-5.402 -15.112)"/>
      </g>
      <path id="Path_861" data-name="Path 861" d="M18.388,18.7H1.612A1.614,1.614,0,0,1,0,17.088V6.094A1.614,1.614,0,0,1,1.612,4.482H18.388A1.614,1.614,0,0,1,20,6.094V17.088A1.614,1.614,0,0,1,18.388,18.7ZM1.612,5.127a.969.969,0,0,0-.967.967V17.088a.969.969,0,0,0,.967.967H18.388a.969.969,0,0,0,.967-.967V6.094a.969.969,0,0,0-.967-.967Z" transform="translate(0 0)"/>
      <path id="Path_862" data-name="Path 862" d="M10.234,13.494a1.8,1.8,0,0,1-1.184-.427L.769,5.844a.322.322,0,1,1,.424-.486l8.281,7.223a1.207,1.207,0,0,0,1.52,0l8.27-7.211a.323.323,0,1,1,.424.486l-8.27,7.211A1.8,1.8,0,0,1,10.234,13.494Z" transform="translate(-0.234 -0.283)"/>
    </g>
  </g>
</svg>
