<svg xmlns="http://www.w3.org/2000/svg" xmlns:xlink="http://www.w3.org/1999/xlink" viewBox="0 0 20 20"><defs><style>.a,.c{fill:#aeb4c2;}.b{clip-path:url(#a);}.c{fill-rule:evenodd;}</style><clipPath id="a"><path class="a" d="M0-51.563H20v20H0Z" transform="translate(0 51.563)"/></clipPath></defs><g transform="translate(0 51.563)"><g class="b" transform="translate(0 -51.563)"><g transform="translate(0 0)"><path class="c" d="M-10.447-1.56a5.615,5.615,0,0,0-5.624,5.639,5.62,5.62,0,0,0,5.629,5.6A5.626,5.626,0,0,0-4.833,4.04a5.621,5.621,0,0,0-5.614-5.6m5.186,9.716,2.292,2.29.118-.111a.74.74,0,0,1,1.077,0c.309.3.61.608.914.912l3.491,3.492a.761.761,0,0,1,0,1.215q-.611.611-1.221,1.222a.752.752,0,0,1-1.165,0Q-1.93,15-4.107,12.819a.765.765,0,0,1-.014-1.214c.02-.02.038-.042.042-.048l-2.29-2.29a6.533,6.533,0,0,1-5.56,1.232,6.338,6.338,0,0,1-3.9-2.6,6.6,6.6,0,0,1,.978-8.777,6.625,6.625,0,0,1,8.8,0,6.63,6.63,0,0,1,.795,9.036" transform="translate(17.064 2.548)"/></g></g></g></svg>