<svg xmlns="http://www.w3.org/2000/svg" viewBox="0 0 70 61">
  <defs>
    <style>
      .cls-1 {
        fill: #aeb4c2;
      }
    </style>
  </defs>
  <g id="add-image_1" transform="translate(0 0)">
    <g id="Group_1719" data-name="Group 1719">
      <g id="Group_1718" data-name="Group 1718">
        <path id="Path_753" data-name="Path 753" class="cls-1" d="M307.593,277.208v-8.057a1.159,1.159,0,0,0-2.319,0v8.057h-8.115a1.151,1.151,0,1,0,0,2.3h8.115v8.057a1.159,1.159,0,0,0,2.319,0v-8.057h8.115a1.151,1.151,0,1,0,0-2.3Z" transform="translate(-252.665 -233.472)"/>
        <path id="Path_754" data-name="Path 754" class="cls-1" d="M68.833,28H1.167A1.159,1.159,0,0,0,0,29.151V75.189A1.159,1.159,0,0,0,1.167,76.34H37.718c.117.5.242,1,.406,1.5A16.365,16.365,0,0,0,70,72.961V29.151A1.159,1.159,0,0,0,68.833,28ZM39.214,65.423c-.181.338-.361.678-.517,1.036-.089.2-.161.411-.242.617-.127.323-.254.647-.36.979-.072.23-.129.46-.193.7s-.138.451-.19.685H28.939l15.394-24.3,7.446,11.74c-.376.043-.744.1-1.1.167A16.213,16.213,0,0,0,44.143,59.8a1.212,1.212,0,0,0-.1.066,15.919,15.919,0,0,0-3.573,3.525,1.178,1.178,0,0,0-.065.1,15.841,15.841,0,0,0-.933,1.439C39.375,65.093,39.3,65.261,39.214,65.423ZM26.187,69.434H18.471L26.833,56.6l3.8,5.82ZM67.5,75.013a14.048,14.048,0,0,1-27.16,2.123,13.764,13.764,0,0,1-.514-6.38l.03-.166c.019-.089.035-.178.043-.23a13.47,13.47,0,0,1,2.45-5.6,1.084,1.084,0,0,0,.068-.1,13.571,13.571,0,0,1,2.9-2.86,1.044,1.044,0,0,0,.106-.069,13.879,13.879,0,0,1,5.683-2.417,13.616,13.616,0,0,1,2.557-.239h.14A13.93,13.93,0,0,1,67.666,73.081,13.66,13.66,0,0,1,67.5,75.013Zm.162-10.4c-.108-.177-.226-.345-.341-.52-.048-.07-.092-.144-.141-.215h0q-.385-.559-.817-1.085c-.063-.076-.128-.15-.191-.23q-.39-.46-.817-.889c-.052-.053-.1-.108-.155-.161-.323-.32-.663-.624-1.012-.921-.078-.064-.157-.127-.233-.19-.321-.259-.65-.506-.991-.741-.05-.035-.1-.073-.149-.106-.382-.257-.776-.494-1.178-.718l-.277-.148c-.379-.2-.764-.391-1.16-.563-.041-.018-.082-.039-.123-.056-.429-.183-.869-.345-1.316-.489l-.314-.1c-.432-.131-.869-.25-1.316-.345l-.078-.02c-.467-.1-.94-.169-1.42-.23q-.175-.021-.35-.038-.4-.04-.81-.059l-9.157-14.44a1.223,1.223,0,0,0-1.689-.291,1.2,1.2,0,0,0-.295.291L32,60.262l-4.184-6.413a1.223,1.223,0,0,0-1.693-.266,1.2,1.2,0,0,0-.269.266L15.7,69.434H12.833a1.151,1.151,0,1,0,0,2.3H37.377c-.026.38-.043.764-.043,1.151s.014.771.04,1.151H2.333V30.3H67.667Z" transform="translate(0 -28)"/>
        <path id="Path_755" data-name="Path 755" class="cls-1" d="M97.275,104.6a4.637,4.637,0,1,0-4.637,4.6A4.621,4.621,0,0,0,97.275,104.6Zm-6.956,0a2.319,2.319,0,1,1,2.319,2.3A2.31,2.31,0,0,1,90.319,104.6Z" transform="translate(-75.154 -89.642)"/>
        <path id="Path_756" data-name="Path 756" class="cls-1" d="M113.159,64.6a1.155,1.155,0,0,0,1.159-1.151v-2.3a1.159,1.159,0,0,0-2.319,0v2.3A1.155,1.155,0,0,0,113.159,64.6Z" transform="translate(-95.663 -55.396)"/>
        <path id="Path_757" data-name="Path 757" class="cls-1" d="M80.131,70.23l1.159,1.993a1.164,1.164,0,0,0,1.586.411,1.147,1.147,0,0,0,.422-1.562l-1.159-1.993a1.164,1.164,0,0,0-1.581-.432,1.146,1.146,0,0,0-.435,1.569Z" transform="translate(-68.305 -62.671)"/>
        <path id="Path_758" data-name="Path 758" class="cls-1" d="M57.193,94.169,59.2,95.32a1.164,1.164,0,0,0,1.586-.411,1.146,1.146,0,0,0-.414-1.575l-.013-.008-2.008-1.151a1.164,1.164,0,0,0-1.581.432A1.147,1.147,0,0,0,57.193,94.169Z" transform="translate(-48.415 -82.814)"/>
        <path id="Path_759" data-name="Path 759" class="cls-1" d="M49.159,126.3h2.319a1.151,1.151,0,1,0,0-2.3H49.159a1.151,1.151,0,1,0,0,2.3Z" transform="translate(-41.044 -110.189)"/>
        <path id="Path_760" data-name="Path 760" class="cls-1" d="M60.707,148.575a1.164,1.164,0,0,0-1.584-.421L57.115,149.3a1.146,1.146,0,0,0-.435,1.569,1.164,1.164,0,0,0,1.581.432l.013-.008,2.008-1.151A1.147,1.147,0,0,0,60.707,148.575Z" transform="translate(-48.337 -130.735)"/>
        <path id="Path_761" data-name="Path 761" class="cls-1" d="M82.875,165.721a1.164,1.164,0,0,0-1.584.421l-1.159,1.993a1.146,1.146,0,0,0,.414,1.575,1.164,1.164,0,0,0,1.586-.411l.008-.013,1.159-1.993A1.146,1.146,0,0,0,82.875,165.721Z" transform="translate(-68.306 -145.775)"/>
        <path id="Path_762" data-name="Path 762" class="cls-1" d="M113.159,172A1.155,1.155,0,0,0,112,173.151v2.3a1.159,1.159,0,0,0,2.319,0v-2.3A1.155,1.155,0,0,0,113.159,172Z" transform="translate(-95.663 -151.283)"/>
        <path id="Path_763" data-name="Path 763" class="cls-1" d="M139.3,168.129l-1.159-1.993a1.164,1.164,0,0,0-1.581-.432,1.146,1.146,0,0,0-.435,1.569l.008.013,1.159,1.993a1.164,1.164,0,0,0,1.581.432,1.146,1.146,0,0,0,.435-1.569Z" transform="translate(-116.136 -145.763)"/>
        <path id="Path_764" data-name="Path 764" class="cls-1" d="M157.288,149.289l-.013-.008-2.008-1.151a1.164,1.164,0,0,0-1.586.411,1.146,1.146,0,0,0,.414,1.575l.013.008,2.008,1.151a1.164,1.164,0,0,0,1.586-.411A1.146,1.146,0,0,0,157.288,149.289Z" transform="translate(-131.124 -130.712)"/>
        <path id="Path_765" data-name="Path 765" class="cls-1" d="M160,125.151a1.155,1.155,0,0,0,1.159,1.151h2.319a1.151,1.151,0,1,0,0-2.3h-2.319A1.155,1.155,0,0,0,160,125.151Z" transform="translate(-136.656 -110.189)"/>
        <path id="Path_766" data-name="Path 766" class="cls-1" d="M153.722,94.853a1.164,1.164,0,0,0,1.584.421l2.008-1.151a1.146,1.146,0,0,0,.435-1.569,1.164,1.164,0,0,0-1.581-.432l-.013.008-2.008,1.151A1.147,1.147,0,0,0,153.722,94.853Z" transform="translate(-131.162 -82.768)"/>
        <path id="Path_767" data-name="Path 767" class="cls-1" d="M136.579,72.755a1.164,1.164,0,0,0,1.584-.421l1.159-1.993a1.146,1.146,0,0,0-.435-1.569,1.164,1.164,0,0,0-1.573.419l-1.159,1.993A1.146,1.146,0,0,0,136.579,72.755Z" transform="translate(-116.159 -62.776)"/>
        <path id="Path_768" data-name="Path 768" class="cls-1" d="M33.159,318.3h2.319a1.151,1.151,0,1,0,0-2.3H33.159a1.151,1.151,0,1,0,0,2.3Z" transform="translate(-27.363 -274.566)"/>
      </g>
    </g>
  </g>
</svg>
