<svg xmlns="http://www.w3.org/2000/svg" viewBox="0 0 20.222 30">
  <defs>
    <style>
      .cls-1 {
        fill: #fff;
      }
    </style>
  </defs>
  <g id="applicants" transform="translate(-83.447)">
    <g id="Group_1859" data-name="Group 1859" transform="translate(83.447)">
      <path id="Path_832" data-name="Path 832" class="cls-1" d="M103.229,24.307a.439.439,0,0,0-.439.439v4.132a.243.243,0,0,1-.243.243h-2.362V20.467a.439.439,0,0,0-.879,0v8.654H94.548L95.928,27.6a.788.788,0,0,0,.19-.632l0-.013L94.8,19.2l.354-.533a1,1,0,0,0,.629.273.77.77,0,0,0,.689-.426h0l1.386-2.777,3.157,1.223a3.045,3.045,0,0,1,1.773,2.768V22.7a.439.439,0,0,0,.879,0V19.723a3.922,3.922,0,0,0-2.319-3.582l-.008,0L96.086,14.1V12.871a4.118,4.118,0,0,0,1.558-2.709,1.9,1.9,0,0,0,1.117-.456,1.866,1.866,0,0,0,.195-2.633V5.446a5.446,5.446,0,1,0-10.893,0V7.117a1.764,1.764,0,0,0-.453,1.176,1.862,1.862,0,0,0,.648,1.414,1.9,1.9,0,0,0,1.117.456,4.074,4.074,0,0,0,1.647,2.774V14.1l-5.248,2.035-.008,0a3.922,3.922,0,0,0-2.319,3.582v9.155A1.123,1.123,0,0,0,84.569,30h4.187a.439.439,0,1,0,0-.879H87.81V20.467a.439.439,0,1,0-.879,0v8.654H84.569a.243.243,0,0,1-.243-.243V19.723A3.045,3.045,0,0,1,86.1,16.956l3.154-1.223,1.386,2.777a.77.77,0,0,0,.689.426,1,1,0,0,0,.629-.273l.354.533L91,26.958l0,.013a.788.788,0,0,0,.19.632l1.379,1.518H90.806a.439.439,0,1,0,0,.879h11.74a1.123,1.123,0,0,0,1.122-1.122V24.747A.44.44,0,0,0,103.229,24.307Zm-6.192-8.893L95.745,18l-1.554-1.1,1.6-1.97Zm-2.6,2.74-.335.5h-1.1l-.335-.5.883-.627ZM91.9,14.245v-.822a4.459,4.459,0,0,0,1.662.315,4.126,4.126,0,0,0,1.644-.343v.854l-1.651,2.038Zm6.629-5.952a.985.985,0,0,1-.342.747,1.024,1.024,0,0,1-.507.234V7.313A.994.994,0,0,1,98.531,8.293Zm-9.192.981a.993.993,0,0,1-.85-.981,1.044,1.044,0,0,1,.85-.959Zm.024-2.835a2.172,2.172,0,0,0-.42.095V5.446a4.567,4.567,0,1,1,9.135,0V6.5a1.954,1.954,0,0,0-.4-.077c0-.424,0-.342-1.384-1.834a.782.782,0,0,0-1-.122,8.473,8.473,0,0,1-5.122,1.379A.781.781,0,0,0,89.363,6.439Zm.855,3.181V6.734a9.391,9.391,0,0,0,5.493-1.481c.636.683.981,1.041,1.092,1.178V9.62a3.293,3.293,0,0,1-6.584,0ZM91.367,18l-1.292-2.589,1.248-.483,1.6,1.97Zm.5,9.049,1.272-7.515h.824l1.272,7.515-1.684,1.853Z" transform="translate(-83.447)"/>
    </g>
  </g>
</svg>
