<svg xmlns="http://www.w3.org/2000/svg" xmlns:xlink="http://www.w3.org/1999/xlink" viewBox="0 0 16 16">
  <defs>
    <style>
      .cls-1, .cls-3 {
        fill: #7f818c;
      }

      .cls-2 {
        clip-path: url(#clip-path);
      }

      .cls-3 {
        fill-rule: evenodd;
      }
    </style>
    <clipPath id="clip-path">
      <path id="Path_135" data-name="Path 135" class="cls-1" d="M0-21.064H16v16H0Z" transform="translate(0 21.064)"/>
    </clipPath>
  </defs>
  <g id="Group_337" data-name="Group 337" transform="translate(0 0)">
    <g id="Group_275" data-name="Group 275" class="cls-2">
      <g id="Group_273" data-name="Group 273" transform="translate(0 -0.001)">
        <path id="Path_133" data-name="Path 133" class="cls-3" d="M-2.532-.334A6.947,6.947,0,0,0-9.476,6.61a6.945,6.945,0,0,0,6.943,6.943A6.947,6.947,0,0,0,4.412,6.611,6.947,6.947,0,0,0-2.532-.334m-8,7.413V6.14l.039-.337A7.9,7.9,0,0,1-8.546,1.347,7.854,7.854,0,0,1-3.91-1.266c.3-.053.605-.083.909-.125h.937c.113.014.226.027.338.039a7.9,7.9,0,0,1,4.516,2A7.851,7.851,0,0,1,5.343,5.233c.053.3.084.605.125.908v.938l-.039.337a7.907,7.907,0,0,1-1.948,4.457,7.859,7.859,0,0,1-4.637,2.612c-.3.053-.605.084-.908.125H-3l-.339-.039a7.906,7.906,0,0,1-4.516-2,7.846,7.846,0,0,1-2.553-4.585c-.052-.3-.084-.605-.124-.908" transform="translate(10.532 1.391)"/>
      </g>
      <g id="Group_274" data-name="Group 274" transform="translate(5.435 2.088)">
        <path id="Path_134" data-name="Path 134" class="cls-3" d="M-.982-2.958A1.463,1.463,0,0,0,0-4.342a1.472,1.472,0,0,0-.978-1.4ZM-2.053-9.826a1.472,1.472,0,0,0-.98,1.408,1.461,1.461,0,0,0,.98,1.38Zm1.071-.007v2.942c.243.1.491.185.716.309a2.555,2.555,0,0,1,1.3,2.494,2.56,2.56,0,0,1-1.855,2.2c-.146.04-.186.1-.178.244.013.2.007.406,0,.608a.524.524,0,0,1-.529.555.526.526,0,0,1-.525-.56c0-.218-.007-.438,0-.656,0-.107-.027-.151-.135-.18a2.507,2.507,0,0,1-1.44-1,.531.531,0,0,1,.079-.764.518.518,0,0,1,.754.127,1.634,1.634,0,0,0,.649.544c.023.009.047.014.082.026V-5.912c-.036-.012-.074-.027-.113-.037A2.561,2.561,0,0,1-4.084-8.412,2.548,2.548,0,0,1-2.206-10.9c.139-.038.166-.1.162-.224-.008-.207-.005-.416,0-.624a.524.524,0,0,1,.529-.555.526.526,0,0,1,.526.56c0,.218.006.437,0,.656,0,.106.026.151.135.18a2.5,2.5,0,0,1,1.44,1A.532.532,0,0,1,.5-9.138a.522.522,0,0,1-.755-.126A1.636,1.636,0,0,0-.9-9.808c-.022-.009-.047-.014-.081-.025" transform="translate(4.084 12.302)"/>
      </g>
    </g>
  </g>
</svg>
