<svg xmlns="http://www.w3.org/2000/svg" viewBox="0 0 25.437 30">
  <defs>
    <style>
      .cls-1 {
        fill: #fff;
      }
    </style>
  </defs>
  <g id="Active_job_1" data-name="Active job_1" transform="translate(-38.937)">
    <g id="Group_1834" data-name="Group 1834" transform="translate(38.937)">
      <g id="Group_1833" data-name="Group 1833">
        <path id="Path_819" data-name="Path 819" class="cls-1" d="M57.921,0H40.695a1.76,1.76,0,0,0-1.758,1.758V7.734a.586.586,0,0,0,1.172,0V1.758a.587.587,0,0,1,.586-.586H57.921a.587.587,0,0,1,.586.586v21.8a.587.587,0,0,1-.586.586H40.695a.587.587,0,0,1-.586-.586V12.676a.586.586,0,0,0-1.172,0V23.555a1.76,1.76,0,0,0,1.758,1.758H57.921a1.76,1.76,0,0,0,1.758-1.758V1.758A1.76,1.76,0,0,0,57.921,0Z" transform="translate(-38.937)"/>
      </g>
    </g>
    <g id="Group_1836" data-name="Group 1836" transform="translate(38.937 9.772)">
      <g id="Group_1835" data-name="Group 1835">
        <path id="Path_820" data-name="Path 820" class="cls-1" d="M39.937,166.951a.586.586,0,1,0,.172.414A.59.59,0,0,0,39.937,166.951Z" transform="translate(-38.937 -166.78)"/>
      </g>
    </g>
    <g id="Group_1838" data-name="Group 1838" transform="translate(41.284 26.488)">
      <g id="Group_1837" data-name="Group 1837">
        <path id="Path_821" data-name="Path 821" class="cls-1" d="M80,452.232a.586.586,0,1,0,.172.414A.589.589,0,0,0,80,452.232Z" transform="translate(-78.996 -452.06)"/>
      </g>
    </g>
    <g id="Group_1840" data-name="Group 1840" transform="translate(43.628 2.347)">
      <g id="Group_1839" data-name="Group 1839">
        <path id="Path_822" data-name="Path 822" class="cls-1" d="M136.813,40.063a.586.586,0,0,0-.586.586V63.618a.587.587,0,0,1-.586.586H119.586a.586.586,0,0,0,0,1.172h16.055a1.76,1.76,0,0,0,1.758-1.758V40.649A.586.586,0,0,0,136.813,40.063Z" transform="translate(-119 -40.063)"/>
      </g>
    </g>
    <g id="Group_1842" data-name="Group 1842" transform="translate(43.632 4.688)">
      <g id="Group_1841" data-name="Group 1841">
        <path id="Path_823" data-name="Path 823" class="cls-1" d="M139.219,80a.586.586,0,0,0-.586.586v22.969a.587.587,0,0,1-.586.586h-18.4a.586.586,0,1,0,0,1.172h18.4a1.76,1.76,0,0,0,1.758-1.758V80.586A.586.586,0,0,0,139.219,80Z" transform="translate(-119.063 -80)"/>
      </g>
    </g>
    <g id="Group_1844" data-name="Group 1844" transform="translate(42.218 4.336)">
      <g id="Group_1843" data-name="Group 1843">
        <path id="Path_824" data-name="Path 824" class="cls-1" d="M101.148,74H95.523a.586.586,0,0,0-.586.586v5.625a.586.586,0,0,0,.586.586h5.625a.586.586,0,0,0,.586-.586V74.586A.586.586,0,0,0,101.148,74Zm-.586,5.625H96.109V75.172h4.453Z" transform="translate(-94.937 -74)"/>
      </g>
    </g>
    <g id="Group_1846" data-name="Group 1846" transform="translate(43.628 14.499)">
      <g id="Group_1845" data-name="Group 1845">
        <path id="Path_825" data-name="Path 825" class="cls-1" d="M100.419,232.549a.259.259,0,0,0-.366,0l-.688.688-.32-.32a.259.259,0,1,0-.366.366l.5.5a.259.259,0,0,0,.366,0l.871-.871A.259.259,0,0,0,100.419,232.549Z" transform="translate(-98.603 -232.474)"/>
      </g>
    </g>
    <g id="Group_1848" data-name="Group 1848" transform="translate(48.722 14.59)">
      <g id="Group_1847" data-name="Group 1847">
        <path id="Path_826" data-name="Path 826" class="cls-1" d="M213.359,249h-6.836a.586.586,0,0,0,0,1.172h6.836a.586.586,0,1,0,0-1.172Z" transform="translate(-205.937 -249)"/>
      </g>
    </g>
    <g id="Group_1850" data-name="Group 1850" transform="translate(51.125 4.336)">
      <g id="Group_1849" data-name="Group 1849">
        <path id="Path_827" data-name="Path 827" class="cls-1" d="M251.624,74h-4.1a.586.586,0,1,0,0,1.172h4.1a.586.586,0,1,0,0-1.172Z" transform="translate(-246.937 -74)"/>
      </g>
    </g>
    <g id="Group_1852" data-name="Group 1852" transform="translate(51.125 7.148)">
      <g id="Group_1851" data-name="Group 1851">
        <path id="Path_828" data-name="Path 828" class="cls-1" d="M251.624,122h-4.1a.586.586,0,1,0,0,1.172h4.1a.586.586,0,1,0,0-1.172Z" transform="translate(-246.937 -122)"/>
      </g>
    </g>
    <g id="Group_1854" data-name="Group 1854" transform="translate(51.125 9.961)">
      <g id="Group_1853" data-name="Group 1853">
        <path id="Path_829" data-name="Path 829" class="cls-1" d="M251.624,170h-4.1a.586.586,0,1,0,0,1.172h4.1a.586.586,0,1,0,0-1.172Z" transform="translate(-246.937 -170)"/>
      </g>
    </g>
    <g id="Group_1856" data-name="Group 1856" transform="translate(43.532 18.903)">
      <g id="Group_1855" data-name="Group 1855">
        <path id="Path_830" data-name="Path 830" class="cls-1" d="M100.6,308.924a.285.285,0,0,0-.4,0l-.758.758-.353-.353a.285.285,0,0,0-.4.4l.554.554a.285.285,0,0,0,.4,0l.96-.96A.285.285,0,0,0,100.6,308.924Z" transform="translate(-98.603 -308.841)"/>
      </g>
    </g>
    <g id="Group_1858" data-name="Group 1858" transform="translate(48.722 19.043)">
      <g id="Group_1857" data-name="Group 1857">
        <path id="Path_831" data-name="Path 831" class="cls-1" d="M213.359,325h-6.836a.586.586,0,0,0,0,1.172h6.836a.586.586,0,0,0,0-1.172Z" transform="translate(-205.937 -325)"/>
      </g>
    </g>
  </g>
</svg>
