<svg xmlns="http://www.w3.org/2000/svg" xmlns:xlink="http://www.w3.org/1999/xlink" viewBox="0 0 16 16"><defs><style>.a,.d{fill:#aeb4c2;}.b{fill:none;}.c{clip-path:url(#a);}.d{fill-rule:evenodd;}</style><clipPath id="a"><path class="a" d="M0-32.988H14.182v16H0Z" transform="translate(0 32.988)"/></clipPath></defs><g transform="translate(-1063 -3477)"><rect class="b" width="16" height="16" transform="translate(1063 3477)"/><g transform="translate(1064 3509.988)"><g class="c" transform="translate(0 -32.988)"><path class="d" d="M7.1-21.651H8.145v-4.665H7.1Zm0-4.665,1.982,0v4.667h1.054v-1.876H11.8v-.862H10.152V-25.46h1.775v-.856Zm-2.974.183c-.043-.02-.07-.036-.1-.046a3.633,3.633,0,0,0-1.831-.133,2.416,2.416,0,0,0-1.484.791,2.465,2.465,0,0,0-.535,1.988,2.065,2.065,0,0,0,1.58,1.826,4.51,4.51,0,0,0,2.387-.1c.113-.03.142-.085.141-.2,0-.718,0-1.437,0-2.154,0-.051-.006-.1-.009-.151H4.532v.822h.713c0,.309,0,.6,0,.89a.138.138,0,0,1-.081.1,2.591,2.591,0,0,1-.4.046,1.464,1.464,0,0,1-.954-.28,1.5,1.5,0,0,1-.556-1.281,1.392,1.392,0,0,1,1.407-1.475,2.853,2.853,0,0,1,1.232.19c.075-.282.146-.553.221-.837M1.92-17.794c.059,0,.109.008.159.008q5.014,0,10.027,0c.129,0,.168-.034.167-.165-.005-.9,0-1.8,0-2.7,0-.046-.005-.091-.008-.145H1.92Zm0-14.564v5.08H12.259v-1.557H9.609c-.318,0-.425-.107-.425-.42v-3.1ZM12.4-16.988H1.779a.746.746,0,0,1-.5-.819c.013-.938,0-1.875,0-2.812v-.187c-.13,0-.234,0-.338,0a.9.9,0,0,1-.94-.933q-.012-2.3,0-4.593a.9.9,0,0,1,.954-.934c.1,0,.206,0,.324,0v-.2c0-1.568.006-3.135,0-4.7a.749.749,0,0,1,.5-.819H9.591a2.986,2.986,0,0,1,.237.219q1.463,1.665,2.924,3.333a.57.57,0,0,1,.146.4c0,.531,0,1.062,0,1.592v.179c.123,0,.226,0,.329,0a.894.894,0,0,1,.948.924q.015,2.3,0,4.606a.9.9,0,0,1-.942.93c-.107,0-.214,0-.335,0v.2c0,.932-.01,1.863,0,2.8a.747.747,0,0,1-.5.819" transform="translate(0 32.988)"/></g></g></g></svg>