<svg xmlns="http://www.w3.org/2000/svg" viewBox="0 0 69.494 61">
  <defs>
    <style>
      .cls-1 {
        fill: #aeb4c2;
      }
    </style>
  </defs>
  <g id="add-video" transform="translate(0 0)">
    <path id="Path_769" data-name="Path 769" class="cls-1" d="M181.974,115.611a2.784,2.784,0,0,1-2.774-2.779V88.6a2.772,2.772,0,0,1,4.185-2.387l20.509,12.117a2.773,2.773,0,0,1,0,4.775l-20.51,12.119a2.761,2.761,0,0,1-1.41.39Zm0-27.49a.476.476,0,0,0-.235.065.455.455,0,0,0-.238.409v24.238a.457.457,0,0,0,.238.41.464.464,0,0,0,.473,0l20.51-12.12a.473.473,0,0,0,0-.813L182.213,88.189a.46.46,0,0,0-.238-.068Zm0,0" transform="translate(-154.784 -74.242)"/>
    <path id="Path_770" data-name="Path 770" class="cls-1" d="M321.012,275.089a13.811,13.811,0,1,1,13.811-13.811A13.827,13.827,0,0,1,321.012,275.089Zm0-25.32a11.509,11.509,0,1,0,11.509,11.509A11.522,11.522,0,0,0,321.012,249.768Zm0,0" transform="translate(-265.329 -214.089)"/>
    <path id="Path_771" data-name="Path 771" class="cls-1" d="M43.736,52.944H7.754A7.739,7.739,0,0,1,0,45.238V7.706A7.739,7.739,0,0,1,7.754,0H61.74a7.739,7.739,0,0,1,7.754,7.705V45.237a7.743,7.743,0,0,1-.066.967,1.159,1.159,0,0,1-2.3-.043,11.576,11.576,0,1,0-22.308,5.213,1.147,1.147,0,0,1-.121,1.068,1.164,1.164,0,0,1-.958.5ZM7.754,2.3a5.427,5.427,0,0,0-5.438,5.4V45.237a5.427,5.427,0,0,0,5.438,5.4H42.143a13.589,13.589,0,0,1-.447-3.453,13.932,13.932,0,0,1,25.481-7.671V7.706A5.427,5.427,0,0,0,61.74,2.3Zm0,0" transform="translate(0 0)"/>
    <path id="Path_772" data-name="Path 772" class="cls-1" d="M402.218,300.016a1.151,1.151,0,0,1-1.151-1.151V282.752a1.151,1.151,0,0,1,2.3,0v16.114A1.15,1.15,0,0,1,402.218,300.016Zm0,0" transform="translate(-346.618 -243.62)"/>
    <path id="Path_773" data-name="Path 773" class="cls-1" d="M358.6,343.633H342.483a1.151,1.151,0,1,1,0-2.3H358.6a1.151,1.151,0,1,1,0,2.3Zm0,0" transform="translate(-294.857 -295.294)"/>
  </g>
</svg>
