<svg xmlns="http://www.w3.org/2000/svg" viewBox="0 0 28.154 28.154">
  <defs>
    <style>
      .cls-1 {
        fill: #dbd9e2;
      }

      .cls-2 {
        fill: #edecf1;
      }

      .cls-3 {
        fill: #645ba5;
      }

      .cls-4 {
        fill: #494170;
      }

      .cls-5 {
        fill: #f09c48;
      }

      .cls-6 {
        fill: #edbc53;
      }

      .cls-7 {
        fill: #b6b3c6;
      }

      .cls-8 {
        fill: #a4a0b8;
      }

      .cls-9 {
        fill: #c8c6d4;
      }

      .cls-10 {
        fill: #6a56a8;
      }

      .cls-11 {
        fill: #e57d37;
      }
    </style>
  </defs>
  <g id="blog" transform="translate(-0.428 -0.426)">
    <path id="Path_1" data-name="Path 1" class="cls-1" d="M17.684,21.768v4.087h4.541a2.725,2.725,0,1,0,5.449,0V21.768Z"/>
    <path id="Path_2" data-name="Path 2" class="cls-2" d="M22.225,25.855V.426L18.138,1.788,14.505.426,10.872,1.788,7.24.426,3.607,1.788.428.426V25.855a2.725,2.725,0,0,0,2.725,2.725h21.8A2.725,2.725,0,0,1,22.225,25.855Z"/>
    <path id="Path_3" data-name="Path 3" class="cls-1" d="M1.791,25.855V1.01L.428.426V25.855a2.725,2.725,0,0,0,2.725,2.725H4.515A2.725,2.725,0,0,1,1.791,25.855Z"/>
    <path id="Path_4" data-name="Path 4" class="cls-3" d="M22.225.426,18.138,1.788,14.505.426,10.872,1.788,7.24.426,3.607,1.788.428.426V3.169h21.8Z"/>
    <path id="Path_5" data-name="Path 5" class="cls-4" d="M1.791,1.01.428.426V3.15H1.791Z"/>
    <path id="Path_6" data-name="Path 6" class="cls-5" d="M10.406,10.567a.917.917,0,0,0,.013-.151V9.053A2.728,2.728,0,0,0,7.694,6.329H4.969a.908.908,0,0,0-.908.908v8.174a.908.908,0,0,0,.908.908H9.51a2.728,2.728,0,0,0,2.725-2.725V13.14A2.729,2.729,0,0,0,10.406,10.567ZM5.877,8.145H7.694a.909.909,0,0,1,.908.908v1.362H5.877Zm4.541,5.449a.909.909,0,0,1-.908.908H5.877v-2.27H9.51a.909.909,0,0,1,.908.908Z"/>
    <rect id="Rectangle_1" data-name="Rectangle 1" class="cls-6" width="5.449" height="13.622" transform="translate(22.536 8.493) rotate(45)"/>
    <rect id="Rectangle_2" data-name="Rectangle 2" class="cls-5" width="2.724" height="13.622" transform="translate(24.463 10.42) rotate(45)"/>
    <path id="Path_7" data-name="Path 7" class="cls-7" d="M12.9,18.126l-.642,4.5,4.5-.642Z"/>
    <path id="Path_8" data-name="Path 8" class="cls-8" d="M12.261,22.621l4.5-.642-.889-.889Z"/>
    <path id="Path_9" data-name="Path 9" class="cls-1" d="M25.747,6.567l2.569,2.569a.908.908,0,0,1,0,1.284l-1.927,1.927L22.536,8.493l1.927-1.927A.908.908,0,0,1,25.747,6.567Z"/>
    <path id="Path_10" data-name="Path 10" class="cls-9" d="M28.316,9.135l-.305-.305L25.442,11.4l.947.947,1.927-1.927A.908.908,0,0,0,28.316,9.135Z"/>
    <rect id="Rectangle_3" data-name="Rectangle 3" class="cls-10" width="5.449" height="1.362" transform="translate(23.499 7.53) rotate(45)"/>
    <rect id="Rectangle_4" data-name="Rectangle 4" class="cls-11" width="1.34" height="13.622" transform="translate(25.442 11.398) rotate(45)"/>
    <rect id="Rectangle_5" data-name="Rectangle 5" class="cls-4" width="1.34" height="1.362" transform="translate(26.405 10.436) rotate(45)"/>
    <path id="Path_15" data-name="Path 15" class="cls-3" d="M4.061,24.01h5.9a.426.426,0,0,0,0-.851h-5.9a.426.426,0,0,0,0,.851Z"/>
    <path id="Path_16" data-name="Path 16" class="cls-3" d="M4.061,21.74h2.27a.426.426,0,0,0,0-.851H4.061a.426.426,0,0,0,0,.851Z"/>
    <path id="Path_17" data-name="Path 17" class="cls-3" d="M11.3,21.314a.426.426,0,0,0-.426-.426H7.694a.426.426,0,1,0,0,.851h3.179A.426.426,0,0,0,11.3,21.314Z"/>
    <path id="Path_18" data-name="Path 18" class="cls-3" d="M4.061,19.469H8.6a.426.426,0,0,0,0-.851H4.061a.426.426,0,0,0,0,.851Z"/>
    <path id="Path_19" data-name="Path 19" class="cls-3" d="M10.872,18.618H9.964a.426.426,0,0,0,0,.851h.908a.426.426,0,0,0,0-.851Z"/>
  </g>
</svg>
