<svg xmlns="http://www.w3.org/2000/svg" xmlns:xlink="http://www.w3.org/1999/xlink" viewBox="0 0 93 93">
  <defs>
    <style>
      .cls-1, .cls-3 {
        fill: #fe9da9;
      }

      .cls-2 {
        clip-path: url(#clip-path);
      }

      .cls-3 {
        fill-rule: evenodd;
      }
    </style>
    <clipPath id="clip-path">
      <path id="Path_507" data-name="Path 507" class="cls-1" d="M0-25.685H93v93H0Z" transform="translate(0 25.685)"/>
    </clipPath>
  </defs>
  <g id="Group_1642" data-name="Group 1642" transform="translate(-518 -2040)">
    <g id="Group_1108" data-name="Group 1108" class="cls-2" transform="translate(518 2040)">
      <g id="Group_1109" data-name="Group 1109" transform="translate(0 8.719)">
        <g id="Group_1106" data-name="Group 1106">
          <path id="Path_505" data-name="Path 505" class="cls-3" d="M.826,22.8A20.952,20.952,0,0,1,9.8,11.936a1.025,1.025,0,0,0,.557-1.006A13.876,13.876,0,0,1,22.525-2.84a13.248,13.248,0,0,1,7.121.96c.332.143.663.289,1.035.446.62-.712,1.206-1.441,1.855-2.112a26.957,26.957,0,0,1,19.73-8.719,26.31,26.31,0,0,1,24.2,16.125A27.831,27.831,0,0,1,78.534,12.2a.882.882,0,0,0,.7.88c7.584,2.613,12.329,7.884,13.221,15.828a21.158,21.158,0,0,1-.92,8.341A18.048,18.048,0,0,1,77.81,49.358a40.881,40.881,0,0,1-6.692.475c-.966.049-1.941.017-2.91,0-1.241-.017-1.955-.592-1.97-1.546s.692-1.535,1.938-1.552c2.364-.037,4.734.029,7.092-.117A15.513,15.513,0,0,0,89.382,29.365c-.9-6.781-5.563-12.183-12.058-13.538-2.215-.463-4.579-.2-6.875-.257-.332-.009-.663.083-.995.083a1.521,1.521,0,0,1-1.635-1.375,1.473,1.473,0,0,1,1.4-1.689c1.509-.134,3.022-.169,4.537-.232.506-.02,1.018,0,1.529,0-.14-6.863-5.074-16.088-14.45-19.873C51.248-11.39,39.986-8.171,33.362.316,33.914.908,34.5,1.48,35.02,2.1a13.524,13.524,0,0,1,3.213,8.5c.029,1.172-.509,1.887-1.446,1.938-.906.049-1.6-.635-1.638-1.8a10.4,10.4,0,0,0-2.644-6.8A10.389,10.389,0,0,0,21.4.576a10.313,10.313,0,0,0-7.747,8.407,17.825,17.825,0,0,0-.2,3.71,1.164,1.164,0,0,1-.795,1.218A18.457,18.457,0,0,0,2.587,30.84,16.756,16.756,0,0,0,18.28,46.631c2.813.16,5.637.071,8.456.106a3.9,3.9,0,0,1,1.175.109,1.272,1.272,0,0,1,.975,1.449,3.308,3.308,0,0,1-.972,1.381c-.174.172-.58.157-.875.157-3.062-.026-6.129.029-9.185-.12A19.879,19.879,0,0,1,.2,35.217,21.322,21.322,0,0,1,.826,22.8" transform="translate(0.444 12.265)"/>
        </g>
        <g id="Group_1107" data-name="Group 1107" transform="translate(34.068 34.646)">
          <path id="Path_506" data-name="Path 506" class="cls-3" d="M8.07,3.426c-3.2,3.207-6.2,6.212-9.2,9.216a6.064,6.064,0,0,1-.738.672,1.494,1.494,0,0,1-2.05-.172,1.455,1.455,0,0,1-.06-1.99,5.247,5.247,0,0,1,.555-.6Q2.33,4.793,8.09-.962c1.178-1.175,1.884-1.175,3.062,0q5.763,5.754,11.514,11.514a4.394,4.394,0,0,1,.655.749,1.509,1.509,0,0,1-2.061,2.1,4.469,4.469,0,0,1-.823-.7c-3.019-3.024-6.034-6.054-9.27-9.3V34.584a6.86,6.86,0,0,1-.031,1,1.524,1.524,0,0,1-3.016.077,6.009,6.009,0,0,1-.049-1.089q0-14.965,0-29.927Z" transform="translate(4.342 1.843)"/>
        </g>
      </g>
    </g>
  </g>
</svg>
