<svg xmlns="http://www.w3.org/2000/svg" viewBox="0 0 24 18.065">
  <defs>
    <style>
      .cls-1 {
        fill: #fff;
      }
    </style>
  </defs>
  <g id="list" transform="translate(0 -7.434)">
    <path id="Path_590" data-name="Path 590" class="cls-1" d="M31.166,48.288H15.118a1.2,1.2,0,0,1,0-2.4H31.166a1.2,1.2,0,0,1,0,2.4Z" transform="translate(-8.363 -23.107)"/>
    <path id="Path_591" data-name="Path 591" class="cls-1" d="M31.166,29.457H15.118a1.2,1.2,0,0,1,0-2.4H31.166a1.2,1.2,0,0,1,0,2.4Z" transform="translate(-8.363 -11.793)"/>
    <path id="Path_592" data-name="Path 592" class="cls-1" d="M31.166,10.626H15.118a1.2,1.2,0,0,1,0-2.4H31.166a1.2,1.2,0,0,1,0,2.4Z" transform="translate(-8.363 -0.479)"/>
    <circle id="Ellipse_11" data-name="Ellipse 11" class="cls-1" cx="1.608" cy="1.608" r="1.608" transform="translate(0 7.434)"/>
    <circle id="Ellipse_12" data-name="Ellipse 12" class="cls-1" cx="1.608" cy="1.608" r="1.608" transform="translate(0 14.858)"/>
    <circle id="Ellipse_13" data-name="Ellipse 13" class="cls-1" cx="1.608" cy="1.608" r="1.608" transform="translate(0 22.283)"/>
  </g>
</svg>
