<svg xmlns="http://www.w3.org/2000/svg" xmlns:xlink="http://www.w3.org/1999/xlink" viewBox="0 0 12.955 16">
  <defs>
    <style>
      .cls-1, .cls-3 {
        fill: #fe5d70;
      }

      .cls-2 {
        clip-path: url(#clip-path);
      }

      .cls-3 {
        fill-rule: evenodd;
      }
    </style>
    <clipPath id="clip-path">
      <path id="Path_796" data-name="Path 796" class="cls-1" d="M0-26.79H12.955v16H0Z" transform="translate(0 26.79)"/>
    </clipPath>
  </defs>
  <g id="Group_1772" data-name="Group 1772" transform="translate(0 26.79)">
    <g id="Group_1771" data-name="Group 1771" class="cls-2" transform="translate(0 -26.79)">
      <g id="Group_1767" data-name="Group 1767" transform="translate(0 0)">
        <path id="Path_792" data-name="Path 792" class="cls-3" d="M-5.215-1.285A1.271,1.271,0,0,0-6.608-2.313c-.548.044-1.12.577-1.1,1.028Zm-1.254.877h-4.578a.944.944,0,0,0-.887.48,1.026,1.026,0,0,0,.007,1.071.991.991,0,0,0,.942.469q4.516,0,9.031,0c.032,0,.063,0,.094,0A1,1,0,0,0-.924.241a.969.969,0,0,0-.982-.649H-6.469m4.445,2.891h-8.889v.161q0,4.124,0,8.248a.961.961,0,0,0,1.05,1.046q3.4,0,6.8,0a1.274,1.274,0,0,0,.309-.029.955.955,0,0,0,.735-1.023q0-4.116,0-8.232ZM-6.719-3.19h.5a.51.51,0,0,0,.085.028A2.156,2.156,0,0,1-4.345-1.414c.019.112.061.142.171.141q1.117-.007,2.234,0a2.417,2.417,0,0,1,.5.047A1.82,1.82,0,0,1-.008.368,1.852,1.852,0,0,1-1.024,2.279a.21.21,0,0,0-.134.226c.005.838,0,1.676,0,2.515q0,2.954,0,5.905a1.754,1.754,0,0,1-.8,1.555,4.429,4.429,0,0,1-.8.33h-7.438c-.1-.028-.209-.053-.312-.085a1.826,1.826,0,0,1-1.282-1.8q0-4.211,0-8.421a.2.2,0,0,0-.119-.219,1.879,1.879,0,0,1-.937-2.327,1.837,1.837,0,0,1,1.792-1.232q1.14-.005,2.281,0c.094,0,.149-.012.169-.124A2.069,2.069,0,0,1-7.452-2.945a4.946,4.946,0,0,1,.732-.245" transform="translate(12.948 3.19)"/>
      </g>
      <g id="Group_1768" data-name="Group 1768" transform="translate(6.043 8.278)">
        <path id="Path_793" data-name="Path 793" class="cls-3" d="M-.587-1.94c0,.8,0,1.593,0,2.389A.436.436,0,0,1-1.168.9a.444.444,0,0,1-.29-.453c0-.427,0-.854,0-1.28q0-1.741,0-3.482a.451.451,0,0,1,.373-.5.438.438,0,0,1,.5.468c0,.484,0,.968,0,1.452Z" transform="translate(1.459 4.817)"/>
      </g>
      <g id="Group_1769" data-name="Group 1769" transform="translate(3.723 8.28)">
        <path id="Path_794" data-name="Path 794" class="cls-3" d="M0-1.94c0-.807,0-1.613,0-2.419a.428.428,0,0,1,.475-.454.424.424,0,0,1,.374.345,1.141,1.141,0,0,1,.013.186q0,2.341,0,4.683A.857.857,0,0,1,.838.632.429.429,0,0,1,0,.542C0,.486,0,.428,0,.371V-1.94" transform="translate(0.001 4.816)"/>
      </g>
      <g id="Group_1770" data-name="Group 1770" transform="translate(8.37 8.281)">
        <path id="Path_795" data-name="Path 795" class="cls-3" d="M-.582-1.94c0,.8,0,1.6,0,2.4A.428.428,0,0,1-1.159.9.4.4,0,0,1-1.434.569a1.341,1.341,0,0,1-.011-.2q0-2.31,0-4.62c0-.047,0-.093,0-.14A.425.425,0,0,1-1-4.815a.422.422,0,0,1,.411.441c0,.692,0,1.384,0,2.076v.359" transform="translate(1.446 4.816)"/>
      </g>
    </g>
  </g>
</svg>
