<svg xmlns="http://www.w3.org/2000/svg" xmlns:xlink="http://www.w3.org/1999/xlink" viewBox="0 0 24 24"><defs><style>.a{clip-path:url(#a);}.b{fill-rule:evenodd;}</style><clipPath id="a"><path d="M0-26.839H24v24H0Z" transform="translate(0 27)"/></clipPath></defs><g transform="translate(0 26.678)"><g class="a" transform="translate(0 -26.839)"><g transform="translate(0 3.161)"><g transform="translate(0 0)"><path class="b" d="M-10.071-8.2a1.8,1.8,0,0,0,1.918-1.913s0-8.85,0-12.252A2.628,2.628,0,0,0-8.208-23a1.8,1.8,0,0,0-1.9-1.393h-9.242q-4.43,0-8.859-.009a1.986,1.986,0,0,0-1.43.563,1.94,1.94,0,0,0-.546,1.411c.013,2.768.012,5.537.01,8.306v3.968a2.29,2.29,0,0,0,.053.566A1.791,1.791,0,0,0-28.246-8.2h18.175Zm-18.184.985c-.085,0-.17,0-.254-.007a2.753,2.753,0,0,1-2.4-1.664,3.247,3.247,0,0,1-.175-.532c-.024-.092-.049-.183-.077-.273l.009-13.269.043-.141c.032-.129.066-.258.109-.384a2.788,2.788,0,0,1,2.764-1.894h18.157c.114,0,.19,0,.265.007a2.752,2.752,0,0,1,2.4,1.664,3.215,3.215,0,0,1,.175.535c.024.091.049.182.076.271l-.008,13.27-.042.138c-.034.13-.066.261-.11.388a2.788,2.788,0,0,1-2.764,1.894H-28.255" transform="translate(31.165 25.383)"/></g><g transform="translate(2.82 2.587)"><path class="b" d="M-8.537-6.206A.479.479,0,0,1-8.824-6.3a2.133,2.133,0,0,1-.212-.187l-5.712-5.426-.322-.294-1.74,1.556a.653.653,0,0,1-.414.2.664.664,0,0,1-.422-.207l-1.683-1.5-1.324,1.236q-2.394,2.241-4.793,4.477a.949.949,0,0,1-.381.214.417.417,0,0,1-.106.014.44.44,0,0,1-.378-.244.473.473,0,0,1,.059-.555,1.649,1.649,0,0,1,.146-.146l5.687-5.325c.039-.037.2-.173.2-.173l.169-.143S-25-17.237-26.164-18.273c-.209-.185-.28-.338-.245-.527a.481.481,0,0,1,.472-.407.514.514,0,0,1,.338.131c.392.334.774.68,1.157,1.025l6.928,6.2c.041.037.085.072.131.107l.127.1.167-.07,4.751-4.264q1.673-1.5,3.35-3a.972.972,0,0,1,.311-.2.426.426,0,0,1,.137-.023.489.489,0,0,1,.4.227.48.48,0,0,1-.054.585,1.74,1.74,0,0,1-.148.143l-5.728,5.137-.336.317.3.183a.645.645,0,0,1,.122.079q2.816,2.667,5.627,5.338a2.165,2.165,0,0,1,.2.2.486.486,0,0,1-.028.639.489.489,0,0,1-.349.147" transform="translate(26.418 19.206)"/></g></g></g></g></svg>