<svg xmlns="http://www.w3.org/2000/svg" viewBox="0 0 16 16">
  <defs>
    <style>
      .cls-1 {
        fill: #fe5d70;
      }
    </style>
  </defs>
  <g id="company" transform="translate(-0.002 0)">
    <g id="Group_607" data-name="Group 607" transform="translate(0.002 0)">
      <g id="Group_606" data-name="Group 606" transform="translate(0 0)">
        <path id="Path_363" data-name="Path 363" class="cls-1" d="M15.736,7.733H13.069V3.046a1.262,1.262,0,0,0-.748-1.152L8.11.023a.267.267,0,0,0-.375.244V4.533h-1.6a.267.267,0,0,0-.267.266h0v.533h-2.4V4.061a2.188,2.188,0,0,0,.173-.155A2.144,2.144,0,0,0,3.657.878a.267.267,0,0,0-.377,0h0L2.135,2.023l-.611-.611-.377.377.611.611L.613,3.545a.267.267,0,0,0,0,.377h0a2.112,2.112,0,0,0,1.5.618,2.161,2.161,0,0,0,.822-.163v.956H.269A.267.267,0,0,0,0,5.6H0V15.733A.267.267,0,0,0,.268,16H15.735A.267.267,0,0,0,16,15.734h0V8A.266.266,0,0,0,15.736,7.733ZM1.195,3.718,3.453,1.46A1.623,1.623,0,0,1,1.195,3.718Zm2.54,11.749H2.669V14.4H3.735ZM2.7,13.867H1.753a.143.143,0,0,1-.116-.066.217.217,0,0,1-.016-.207L2.4,11.2l.524,1.6-.2.619A.74.74,0,0,0,2.7,13.867Zm.524-.273L4,11.208l.785,2.4a.208.208,0,0,1-.021.193.143.143,0,0,1-.116.066h-1.3a.143.143,0,0,1-.116-.066A.217.217,0,0,1,3.221,13.594Zm2.647,1.873h-1.6V14.4h.382a.667.667,0,0,0,.555-.3.733.733,0,0,0,.083-.674L4.5,11.016a.529.529,0,0,0-1,0l0,.013-.3.909-.3-.922a.53.53,0,0,0-1,.013l-.78,2.385A.741.741,0,0,0,1.2,14.1a.667.667,0,0,0,.555.3h.382v1.067H.535v-9.6H5.869v9.6Zm9.6,0H6.4V5.067H8A.267.267,0,0,0,8.269,4.8h0V.677l3.835,1.7a.727.727,0,0,1,.432.664V8a.267.267,0,0,0,.266.267h2.667Z" transform="translate(-0.002 0)"/>
      </g>
    </g>
    <g id="Group_609" data-name="Group 609" transform="translate(12.802 9.067)">
      <g id="Group_608" data-name="Group 608">
        <path id="Path_364" data-name="Path 364" class="cls-1" d="M385.337,272.005H384.27a.266.266,0,0,0-.267.266h0v1.067a.266.266,0,0,0,.266.267h1.067a.266.266,0,0,0,.267-.266h0v-1.067A.266.266,0,0,0,385.337,272.005Zm-.267,1.067h-.533v-.533h.533Z" transform="translate(-384.003 -272.005)"/>
      </g>
    </g>
    <g id="Group_611" data-name="Group 611" transform="translate(12.802 11.2)">
      <g id="Group_610" data-name="Group 610">
        <path id="Path_365" data-name="Path 365" class="cls-1" d="M385.337,336.005H384.27a.267.267,0,0,0-.267.266h0v1.067a.266.266,0,0,0,.266.267h1.067a.266.266,0,0,0,.267-.266h0v-1.067A.266.266,0,0,0,385.337,336.005Zm-.267,1.067h-.533v-.533h.533Z" transform="translate(-384.003 -336.005)"/>
      </g>
    </g>
    <g id="Group_613" data-name="Group 613" transform="translate(12.802 13.333)">
      <g id="Group_612" data-name="Group 612">
        <path id="Path_366" data-name="Path 366" class="cls-1" d="M385.337,400.005H384.27a.266.266,0,0,0-.267.266h0v1.067a.266.266,0,0,0,.266.267h1.067a.266.266,0,0,0,.267-.266h0v-1.067A.266.266,0,0,0,385.337,400.005Zm-.267,1.067h-.533v-.533h.533Z" transform="translate(-384.003 -400.005)"/>
      </g>
    </g>
    <g id="Group_615" data-name="Group 615" transform="translate(7.202 9.067)">
      <g id="Group_614" data-name="Group 614">
        <path id="Path_367" data-name="Path 367" class="cls-1" d="M217.337,272.005H216.27a.267.267,0,0,0-.267.266h0v1.067a.267.267,0,0,0,.266.267h1.067a.267.267,0,0,0,.267-.266h0v-1.067A.267.267,0,0,0,217.337,272.005Zm-.267,1.067h-.533v-.533h.533Z" transform="translate(-216.003 -272.005)"/>
      </g>
    </g>
    <g id="Group_617" data-name="Group 617" transform="translate(7.202 11.2)">
      <g id="Group_616" data-name="Group 616">
        <path id="Path_368" data-name="Path 368" class="cls-1" d="M217.337,336.005H216.27a.267.267,0,0,0-.267.266h0v1.067a.267.267,0,0,0,.266.267h1.067a.267.267,0,0,0,.267-.266h0v-1.067A.267.267,0,0,0,217.337,336.005Zm-.267,1.067h-.533v-.533h.533Z" transform="translate(-216.003 -336.005)"/>
      </g>
    </g>
    <g id="Group_619" data-name="Group 619" transform="translate(7.202 6.933)">
      <g id="Group_618" data-name="Group 618">
        <path id="Path_369" data-name="Path 369" class="cls-1" d="M217.337,208.005H216.27a.267.267,0,0,0-.267.266h0v1.067a.267.267,0,0,0,.266.267h1.067a.267.267,0,0,0,.267-.266h0v-1.067A.267.267,0,0,0,217.337,208.005Zm-.267,1.067h-.533v-.533h.533Z" transform="translate(-216.003 -208.005)"/>
      </g>
    </g>
    <g id="Group_621" data-name="Group 621" transform="translate(1.069 6.4)">
      <g id="Group_620" data-name="Group 620">
        <path id="Path_370" data-name="Path 370" class="cls-1" d="M33.337,192.005H32.27a.267.267,0,0,0-.267.266h0v1.067a.266.266,0,0,0,.266.267h1.067a.267.267,0,0,0,.267-.266h0v-1.067A.267.267,0,0,0,33.337,192.005Zm-.267,1.067h-.533v-.533h.533Z" transform="translate(-32.003 -192.005)"/>
      </g>
    </g>
    <g id="Group_623" data-name="Group 623" transform="translate(3.469 6.4)">
      <g id="Group_622" data-name="Group 622">
        <path id="Path_371" data-name="Path 371" class="cls-1" d="M105.337,192.005H104.27a.267.267,0,0,0-.267.266h0v1.067a.266.266,0,0,0,.266.267h1.067a.267.267,0,0,0,.267-.266h0v-1.067A.267.267,0,0,0,105.337,192.005Zm-.267,1.067h-.533v-.533h.533Z" transform="translate(-104.003 -192.005)"/>
      </g>
    </g>
    <g id="Group_625" data-name="Group 625" transform="translate(1.069 8.533)">
      <g id="Group_624" data-name="Group 624">
        <path id="Path_372" data-name="Path 372" class="cls-1" d="M33.337,256.005H32.27a.267.267,0,0,0-.267.266h0v1.067a.267.267,0,0,0,.266.267h1.067a.267.267,0,0,0,.267-.266h0v-1.067A.267.267,0,0,0,33.337,256.005Zm-.267,1.067h-.533v-.533h.533Z" transform="translate(-32.003 -256.005)"/>
      </g>
    </g>
    <g id="Group_627" data-name="Group 627" transform="translate(3.469 8.533)">
      <g id="Group_626" data-name="Group 626">
        <path id="Path_373" data-name="Path 373" class="cls-1" d="M105.337,256.005H104.27a.267.267,0,0,0-.267.266h0v1.067a.267.267,0,0,0,.266.267h1.067a.267.267,0,0,0,.267-.266h0v-1.067A.267.267,0,0,0,105.337,256.005Zm-.267,1.067h-.533v-.533h.533Z" transform="translate(-104.003 -256.005)"/>
      </g>
    </g>
    <g id="Group_629" data-name="Group 629" transform="translate(7.202 13.333)">
      <g id="Group_628" data-name="Group 628">
        <path id="Path_374" data-name="Path 374" class="cls-1" d="M217.337,400.005H216.27a.267.267,0,0,0-.267.266h0v1.067a.267.267,0,0,0,.266.267h1.067a.267.267,0,0,0,.267-.266h0v-1.067A.267.267,0,0,0,217.337,400.005Zm-.267,1.067h-.533v-.533h.533Z" transform="translate(-216.003 -400.005)"/>
      </g>
    </g>
    <g id="Group_631" data-name="Group 631" transform="translate(9.869 2.933)">
      <g id="Group_630" data-name="Group 630">
        <path id="Path_375" data-name="Path 375" class="cls-1" d="M297.337,88.005H296.27a.267.267,0,0,0-.267.266h0V99.738a.267.267,0,0,0,.266.267h1.067a.267.267,0,0,0,.267-.266h0V88.272A.267.267,0,0,0,297.337,88.005Zm-.267,11.467h-.533V88.538h.533Z" transform="translate(-296.003 -88.005)"/>
      </g>
    </g>
  </g>
</svg>
