<svg xmlns="http://www.w3.org/2000/svg" viewBox="0 0 16 11.447"><defs><style>.a{fill:#999;}</style></defs><path class="a" d="M8.384,59.054h0c-1.82,0-3.8-.057-5.887-.17A2.489,2.489,0,0,1,.171,56.572a30.868,30.868,0,0,1,0-6.485,2.5,2.5,0,0,1,2.323-2.311,89.316,89.316,0,0,1,11.012,0,2.478,2.478,0,0,1,2.324,2.31,30.94,30.94,0,0,1,0,6.485,2.481,2.481,0,0,1-2.321,2.312C11.928,59,10.2,59.054,8.384,59.054ZM7.958,48.22c-1.814,0-3.639.057-5.426.169a1.875,1.875,0,0,0-1.75,1.762,30.261,30.261,0,0,0,0,6.356A1.862,1.862,0,0,0,2.53,58.27c2.076.112,4.046.169,5.854.169s3.515-.057,5.082-.169a1.883,1.883,0,0,0,1.753-1.761,30.27,30.27,0,0,0,0-6.356,1.879,1.879,0,0,0-1.75-1.763C11.626,48.277,9.772,48.22,7.958,48.22ZM6.435,51.153v4.218l4.05-2.095Z" transform="translate(0 -47.606)"/></svg>