<svg xmlns="http://www.w3.org/2000/svg" viewBox="0 0 30 19.317">
  <defs>
    <style>
      .cls-1 {
        fill: #5d647f;
      }

      .cls-2 {
        fill: #68748d;
      }

      .cls-3 {
        fill: #74829c;
      }

      .cls-4 {
        fill: #5c546a;
      }

      .cls-5 {
        fill: #ffe671;
      }

      .cls-6 {
        fill: #ffcd00;
      }
    </style>
  </defs>
  <g id="academy" transform="translate(0 -5.341)">
    <g id="Group_1" data-name="Group 1">
      <path id="Path_20" data-name="Path 20" class="cls-1" d="M23.469,12.407a.471.471,0,0,0-.526-.467L6.934,13.824a.471.471,0,0,0-.416.468v4.241c0,1.86,5.331,2.356,8.481,2.356s8.481-.5,8.481-2.356h0Z"/>
    </g>
    <g id="Group_2" data-name="Group 2">
      <path id="Path_21" data-name="Path 21" class="cls-2" d="M23.469,13.821H14.987v7.068H15c3.068,0,8.2-.471,8.469-2.213Z"/>
    </g>
    <g id="Group_3" data-name="Group 3">
      <path id="Path_22" data-name="Path 22" class="cls-3" d="M29.045,9.805,16.986,5.671a6.151,6.151,0,0,0-3.973,0L.956,9.805a1.413,1.413,0,0,0,0,2.674l12.058,4.134a6.153,6.153,0,0,0,3.973,0l12.058-4.134a1.413,1.413,0,0,0,0-2.674Z"/>
    </g>
    <g id="Group_5" data-name="Group 5">
      <g id="Group_4" data-name="Group 4">
        <path id="Path_23" data-name="Path 23" class="cls-4" d="M23.94,21.36a.471.471,0,0,1-.471-.471V14.732a.471.471,0,0,0-.318-.446l-8.316-2.851a.471.471,0,1,1,.306-.891L23.456,13.4a1.414,1.414,0,0,1,.955,1.337v6.157A.471.471,0,0,1,23.94,21.36Z"/>
      </g>
    </g>
    <g id="Group_6" data-name="Group 6">
      <path id="Path_24" data-name="Path 24" class="cls-5" d="M24.411,24.659h-.942A.471.471,0,0,1,23,24.187V21.36a.942.942,0,0,1,.942-.942h0a.942.942,0,0,1,.942.942v2.827A.471.471,0,0,1,24.411,24.659Z"/>
    </g>
    <g id="Group_7" data-name="Group 7">
      <path id="Path_25" data-name="Path 25" class="cls-1" d="M15,19c3.419,0,6.866-.518,8.479-1.52l0-1.29c-.052.644-3.037,1.867-8.477,1.867-5.488,0-8.481-1.245-8.481-1.885v1.306C8.131,18.486,11.58,19,15,19Z"/>
    </g>
    <g id="Group_10" data-name="Group 10">
      <g id="Group_8" data-name="Group 8">
        <path id="Path_26" data-name="Path 26" class="cls-4" d="M23.469,17.491l.011-.006,0-1.29c0,.007-.007.016-.008.023Z"/>
      </g>
      <g id="Group_9" data-name="Group 9">
        <path id="Path_27" data-name="Path 27" class="cls-4" d="M14.987,18.062c-5.479,0-8.469-1.245-8.469-1.885v1.306c1.61,1,5.053,1.52,8.469,1.521Z"/>
      </g>
    </g>
    <g id="Group_11" data-name="Group 11">
      <ellipse id="Ellipse_1" data-name="Ellipse 1" class="cls-1" cx="1.885" cy="0.942" rx="1.885" ry="0.942" transform="translate(13.115 10.052)"/>
    </g>
    <g id="Group_12" data-name="Group 12">
      <path id="Path_28" data-name="Path 28" class="cls-6" d="M23,21.36v2.827a.471.471,0,0,0,.471.471h.471V20.418A.942.942,0,0,0,23,21.36Z"/>
    </g>
  </g>
</svg>
