<svg xmlns="http://www.w3.org/2000/svg" xmlns:xlink="http://www.w3.org/1999/xlink" viewBox="0 0 16 16">
  <defs>
    <style>
      .cls-1, .cls-3 {
        fill: #fe5d70;
      }

      .cls-2 {
        clip-path: url(#clip-path);
      }

      .cls-3 {
        fill-rule: evenodd;
      }
    </style>
    <clipPath id="clip-path">
      <path id="Path_588" data-name="Path 588" class="cls-1" d="M0-25.368H16v16H0Z" transform="translate(0 25.368)"/>
    </clipPath>
  </defs>
  <g id="Calendar" transform="translate(0 25.368)">
    <g id="Group_1302" data-name="Group 1302" class="cls-2" transform="translate(0 -25.368)">
      <g id="Group_1295" data-name="Group 1295" transform="translate(0 0)">
        <path id="Path_581" data-name="Path 581" class="cls-3" d="M-8.36-2.659c0,.231-.009.24-.251.24H-22.537c-.292,0-.292,0-.292-.293,0-.461,0-.922,0-1.383a1,1,0,0,1,1.04-1.016c.619,0,1.237,0,1.856,0,.179,0,.255.049.245.233-.012.242-.006.486,0,.728,0,.271.159.452.379.453a.406.406,0,0,0,.384-.45c0-.256.006-.512,0-.766,0-.145.054-.2.2-.2q3.127,0,6.255,0c.163,0,.21.065.206.213-.007.25,0,.5,0,.748,0,.27.159.452.379.453a.406.406,0,0,0,.384-.45c0-.255.006-.511,0-.766,0-.145.054-.2.2-.2.651,0,1.3,0,1.952,0a.99.99,0,0,1,.985.973c.007.492,0,.985,0,1.476m0,9.632A1.007,1.007,0,0,1-9.471,8.05H-21.718a1.006,1.006,0,0,1-1.111-1.078q0-4.187,0-8.375c0-.269,0-.269.278-.269H-8.658c.3,0,.3,0,.3.288q0,4.178,0,8.356M-9.494-5.859h-1.722c-.281,0-.282,0-.282-.284,0-.212,0-.424,0-.635a.381.381,0,0,0-.384-.423c-.228,0-.374.163-.379.429,0,.23-.01.461,0,.691.008.174-.061.228-.234.226-.51-.008-1.02,0-1.531,0h-4.65c-.241,0-.247-.008-.249-.242s0-.448,0-.672A.383.383,0,0,0-19.3-7.2a.38.38,0,0,0-.384.424c-.005.224-.011.449,0,.672.011.185-.051.253-.248.25-.606-.01-1.212-.006-1.818,0a1.767,1.767,0,0,0-1.841,1.794q0,5.522,0,11.046a1.905,1.905,0,0,0,.075.554A1.773,1.773,0,0,0-21.755,8.8q3.081,0,6.162,0h6.1a1.771,1.771,0,0,0,1.9-1.854q0-5.476,0-10.953a1.772,1.772,0,0,0-1.9-1.85" transform="translate(23.595 7.201)"/>
      </g>
      <g id="Group_1296" data-name="Group 1296" transform="translate(6.443 7.1)">
        <path id="Path_582" data-name="Path 582" class="cls-3" d="M-.858-1.336a.8.8,0,0,1-.8-.8.78.78,0,0,1,.787-.732.8.8,0,0,1,.806.76.794.794,0,0,1-.79.776M-.865-3.618a1.525,1.525,0,0,0-1.557,1.5A1.557,1.557,0,0,0-.869-.59,1.555,1.555,0,0,0,.7-2.124,1.541,1.541,0,0,0-.865-3.618" transform="translate(2.422 3.618)"/>
      </g>
      <g id="Group_1297" data-name="Group 1297" transform="translate(6.45 10.538)">
        <path id="Path_583" data-name="Path 583" class="cls-3" d="M-.844-1.336a.818.818,0,0,1-.787-.824.808.808,0,0,1,.78-.73.826.826,0,0,1,.82.8.811.811,0,0,1-.813.759m.03-2.279A1.487,1.487,0,0,0-2.382-2.124,1.516,1.516,0,0,0-.835-.593,1.541,1.541,0,0,0,.73-2.093,1.516,1.516,0,0,0-.814-3.615" transform="translate(2.382 3.617)"/>
      </g>
      <g id="Group_1298" data-name="Group 1298" transform="translate(10.575 7.097)">
        <path id="Path_584" data-name="Path 584" class="cls-3" d="M-.848-1.338a.8.8,0,0,1-.788-.8.775.775,0,0,1,.8-.734.788.788,0,0,1,.786.737.782.782,0,0,1-.8.8m.028-2.284a1.519,1.519,0,0,0-1.574,1.5A1.55,1.55,0,0,0-.858-.592,1.525,1.525,0,0,0,.7-2.091,1.525,1.525,0,0,0-.821-3.622" transform="translate(2.395 3.622)"/>
      </g>
      <g id="Group_1299" data-name="Group 1299" transform="translate(10.579 10.54)">
        <path id="Path_585" data-name="Path 585" class="cls-3" d="M-.855-1.335a.808.808,0,0,1-.8-.806.8.8,0,0,1,.778-.748.83.83,0,0,1,.817.737.8.8,0,0,1-.791.817M-.876-3.614A1.489,1.489,0,0,0-2.413-2.108,1.525,1.525,0,0,0-.865-.592,1.513,1.513,0,0,0,.674-2.124a1.5,1.5,0,0,0-1.55-1.49" transform="translate(2.413 3.614)"/>
      </g>
      <g id="Group_1300" data-name="Group 1300" transform="translate(2.313 7.101)">
        <path id="Path_586" data-name="Path 586" class="cls-3" d="M-.856-.436A.774.774,0,0,1-.061.309a.791.791,0,0,1-.81.792A.787.787,0,0,1-1.659.323a.78.78,0,0,1,.8-.759M-.864,1.845A1.542,1.542,0,0,0,.693.34,1.531,1.531,0,0,0-.864-1.181,1.551,1.551,0,0,0-2.416.333,1.552,1.552,0,0,0-.864,1.845" transform="translate(2.416 1.181)"/>
      </g>
      <g id="Group_1301" data-name="Group 1301" transform="translate(2.319 10.54)">
        <path id="Path_587" data-name="Path 587" class="cls-3" d="M-.846-1.336a.8.8,0,0,1-.795-.776A.817.817,0,0,1-.83-2.9a.8.8,0,0,1,.792.781.793.793,0,0,1-.808.78m.019-2.281A1.533,1.533,0,0,0-2.388-2.123,1.551,1.551,0,0,0-.838-.591,1.556,1.556,0,0,0,.716-2.1,1.525,1.525,0,0,0-.827-3.617" transform="translate(2.388 3.617)"/>
      </g>
    </g>
  </g>
</svg>
