<svg xmlns="http://www.w3.org/2000/svg" viewBox="0 0 16 8.664">
  <g id="eye" transform="translate(0 -104.721)">
    <g id="Group_1773" data-name="Group 1773" transform="translate(0 104.721)">
      <path id="Path_797" data-name="Path 797" d="M15.725,108.705a11.949,11.949,0,0,0-2.137-1.99A9.507,9.507,0,0,0,8,104.721a9.507,9.507,0,0,0-5.589,1.995,11.95,11.95,0,0,0-2.137,1.99L0,109.053l.275.348a11.951,11.951,0,0,0,2.137,1.99A9.507,9.507,0,0,0,8,113.385a9.507,9.507,0,0,0,5.589-1.995,11.948,11.948,0,0,0,2.137-1.99l.275-.348ZM8,112.088a3.036,3.036,0,0,1-2.939-3.794l-.693-.117a3.733,3.733,0,0,0,1.094,3.615A9.835,9.835,0,0,1,3.1,110.506a11.774,11.774,0,0,1-1.64-1.453A11.778,11.778,0,0,1,3.1,107.6a9.837,9.837,0,0,1,2.362-1.286l.465.524A3.034,3.034,0,1,1,8,112.088Zm4.9-1.582a9.837,9.837,0,0,1-2.362,1.286,3.729,3.729,0,0,0,0-5.477A9.837,9.837,0,0,1,12.9,107.6a11.776,11.776,0,0,1,1.64,1.453A11.77,11.77,0,0,1,12.9,110.506Z" transform="translate(0 -104.721)"/>
      <path id="Path_798" data-name="Path 798" d="M170.842,172.185a2.022,2.022,0,1,0,.533-.865l1,1.123Z" transform="translate(-164.773 -168.443)"/>
    </g>
  </g>
</svg>
