<svg xmlns="http://www.w3.org/2000/svg" xmlns:xlink="http://www.w3.org/1999/xlink" viewBox="0 0 24 24"><defs><style>.a{clip-path:url(#a);}</style><clipPath id="a"><path d="M0-24H24V0H0Z"/></clipPath></defs><g transform="translate(0 24)"><g class="a"><g transform="translate(4 3.829)"><g transform="translate(13.432 -21.232)"><path d="M-.735-1.469a.383.383,0,0,1-.383-.382V-2.869H-2.136a.384.384,0,0,1-.383-.383.385.385,0,0,1,.383-.383h1.018V-4.652a.383.383,0,0,1,.383-.383.383.383,0,0,1,.382.383v1.016H.666a.383.383,0,0,1,.382.383.383.383,0,0,1-.382.383H-.352v1.018a.383.383,0,0,1-.382.382" transform="translate(2.519 5.035)"/></g><g transform="translate(0 -23.829)"><path d="M-3.451-.315A3.62,3.62,0,0,0-7.066,3.3,3.62,3.62,0,0,0-3.451,6.915,3.62,3.62,0,0,0,.165,3.3,3.62,3.62,0,0,0-3.451-.315m0,8a7.587,7.587,0,0,0-7.573,6.84l-.04.389H4.163l-.04-.389a7.587,7.587,0,0,0-7.573-6.84m-8,8a.382.382,0,0,1-.382-.383A8.387,8.387,0,0,1-6.224,7.382l.616-.215-.516-.4A4.355,4.355,0,0,1-7.832,3.3,4.386,4.386,0,0,1-3.451-1.081,4.386,4.386,0,0,1,.93,3.3,4.352,4.352,0,0,1-.779,6.768l-.515.4.616.215a8.385,8.385,0,0,1,5.606,7.911.383.383,0,0,1-.382.383Z" transform="translate(11.83 1.081)"/></g></g></g></g></svg>