<svg xmlns="http://www.w3.org/2000/svg" xmlns:xlink="http://www.w3.org/1999/xlink" viewBox="0 0 16 16"><defs><style>.a,.c{fill:#aeb4c2;}.b{clip-path:url(#a);}.c{fill-rule:evenodd;}</style><clipPath id="a"><path class="a" d="M0-28.578H16v16H0Z" transform="translate(0 28.578)"/></clipPath></defs><g transform="translate(-624 -323.578)"><g class="b" transform="translate(624 323.578)"><g transform="translate(0 0)"><path class="c" d="M-4.459-3.54c.094.094.3,0,.272.228-.255.037-.289.013-.272-.228m-.889.094c.045-.165.176-.246.4-.218l-.285.4c-.13-.011-.147-.078-.119-.183m.594-.287-.6-.029a.421.421,0,0,1,.493-.211c.062.024.1.121.143.186l-.038.053m.149.358c.024.209-.048.26-.311.219.022-.152.115-.218.311-.219m-.168-.081v-.214h.215c.035.158-.011.2-.215.214m-.991-1,.359-.066c-.005.2-.04.316-.234.316-.011-.017-.025-.039-.036-.061-.025-.05-.048-.1-.089-.189M4.114-2.232c-.193-.167-.273-.166-.55-.091,0,.064-.009.13-.014.213l-.9-.269v-.4c-.265.019-.513.035-.761.055a.241.241,0,0,0-.116.039.72.72,0,0,1-.553.1c-.213-.027-.348.116-.5.212C.68-2.35.689-2.222.7-2.142a.269.269,0,0,1-.141.281c-.184.118-.357.252-.534.381-.063.047-.145.077-.116.192s.073.175.2.161l.029.035q-.074.118-.149.235s-.01.005-.012.009A1.7,1.7,0,0,0,.01-.164C.205.06.392.291.6.5A.454.454,0,0,0,.9.566,4.987,4.987,0,0,0,1.431.517.306.306,0,0,0,1.573.473a.4.4,0,0,1,.55.02.865.865,0,0,0,.321.082c.055.011.112.013.181.021-.016.176-.036.341-.042.506a.419.419,0,0,0,.041.2c.127.238.261.473.4.706a.183.183,0,0,1,.005.213c-.064.107-.119.219-.175.331a.327.327,0,0,0,.065.409.328.328,0,0,1,.123.316.8.8,0,0,0,.218.7.312.312,0,0,1,.059.184c.009.118,0,.237,0,.368l.205.017A7.24,7.24,0,0,1-5.339,6.506,7.3,7.3,0,0,1-8.882-2.9a.523.523,0,0,1,.01.105.288.288,0,0,0,.22.375c.037.01.066.077.083.125a.247.247,0,0,1,0,.123,1.013,1.013,0,0,0,.263.8c.044.061.155.076.236.113a.237.237,0,0,0-.018-.306,1,1,0,0,1-.241-.727l.127,0c.011.016.021.024.022.031a1.615,1.615,0,0,0,.4.891.2.2,0,0,1,.025.174c-.058.093-.02.152.015.237.143.353.476.345.764.407.085.018.189-.049.3-.083v.208c.007.007.011.013.016.013a1.084,1.084,0,0,1,.844.534c.082.121.208.1.324.109.315.021.313.019.358.33.015.1.006.184-.1.232C-5.254.8-5.276.829-5.3.843a.318.318,0,0,0-.2.359.306.306,0,0,1-.012.155.479.479,0,0,0,.162.551c.092.1.17.211.255.316.016.021.045.04.046.061.018.272.243.329.432.423a.536.536,0,0,1,.331.609A6.8,6.8,0,0,0-4.3,4.05c0,.1.008.188.152.19-.027.161-.043.311-.079.455a.226.226,0,0,0,.062.239.53.53,0,0,1,.148.539.679.679,0,0,0,.1.487,1.642,1.642,0,0,0,.592.686,1.163,1.163,0,0,0,.475.066.284.284,0,0,0,.017-.162A.452.452,0,0,0-3,6.406a.2.2,0,0,1-.078-.269,2.475,2.475,0,0,0,.057-.249l-.334-.14.212-.3-.2-.173c.071-.029.14-.06.211-.087.255-.095.518-.161.651-.452A1.867,1.867,0,0,1-2.149,4.3a.368.368,0,0,0,.094-.42.361.361,0,0,1,.022-.37.2.2,0,0,1,.188-.1.935.935,0,0,0,.358-.046.375.375,0,0,0,.246-.407,1.558,1.558,0,0,1,.02-.2,1.018,1.018,0,0,1,.279-.75,1.224,1.224,0,0,0,.162-.353.533.533,0,0,1-.469-.33A.2.2,0,0,0-1.4,1.263a1.88,1.88,0,0,1-.911-.154c-.083-.042-.135-.076-.133-.177A.769.769,0,0,0-2.479.671c-.084-.245-.142-.29-.4-.278A.305.305,0,0,1-3.214.206a.5.5,0,0,0-.364-.331.378.378,0,0,1-.54.029.709.709,0,0,0-.525-.195.532.532,0,0,0-.183.184.38.38,0,0,1-.5.183A2.039,2.039,0,0,0-5.61.017c-.016-.223-.032-.434-.048-.651L-6.065-.71c.026-.166.225-.289.091-.5l-.446.293c-.092.062-.387.086-.443.014a.435.435,0,0,1-.106-.4.942.942,0,0,1,.66-.716.5.5,0,0,1,.153-.018c.238,0,.477,0,.74,0-.052.245.076.348.3.384a.753.753,0,0,0,0-.167.468.468,0,0,1,.26-.512c.081-.057.163-.113.248-.163.1-.06.19-.125.184-.263a.147.147,0,0,1,.048-.093,2.725,2.725,0,0,1,.707-.6,1.471,1.471,0,0,0,.362-.338.165.165,0,0,1,.283,0l.114-.144a.4.4,0,0,1-.129-.033.744.744,0,0,1-.109-.12c.048-.036.092-.093.144-.1a.219.219,0,0,1,.166.054.3.3,0,0,0,.4.01c.025-.026.073-.029.11-.042,0,.046.028.106.008.137-.12.19-.124.189.1.254.1.031.206.055.31.082.045-.132.027-.212-.1-.247a.327.327,0,0,1-.1-.046,1.137,1.137,0,0,1-.1-.1c.036-.024.075-.045.11-.072.05-.04.124-.075.141-.127a.18.18,0,0,0-.106-.253.249.249,0,0,1-.17-.293c.007-.067,0-.134,0-.218l-.53.2c.012-.146.021-.242.031-.357A1.88,1.88,0,0,0-3.226-5.3c-.086,0-.169.132-.251.207-.007.007,0,.03,0,.045.04.264-.007.46-.328.5-.064.008-.106.149-.167.222a1.936,1.936,0,0,1-.167.156L-4.192-4.2v-.372a2.684,2.684,0,0,1-.465-.148.221.221,0,0,1,0-.411c.256-.142.517-.276.795-.423.028.112.044.176.068.276l.342-.19-.06-.1a2.2,2.2,0,0,1,.373-.24A1.332,1.332,0,0,1-2.673-5.9c.082,0,.163.09.272.156-.114.063-.2.111-.284.157s-.162.087-.283.151l.7.166a.669.669,0,0,0,.046-.107.145.145,0,0,1,.189-.131c.151.028.234-.04.261-.2l-.183-.06c0-.01-.013-.02-.012-.027a.264.264,0,0,0-.226-.335,1.474,1.474,0,0,1-.272-.119.959.959,0,0,0-.78.026.2.2,0,0,0-.151.273,1.291,1.291,0,0,1,.009.165c-.107-.036-.241-.04-.279-.1-.119-.191.125-.241.2-.4-.176,0-.33-.006-.484,0-.111.006-.16.079-.165.194l.146.038c.029.141-.033.191-.163.192-.078,0-.168-.014-.206.1-.008.022-.069.034-.107.036-.109,0-.217,0-.342,0l-.036-.251a.525.525,0,0,0,.6-.264c-.076-.083-.14-.064-.216.013a.328.328,0,0,1-.515-.04.486.486,0,0,0-.576-.1,1.781,1.781,0,0,0-.323.276h.2c.181,0,.2.042.114.2.133.086.361-.087.455.172h-.427c-.011,0-.025,0-.03-.006a1.137,1.137,0,0,0-.832-.283,7.425,7.425,0,0,1,3.6-1.367,7.333,7.333,0,0,1,5.5,1.836c-.083.062-.158.123-.238.176a2.1,2.1,0,0,0-.286.176c-.106.1-.053.194.074.26.083.044.131.154.207.25l.27-.1c.018.117.032.218.049.33-.157,0-.305,0-.452,0A.257.257,0,0,0,2.11-4.3a.475.475,0,0,1-.45.294c-.04,0-.1.062-.116.108a.938.938,0,0,0-.037.211l.153.07c-.016.062-.031.12-.043.166-.205,0-.4,0-.593,0-.17,0-.189.135-.194.263a.989.989,0,0,0,.026.2.257.257,0,0,0,.287.254c.073,0,.146,0,.218,0,.162,0,.3,0,.377-.208a1.632,1.632,0,0,1,.305-.411c.017-.021.058-.046.076-.039.186.075.3-.041.415-.164.114.3.429.339.61.539-.042.071-.042.071-.27.1a.186.186,0,0,0,.24.138c.1-.016.191-.052.168-.192a.5.5,0,0,1,.045-.171c-.149-.165-.5-.167-.487-.523a.443.443,0,0,1,.424.11c.131.135.261.237.268.459,0,.111.153.218.246.339.116-.176.032-.448.323-.495.008.07.016.14.025.21a.327.327,0,0,0,.353.308c.182-.02.277.034.311.22a3.173,3.173,0,0,0,.135.405c-.293-.04-.565.085-.811-.127M-5.98-5.319c-.027.085-.038.162-.055.163-.123.013-.253.06-.367-.016l0-.046.426-.1M-6.425-5.5c0-.046,0-.086-.008-.141l.412-.082c.034.224-.024.253-.4.222m9.38.877a.047.047,0,0,1,.027-.015A.286.286,0,0,0,3.212-5a.131.131,0,0,1,.006-.046s.007-.006.026-.017c.1.108.2.216.289.331.048.06-.063.247-.153.252-.129.007-.259,0-.388,0a.1.1,0,0,1-.078-.053c-.007-.021.024-.055.041-.082M4.382-3.378l.035-.008.163.336h-.2ZM-2.13-8.042a8,8,0,0,0-8,8,8,8,0,0,0,8,8,8,8,0,0,0,8-8,8,8,0,0,0-8-8" transform="translate(10.13 8.042)"/></g></g></g></svg>