<svg xmlns="http://www.w3.org/2000/svg" xmlns:xlink="http://www.w3.org/1999/xlink" viewBox="0 0 11.825 16">
  <defs>
    <style>
      .cls-1 {
        fill: #00aeef;
      }

      .cls-2 {
        clip-path: url(#clip-path);
      }

      .cls-3 {
        fill: #fe5d70;
        fill-rule: evenodd;
      }
    </style>
    <clipPath id="clip-path">
      <path id="Path_362" data-name="Path 362" class="cls-1" d="M0-42.273H11.825v16H0Z" transform="translate(0 42.273)"/>
    </clipPath>
  </defs>
  <g id="Group_603" data-name="Group 603" class="cls-2" transform="translate(0 0)">
    <g id="Group_602" data-name="Group 602" transform="translate(0 0)">
      <path id="Path_361" data-name="Path 361" class="cls-3" d="M-9.482-4.7a3.071,3.071,0,0,0-3.063,3.069A3.071,3.071,0,0,0-9.469,1.421,3.07,3.07,0,0,0-6.414-1.64,3.073,3.073,0,0,0-9.482-4.7m.207,13.136H-9.4a1.536,1.536,0,0,1-.263-.211c-.631-.784-1.273-1.56-1.877-2.364A27.931,27.931,0,0,1-14.675.8,5.663,5.663,0,0,1-14.5-4.518a5.714,5.714,0,0,1,4.391-3.019,6.667,6.667,0,0,1,3.069.411A5.933,5.933,0,0,1-3.535-2.717,5.509,5.509,0,0,1-3.789.3,14.574,14.574,0,0,1-4.948,2.6,40.982,40.982,0,0,1-8.971,8.173a2.36,2.36,0,0,1-.3.259" transform="translate(15.256 7.568)"/>
    </g>
  </g>
</svg>
