<svg xmlns="http://www.w3.org/2000/svg" xmlns:xlink="http://www.w3.org/1999/xlink" viewBox="0 0 24 24"><defs><style>.a{clip-path:url(#a);}.b{fill-rule:evenodd;}</style><clipPath id="a"><path d="M0-36H24v24H0Z" transform="translate(0 36)"/></clipPath></defs><g transform="translate(0 36)"><g class="a" transform="translate(0 -36)"><g transform="translate(7.943 0)"><path class="b" d="M-1.839-3.226c-.11.344.227.414.375.665.112-.263.451-.326.4-.665ZM-3.328-6.9A3.07,3.07,0,0,0-.979-7.873a.37.37,0,0,1,.661.136,3.6,3.6,0,0,0,.167.385.784.784,0,0,0,.543.435A1.757,1.757,0,0,0-.4-8.628a1.928,1.928,0,0,0-2.1,0A1.778,1.778,0,0,0-3.328-6.9m2.473-.021A3.89,3.89,0,0,1-2.706-6.2a.2.2,0,0,0-.117.154c-.009.311-.013.625,0,.937a1.134,1.134,0,0,0,.608.964A1.708,1.708,0,0,0-1.14-4,1.157,1.157,0,0,0-.1-5.062c.025-.357.016-.717.015-1.076A.239.239,0,0,0-.144-6.3c-.227-.208-.462-.406-.712-.623m-.183-2.755a2.944,2.944,0,0,1,1.332.633,2.506,2.506,0,0,1,.869,1.777c.007.117.008.235,0,.352a.987.987,0,0,0,.2.685,1.047,1.047,0,0,1-.6,1.623.428.428,0,0,0-.246.2A2.17,2.17,0,0,1-.14-3.6a.354.354,0,0,0-.139.235c0,.053.11.126.185.158.417.176.84.337,1.257.511A2.136,2.136,0,0,1,2.568-.626c.011.429.005.859,0,1.289,0,.317-.138.465-.455.466q-2.508.009-5.014,0c-.3,0-.457-.155-.449-.394s.173-.365.479-.365c1.461,0,2.921,0,4.381,0h.343C1.81-.147,1.8-.639,1.716-1.115a1.155,1.155,0,0,0-.748-.841C.538-2.137.1-2.315-.335-2.475a.3.3,0,0,0-.253.061c-.191.173-.36.369-.541.551a.4.4,0,0,1-.649.015c-.188-.177-.379-.35-.553-.541a.26.26,0,0,0-.347-.065c-.359.151-.723.293-1.088.429A1.375,1.375,0,0,0-4.749-.711c-.015.349,0,.7,0,1.079.171,0,.333-.005.495,0,.278.011.447.156.45.376s-.165.375-.441.383-.563.009-.843,0c-.26-.009-.419-.119-.42-.348a12.929,12.929,0,0,1,.065-1.937A1.957,1.957,0,0,1-4.118-2.7c.442-.176.887-.345,1.327-.525.066-.027.151-.1.157-.159a.272.272,0,0,0-.113-.2,2.1,2.1,0,0,1-.685-.844A.365.365,0,0,0-3.642-4.6,1.064,1.064,0,0,1-4.2-6.37a.488.488,0,0,0,.1-.287,3.678,3.678,0,0,1,.148-1.317A2.533,2.533,0,0,1-1.987-9.636a.588.588,0,0,0,.105-.042Z" transform="translate(5.517 9.678)"/></g><g transform="translate(7.929 13.188)"><path class="b" d="M-.93-2.115l.066-.01v-.37H-.93ZM.9.115c-.094.339.229.415.381.645.134-.244.443-.322.405-.645ZM-.587-3.57a3.067,3.067,0,0,0,2.386-1,.358.358,0,0,1,.61.129c.067.149.117.307.2.448a.725.725,0,0,0,.546.408,1.771,1.771,0,0,0-.829-1.711,1.9,1.9,0,0,0-2.085,0A1.772,1.772,0,0,0-.587-3.57m.511.727c0,.4-.026.775.011,1.145a1.227,1.227,0,0,0,.233.573,1.424,1.424,0,0,0,1.548.443,1.129,1.129,0,0,0,.929-1.061c.023-.35.015-.7.014-1.053a.247.247,0,0,0-.06-.165c-.227-.207-.462-.405-.714-.624a3.966,3.966,0,0,1-1.961.743M-2.514,4.468a.525.525,0,0,1-.274-.525c.016-.521-.01-1.048.043-1.567A1.966,1.966,0,0,1-1.556.728c.487-.227,1-.4,1.495-.606C.008.094.106.025.107-.027A.312.312,0,0,0-.012-.248a2.15,2.15,0,0,1-.673-.825A.4.4,0,0,0-.908-1.26,1.071,1.071,0,0,1-1.45-3.037a.493.493,0,0,0,.1-.267A8.087,8.087,0,0,1-1.266-4.4,2.541,2.541,0,0,1,1.392-6.34,2.539,2.539,0,0,1,3.911-3.693c0,.093.005.187,0,.281a.57.57,0,0,0,.148.441A1.049,1.049,0,0,1,3.5-1.277a.332.332,0,0,0-.259.223,1.9,1.9,0,0,1-.656.807.317.317,0,0,0-.123.219c0,.051.1.123.164.151.467.2.945.369,1.4.579A2.077,2.077,0,0,1,5.306,2.617c.023.467,0,.937.009,1.405a.475.475,0,0,1-.283.446H-.358c-.076-.085-.183-.157-.224-.257-.107-.268.095-.5.431-.5q2.212,0,4.425,0h.265c0-.4.019-.769,0-1.133a1.369,1.369,0,0,0-.981-1.266c-.38-.141-.754-.3-1.127-.455a.211.211,0,0,0-.283.062c-.169.193-.351.376-.533.559a.4.4,0,0,1-.65.01C.762,1.3.575,1.1.37.923A.28.28,0,0,0,.135.869q-.659.24-1.307.508a1.168,1.168,0,0,0-.762.859,14.716,14.716,0,0,0-.125,1.478c.2,0,.343,0,.481,0,.229-.009.429.035.5.288.061.232-.082.363-.262.467Z" transform="translate(2.789 6.344)"/></g><g transform="translate(15.912 6.592)"><path class="b" d="M-2.03-3.559c.118-.27.449-.333.4-.661h-.784c-.1.338.221.409.385.661M-.162-7.907a1.8,1.8,0,0,0-.855-1.739,2,2,0,0,0-2.146.07A1.827,1.827,0,0,0-3.9-7.9a3.088,3.088,0,0,0,2.365-.983A.361.361,0,0,1-.9-8.755c.049.115.086.235.143.345a.854.854,0,0,0,.595.5m-1.271-.015A3.966,3.966,0,0,1-3.4-7.175c0,.356-.01.7,0,1.04a1.166,1.166,0,0,0,.949,1.124,2.686,2.686,0,0,0,.63.022A1.163,1.163,0,0,0-.669-6.1c.021-.349.013-.7.01-1.052a.242.242,0,0,0-.069-.159c-.221-.2-.451-.4-.7-.616M2-.114A.576.576,0,0,1,1.46.133c-1.617-.007-3.234,0-4.851,0A1.183,1.183,0,0,1-3.624.116.339.339,0,0,1-3.916-.2a.336.336,0,0,1,.233-.386,1,1,0,0,1,.3-.037q2.168,0,4.335,0h.285A4.512,4.512,0,0,0,1.12-2.207a1.258,1.258,0,0,0-.709-.74c-.438-.185-.879-.363-1.325-.529a.274.274,0,0,0-.233.052c-.2.185-.38.393-.575.584a.384.384,0,0,1-.614.01c-.207-.191-.4-.4-.61-.582a.284.284,0,0,0-.241-.051c-.446.163-.893.331-1.328.521a1.271,1.271,0,0,0-.8,1.124c-.029.386-.006.776-.006,1.191.167,0,.337,0,.507,0a.4.4,0,0,1,.429.373c0,.227-.163.375-.439.381s-.578,0-.867,0c-.229,0-.4-.118-.4-.341A12.925,12.925,0,0,1-6.02-2.151a1.959,1.959,0,0,1,1.327-1.54c.441-.177.887-.345,1.327-.525.067-.027.153-.1.159-.159a.271.271,0,0,0-.111-.2,2.1,2.1,0,0,1-.7-.865.328.328,0,0,0-.2-.155,1.069,1.069,0,0,1-.56-1.77.55.55,0,0,0,.107-.289,8.625,8.625,0,0,1,.112-1.181,2.544,2.544,0,0,1,2.317-1.836A2.548,2.548,0,0,1,.454-8.93,8.145,8.145,0,0,1,.6-7.683a.709.709,0,0,0,.133.347A1.066,1.066,0,0,1,.19-5.614a.334.334,0,0,0-.263.22A1.894,1.894,0,0,1-.708-4.6c-.07.053-.151.159-.142.228s.119.141.2.177c.395.166.8.321,1.193.481A2.129,2.129,0,0,1,1.963-2c0,.021.023.039.035.058Z" transform="translate(6.09 10.678)"/></g><g transform="translate(0 6.6)"><path class="b" d="M-2.23-3.226h-.787c-.07.344.23.422.393.636.133-.237.435-.314.395-.636M-.754-6.914a1.775,1.775,0,0,0-.867-1.741,1.892,1.892,0,0,0-2.123.073,1.713,1.713,0,0,0-.737,1.675,3.07,3.07,0,0,0,2.339-.971.368.368,0,0,1,.659.143,3.055,3.055,0,0,0,.145.344.844.844,0,0,0,.583.477m-3.227.731c0,.4-.025.774.007,1.143a1.074,1.074,0,0,0,.809.982A2.424,2.424,0,0,0-2.4-4a1.174,1.174,0,0,0,1.15-1.153c.011-.327.007-.654,0-.981A.253.253,0,0,0-1.3-6.3c-.232-.211-.472-.413-.724-.631a3.923,3.923,0,0,1-1.956.746M-6.691-.949a5.772,5.772,0,0,1,.218-.659A2.069,2.069,0,0,1-5.3-2.692c.451-.175.9-.351,1.348-.535.066-.027.151-.1.157-.157a.273.273,0,0,0-.115-.2,2.1,2.1,0,0,1-.7-.864.325.325,0,0,0-.2-.155,1.071,1.071,0,0,1-.561-1.772.609.609,0,0,0,.109-.31,7.5,7.5,0,0,1,.151-1.27A2.5,2.5,0,0,1-2.5-9.676,2.5,2.5,0,0,1-.065-7.69,8.78,8.78,0,0,1,.012-6.642a.536.536,0,0,0,.111.285A1.063,1.063,0,0,1-.4-4.62.332.332,0,0,0-.666-4.4a1.933,1.933,0,0,1-.655.808.319.319,0,0,0-.123.22c0,.055.1.127.165.155.4.169.809.328,1.215.489A2.156,2.156,0,0,1,1.4-.649c.015.437.009.875,0,1.313,0,.317-.147.457-.463.457q-2.507,0-5.014,0c-.28,0-.447-.145-.451-.37s.175-.383.465-.384q2.191,0,4.381,0H.652A4.4,4.4,0,0,0,.493-1.295,1.271,1.271,0,0,0-.2-1.962c-.431-.18-.869-.347-1.3-.529a.2.2,0,0,0-.261.065c-.161.181-.332.353-.5.526-.269.276-.441.282-.717.02-.186-.178-.363-.368-.559-.533a.308.308,0,0,0-.258-.05c-.375.132-.739.3-1.113.427A1.379,1.379,0,0,0-5.916-.74c-.023.356,0,.715,0,1.105.161,0,.323,0,.483,0,.289.005.467.157.463.387s-.173.363-.453.367c-.242,0-.485-.009-.726,0A.548.548,0,0,1-6.691.879Z" transform="translate(6.691 9.677)"/></g><g transform="translate(1.825 0.563)"><path class="b" d="M-3.494-.2c0,.17-.129.279-.309.349-.356.137-.717.263-1.066.417A11.152,11.152,0,0,0-9.152,3.891c-.213.268-.4.556-.6.834a.4.4,0,0,1-.56.163c-.2-.133-.221-.355-.061-.6a12.12,12.12,0,0,1,5.4-4.509c.307-.133.625-.241.943-.349A.381.381,0,0,1-3.494-.2" transform="translate(10.482 0.596)"/></g><g transform="translate(15.225 0.556)"><path class="b" d="M-.153,0C-.01.037.067.052.14.077A12.041,12.041,0,0,1,6.351,4.9a.383.383,0,1,1-.621.426A11.871,11.871,0,0,0,3.687,2.981,11.251,11.251,0,0,0,.054.851,1.772,1.772,0,0,1-.287.7.314.314,0,0,1-.43.3,1.278,1.278,0,0,1-.153,0" transform="translate(0.459)"/></g><g transform="translate(1.817 17.917)"><path class="b" d="M-2.845-2.327a.377.377,0,0,1-.6.3c-.489-.257-.986-.507-1.45-.805a11.958,11.958,0,0,1-3.524-3.51c-.107-.163-.177-.343-.036-.493a.51.51,0,0,1,.383-.139.572.572,0,0,1,.307.255A11.919,11.919,0,0,0-5.923-4.579,11.463,11.463,0,0,0-3.173-2.734c.256.123.332.227.329.407" transform="translate(8.534 6.981)"/></g><g transform="translate(16.534 17.928)"><path class="b" d="M-2.823-.156a2.466,2.466,0,0,1-.136.292A11.961,11.961,0,0,1-7.444,4.225c-.117.061-.236.121-.354.181-.3.149-.519.11-.627-.111s-.018-.415.291-.567A11.543,11.543,0,0,0-5.8,2.218,11.328,11.328,0,0,0-3.68-.144c.061-.09.115-.213.2-.252A.6.6,0,0,1-3.072-.45c.1.037.168.193.249.294" transform="translate(8.469 0.467)"/></g></g></g></svg>