<svg xmlns="http://www.w3.org/2000/svg" xmlns:xlink="http://www.w3.org/1999/xlink" viewBox="0 0 24 24"><defs><style>.a{clip-path:url(#a);}</style><clipPath id="a"><path d="M0-18.427H24v24H0Z" transform="translate(0 18.427)"/></clipPath></defs><g transform="translate(-1 20.454)"><g transform="translate(1 -2.027)"><g class="a" transform="translate(0 -18.427)"><g transform="translate(0.001 -0.001)"><path d="M4.391.212A3.548,3.548,0,1,0,7.946,3.76,3.555,3.555,0,0,0,4.391.212M-5.733,6.895a3.554,3.554,0,0,0-3.553,3.547,3.554,3.554,0,0,0,3.553,3.548,3.556,3.556,0,0,0,3.556-3.548A3.556,3.556,0,0,0-5.733,6.895m-6.26,16.36a2.388,2.388,0,0,1-1.949-.99,2.384,2.384,0,0,1-.346-2.156,8.9,8.9,0,0,1,5.367-5.515l.795-.3-.625-.573A4.476,4.476,0,0,1-10.2,10.441,4.468,4.468,0,0,1-5.733,5.983a4.451,4.451,0,0,1,4.147,2.8l.249.619L-.8,9.008A8.821,8.821,0,0,1,.83,8.077c.128-.056.254-.108.384-.159L2,7.616l-.624-.568a4.468,4.468,0,1,1,6.015.009l-.624.567.785.3A8.83,8.83,0,0,1,9.4,8.911a.441.441,0,0,1,.188.293.447.447,0,0,1-.074.341.46.46,0,0,1-.374.194.453.453,0,0,1-.258-.081,7.9,7.9,0,0,0-10,.815l-.14.137-.016.194A4.436,4.436,0,0,1-2.732,13.74l-.624.567.787.3a8.694,8.694,0,0,1,1.84.981.455.455,0,0,1,.19.294.452.452,0,0,1-.076.34.457.457,0,0,1-.376.2.452.452,0,0,1-.26-.082,7.849,7.849,0,0,0-4.5-1.411,8.074,8.074,0,0,0-7.667,5.457,1.472,1.472,0,0,0,.218,1.343,1.479,1.479,0,0,0,1.21.615h8.511a.456.456,0,0,1,.455.456.455.455,0,0,1-.455.455Z" transform="translate(14.407 0.7)"/></g><g transform="translate(12.868 15.766)"><path d="M1.083,1.912A2.017,2.017,0,0,1-.293,1.364l-3.12-2.993a.447.447,0,0,1-.141-.32.451.451,0,0,1,.127-.323A.448.448,0,0,1-3.1-2.413a.457.457,0,0,1,.316.126L.339.7a1.061,1.061,0,0,0,.742.3A1.113,1.113,0,0,0,1.9.629L6.751-6.132a.455.455,0,0,1,.371-.19.46.46,0,0,1,.266.086.456.456,0,0,1,.1.634L2.65,1.149a2.013,2.013,0,0,1-1.434.759Z" transform="translate(3.554 6.322)"/></g></g></g></g></svg>