<svg xmlns="http://www.w3.org/2000/svg" xmlns:xlink="http://www.w3.org/1999/xlink" viewBox="0 0 20 20">
  <defs>
    <style>
      .cls-1 {
        fill: #fff;
      }

      .cls-2 {
        clip-path: url(#clip-path);
      }
    </style>
    <clipPath id="clip-path">
      <path id="Path_358" data-name="Path 358" class="cls-1" d="M0-32.346H20v20H0Z" transform="translate(0 32.346)"/>
    </clipPath>
  </defs>
  <g id="Group_588" data-name="Group 588" class="cls-2">
    <g id="Group_587" data-name="Group 587" transform="translate(0 0.625)">
      <path id="Path_357" data-name="Path 357" class="cls-1" d="M-4.024-.841c-2.239,0-4.03,1.912-4.261,4.546l-.012.079a4.874,4.874,0,0,0,.157,1.66A7.964,7.964,0,0,0-5.719,9.511l6.2,5.678L6.8,9.509A7.963,7.963,0,0,0,9.214,5.445a4.883,4.883,0,0,0,.154-1.682C9.13,1.084,7.337-.839,5.1-.839A4.262,4.262,0,0,0,1.2,1.836L.478,3.559-.239,1.835A4.131,4.131,0,0,0-4.024-.841M.477,16.75l-6.968-6.38A9.119,9.119,0,0,1-9.259,5.711a5.9,5.9,0,0,1-.172-2.118C-9.145.356-6.872-2-4.024-2A5.177,5.177,0,0,1,.482.7,5.369,5.369,0,0,1,5.1-2C7.945-2,10.221.369,10.51,3.63a5.947,5.947,0,0,1-.177,2.082,9.121,9.121,0,0,1-2.766,4.659Z" transform="translate(9.462 2)"/>
    </g>
  </g>
</svg>
