<svg xmlns="http://www.w3.org/2000/svg" xmlns:xlink="http://www.w3.org/1999/xlink" viewBox="0 0 25.821 24"><defs><style>.a{fill:#aeb4c2;}.b{clip-path:url(#a);}</style><clipPath id="a"><path class="a" d="M0-32.346H25.821v24H0Z" transform="translate(0 32.346)"/></clipPath></defs><g transform="translate(0 32.346)"><g class="b" transform="translate(0 -32.346)"><g transform="translate(0 0)"><path class="a" d="M-2.441-.516c-2.89,0-5.2,2.448-5.5,5.819l-.016.1a6.187,6.187,0,0,0,.2,2.125,10.177,10.177,0,0,0,3.126,5.2L3.379,20l8.151-7.271a10.176,10.176,0,0,0,3.12-5.2,6.2,6.2,0,0,0,.2-2.152c-.307-3.43-2.623-5.891-5.511-5.891A5.5,5.5,0,0,0,4.3,2.91L3.37,5.116,2.446,2.909A5.332,5.332,0,0,0-2.441-.516M3.37,22l-9-8.166A11.653,11.653,0,0,1-9.2,7.871a7.488,7.488,0,0,1-.222-2.71C-9.053,1.016-6.118-2-2.441-2A6.693,6.693,0,0,1,3.376,1.455,6.942,6.942,0,0,1,9.338-2c3.674,0,6.611,3.029,6.984,7.2a7.55,7.55,0,0,1-.229,2.665,11.655,11.655,0,0,1-3.571,5.963Z" transform="translate(9.462 2)"/></g></g></g></svg>