<svg xmlns="http://www.w3.org/2000/svg" xmlns:xlink="http://www.w3.org/1999/xlink" viewBox="0 0 16 16">
  <defs>
    <style>
      .cls-1, .cls-3 {
        fill: none;
      }

      .cls-2 {
        clip-path: url(#clip-path);
      }

      .cls-3 {
        stroke: #fe9da9;
        stroke-linecap: round;
        stroke-width: 0.7px;
        fill-rule: evenodd;
      }
    </style>
    <clipPath id="clip-path">
      <path id="Path_362" data-name="Path 362" class="cls-1" d="M0-42.273H11.825v16H0Z" transform="translate(0 42.273)"/>
    </clipPath>
  </defs>
  <g id="Group_605" data-name="Group 605" transform="translate(-746 -749)">
    <rect id="Rectangle_40" data-name="Rectangle 40" class="cls-1" width="16" height="16" transform="translate(746 749)"/>
    <g id="Group_604" data-name="Group 604" transform="translate(748 791.273)">
      <g id="Group_603" data-name="Group 603" class="cls-2" transform="translate(0 -42.273)">
        <g id="Group_602" data-name="Group 602" transform="translate(0 0)">
          <path id="Path_361" data-name="Path 361" class="cls-3" d="M-9.985-4.953a2.8,2.8,0,0,0-2.8,2.8A2.8,2.8,0,0,0-9.973.638a2.8,2.8,0,0,0,2.79-2.794,2.805,2.805,0,0,0-2.8-2.8M-9.8,7.039H-9.91a1.4,1.4,0,0,1-.24-.193c-.576-.716-1.162-1.424-1.714-2.158A25.5,25.5,0,0,1-14.726.075a5.17,5.17,0,0,1,.156-4.859A5.216,5.216,0,0,1-10.561-7.54a6.087,6.087,0,0,1,2.8.376,5.417,5.417,0,0,1,3.2,4.026A5.03,5.03,0,0,1-4.787-.385a13.305,13.305,0,0,1-1.058,2.1A37.415,37.415,0,0,1-9.518,6.8a2.154,2.154,0,0,1-.277.236" transform="translate(15.771 8.265)"/>
        </g>
      </g>
    </g>
  </g>
</svg>
