<svg xmlns="http://www.w3.org/2000/svg" viewBox="0 0 136 52"><defs><style>.a{fill:#fff;font-size:22px;font-family:Helvetica;}.b{fill:#fe5d70;}.c{fill:#fcfcfc;}</style></defs><g transform="translate(-113 -14)"><text class="a" transform="translate(214 49)"><tspan x="-34.235" y="0">Salstro</tspan></text><g transform="translate(113 14)"><circle class="b" cx="26" cy="26" r="26" transform="translate(0 0)"/><g transform="translate(15.181 6.453)"><path class="c" d="M58.54,39.6a9.287,9.287,0,0,0-3.1-3.486,64.06,64.06,0,0,0-6.2-3.33,23.62,23.62,0,0,1-6.164-3.917,5.673,5.673,0,0,1-1.73-4.191,6.348,6.348,0,0,1,1.839-4.309,8.867,8.867,0,0,1,3.136-2.037c.324-.118.324-.118,1.19-.392a5.651,5.651,0,0,0-.757-.039,8.289,8.289,0,0,0-6.2,2.546A8.889,8.889,0,0,0,38.1,26.831a10.258,10.258,0,0,0,1.118,4.74,9.717,9.717,0,0,0,3.136,3.6,44.079,44.079,0,0,0,5.984,3.251c3.5,1.645,7.967,3.956,8.58,8.579a11.672,11.672,0,0,1-1.8,7.286c.072-.118.288-.157.433-.235a8.973,8.973,0,0,0,3.244-4.387,13.012,13.012,0,0,0,.865-4.975A10.3,10.3,0,0,0,58.54,39.6Z" transform="translate(-38.1 -17.9)"/><path class="c" d="M56.8,77.915A6.144,6.144,0,0,0,56.078,76a9.654,9.654,0,0,0-4.038-3.353c-1.694-.9-4.326-2.055-5.263-2.451,4.578,3.5,6.453,4.795,7.1,7.138a7.557,7.557,0,0,1-.973,5.768C49.95,87.9,44.723,87.9,40,86.1c1.586,1.911,6.2,3.6,9.914,2.451a9.784,9.784,0,0,0,6.669-6.633A8.835,8.835,0,0,0,56.8,77.915Z" transform="translate(-39.315 -48.446)"/><path class="c" d="M83.479,19.636v.18A4.127,4.127,0,0,1,81.1,23.565a12.793,12.793,0,0,1,2.163,4.686h1.081V19.6A4.663,4.663,0,0,1,83.479,19.636Z" transform="translate(-65.599 -18.987)"/><path class="c" d="M57.525,84.062c-.36-2.2-2.523-3.965-3.136-4.362a7.706,7.706,0,0,1,1.19,3.317A8.569,8.569,0,0,1,55,86.441,8.182,8.182,0,0,1,47.9,91.7C52.406,92.93,58.463,89.794,57.525,84.062Z" transform="translate(-44.367 -54.521)"/><path class="c" d="M74.7,128.2" transform="translate(-61.506 -85.537)"/></g></g></g></svg>