<svg xmlns="http://www.w3.org/2000/svg" viewBox="0 0 120 120"><defs><style>.a{fill:#d7dae1;}</style></defs><g transform="translate(-1)"><path class="a" d="M45.276,16H17V44.276H45.276ZM41.236,40.236h-20.2v-20.2h20.2Z" transform="translate(17.354 15.904)"/><path class="a" d="M69.335,16H37.02a2.02,2.02,0,1,0,0,4.039H69.335a2.02,2.02,0,1,0,0-4.039Z" transform="translate(37.528 15.989)"/><path class="a" d="M69.335,22H37.02a2.02,2.02,0,1,0,0,4.039H69.335a2.02,2.02,0,1,0,0-4.039Z" transform="translate(37.528 21.985)"/><path class="a" d="M69.335,28H37.02a2.02,2.02,0,0,0,0,4.039H69.335a2.02,2.02,0,0,0,0-4.039Z" transform="translate(37.528 27.981)"/><path class="a" d="M86.669,34H20.02a2.02,2.02,0,0,0,0,4.039h66.65a2.02,2.02,0,0,0,0-4.039Z" transform="translate(20.193 33.977)"/><path class="a" d="M50.315,40H20.02a2.02,2.02,0,0,0,0,4.039h30.3a2.02,2.02,0,1,0,0-4.039Z" transform="translate(18.52 39.973)"/><path class="a" d="M50.315,46H20.02a2.02,2.02,0,0,0,0,4.039h30.3a2.02,2.02,0,1,0,0-4.039Z" transform="translate(18.52 45.969)"/><path class="a" d="M50.315,52H20.02a2.02,2.02,0,1,0,0,4.039h30.3a2.02,2.02,0,1,0,0-4.039Z" transform="translate(18.52 51.843)"/><path class="a" d="M39,68.276H67.276V40H39Zm4.039-24.236h20.2v20.2h-20.2Z" transform="translate(41.606 39.606)"/><path class="a" d="M121,26c0-.034-.019-.062-.021-.1V0H21.69V60H1v48a12.224,12.224,0,0,0,12.414,12h95.172a12.207,12.207,0,0,0,12.393-11.98V26.1C120.981,26.062,121,26.034,121,26ZM116.841,4V24H25.828V4ZM5.138,108V64H21.69v44a8.15,8.15,0,0,1-8.276,8A8.15,8.15,0,0,1,5.138,108Zm103.448,8H22.66c.033-.036.056-.078.087-.114a11.961,11.961,0,0,0,1.15-1.49c.056-.084.108-.168.161-.256a11.61,11.61,0,0,0,.875-1.7c.033-.082.062-.164.093-.246a11.579,11.579,0,0,0,.565-1.9c.012-.06.017-.122.029-.18a11.554,11.554,0,0,0,.207-2.12V28h91.014v80.02A8.131,8.131,0,0,1,108.586,116Z" transform="translate(0)"/><path class="a" d="M71.472,4H23V16.118H71.472Zm-4.039,8.079H27.039V8.039H67.433Z" transform="translate(24.283 4.079)"/></g></svg>