<svg xmlns="http://www.w3.org/2000/svg" viewBox="0 0 10 10">
  <defs>
    <style>
      .cls-1 {
        fill: #ffd756;
      }
    </style>
  </defs>
  <g id="Group_815" data-name="Group 815" transform="translate(0)">
    <path id="Path_443" data-name="Path 443" class="cls-1" d="M-4.165-3.185-3.716-.44a.362.362,0,0,1-.137.353.326.326,0,0,1-.362.027l-2.354-1.3a.751.751,0,0,0-.363-.094.753.753,0,0,0-.363.094l-2.353,1.3a.327.327,0,0,1-.363-.027.362.362,0,0,1-.137-.353L-9.7-3.185a.843.843,0,0,0-.225-.724l-1.9-1.945a.364.364,0,0,1-.087-.37.341.341,0,0,1,.277-.245l2.632-.4a.784.784,0,0,0,.588-.447l1.176-2.5a.338.338,0,0,1,.309-.2.339.339,0,0,1,.309.2l1.176,2.5a.785.785,0,0,0,.587.447l2.632.4a.341.341,0,0,1,.277.245.365.365,0,0,1-.087.37l-1.9,1.945a.842.842,0,0,0-.224.724" transform="translate(11.932 10.017)"/>
  </g>
</svg>
