<svg xmlns="http://www.w3.org/2000/svg" viewBox="0 0 20 16.669">
  <defs>
    <style>
      .cls-1 {
        fill: #fff;
      }
    </style>
  </defs>
  <g id="send" transform="translate(0 -42.636)">
    <g id="Group_1384" data-name="Group 1384" transform="translate(0 42.636)">
      <path id="Path_612" data-name="Path 612" class="cls-1" d="M22.6,246.418l4.018,1.626,1.36.55-.25.618-1.36-.55-4.017-1.626Z" transform="translate(-21.476 -238.457)"/>
      <g id="Group_1383" data-name="Group 1383" transform="translate(0 0)">
        <path id="Path_613" data-name="Path 613" class="cls-1" d="M1.123,239.2l-.667-.27a.333.333,0,0,0-.25.618l.667.27,1.236.5a.333.333,0,0,0,.25-.618l-1.236-.5Z" transform="translate(0 -231.235)"/>
        <path id="Path_614" data-name="Path 614" class="cls-1" d="M80.757,271.43a.349.349,0,0,0-.256,0l-.056.031a.254.254,0,0,0-.05.045.212.212,0,0,0-.041.048.445.445,0,0,0-.031.059.349.349,0,0,0,0,.256.329.329,0,0,0,.545.1.337.337,0,0,0,.072-.108.33.33,0,0,0-.184-.433Z" transform="translate(-77.162 -262.468)"/>
        <path id="Path_615" data-name="Path 615" class="cls-1" d="M55.91,53.209l8.1-6.034a.333.333,0,1,0-.4-.533L55.47,52.7,53.977,52.1a.333.333,0,0,0-.25.618l1.525.617,1.574,5.493a.661.661,0,0,0,.638.478h.008a.655.655,0,0,0,.433-.174.294.294,0,0,0,.033-.023l3.223-3.3,4.321,1.713a.971.971,0,0,0,.857-.048,1,1,0,0,0,.5-.724L67.93,49.46l1.2-6.021a.67.67,0,0,0-.226-.65.66.66,0,0,0-.668-.105L51.351,49.5a.334.334,0,0,0,.25.618l16.13-6.508-8,9.437a.333.333,0,1,0,.509.431l8.122-9.58-1.086,5.449-1.093,7.307a.333.333,0,0,1-.167.242.315.315,0,0,1-.281.013L61.188,55.12l-2.182-.913a.333.333,0,0,0-.436.178.32.32,0,0,0-.014.07h-.008l-1.083,4.183ZM59.1,54.971l1.1.463.284.113L58.4,57.683Z" transform="translate(-49.144 -42.636)"/>
      </g>
    </g>
  </g>
</svg>
