<svg xmlns="http://www.w3.org/2000/svg" xmlns:xlink="http://www.w3.org/1999/xlink" viewBox="0 0 20 20">
  <defs>
    <style>
      .cls-1 {
        fill: #fff;
      }

      .cls-2 {
        clip-path: url(#clip-path);
      }
    </style>
    <clipPath id="clip-path">
      <path id="Path_360" data-name="Path 360" class="cls-1" d="M0-24.706H20v20H0Z" transform="translate(0 25)"/>
    </clipPath>
  </defs>
  <g id="Group_590" data-name="Group 590" class="cls-2" transform="translate(0 -0.294)">
    <g id="Group_589" data-name="Group 589" transform="translate(0 1.544)">
      <path id="Path_359" data-name="Path 359" class="cls-1" d="M-3.877-1.673c-4.748,0-7.684,1.316-8.727,3.91a9.124,9.124,0,0,0-.519,3.311A11.755,11.755,0,0,0-11.938,9.84c-.012-.26-.019-.513-.019-.747a9.563,9.563,0,0,1,.2-2.026,6.287,6.287,0,0,1,.564-1.6,4.2,4.2,0,0,1,.969-1.222,5.514,5.514,0,0,1,1.235-.814A6.56,6.56,0,0,1-7.461,2.94,13.9,13.9,0,0,1-5.771,2.7c.561-.044,1.2-.065,1.895-.065H-.967V5.886a.106.106,0,0,0,.041.089c.076.076.1.077.179,0l5.4-5.4A.106.106,0,0,0,4.7.483.107.107,0,0,0,4.654.394l-5.4-5.4c-.076-.076-.1-.076-.178,0a.106.106,0,0,0-.041.089v3.247Zm-7.767,13.506a.892.892,0,0,1-.741-.411,1.689,1.689,0,0,1-.185-.314l-.262-.59a13.016,13.016,0,0,1-1.383-4.97,10.188,10.188,0,0,1,.6-3.715c1.227-3.052,4.5-4.6,9.74-4.6h1.818V-4.92a1.192,1.192,0,0,1,.361-.86,1.223,1.223,0,0,1,1.721,0l5.4,5.4a1.2,1.2,0,0,1,.36.861,1.192,1.192,0,0,1-.36.86l-5.4,5.4a1.222,1.222,0,0,1-1.721,0,1.2,1.2,0,0,1-.361-.86V3.73H-3.877c-.669,0-1.279.02-1.81.061a12.928,12.928,0,0,0-1.558.218,5.52,5.52,0,0,0-1.277.406,4.446,4.446,0,0,0-.991.654,3.143,3.143,0,0,0-.719.909A5.221,5.221,0,0,0-10.694,7.3a8.536,8.536,0,0,0-.172,1.793c0,.374.017.794.052,1.257a2.029,2.029,0,0,0,.023.209,2.852,2.852,0,0,1,.032.358.935.935,0,0,1-.221.619.852.852,0,0,1-.663.3" transform="translate(14.214 6.134)"/>
    </g>
  </g>
</svg>
