<svg xmlns="http://www.w3.org/2000/svg" xmlns:xlink="http://www.w3.org/1999/xlink" viewBox="0 0 26.714 24"><defs><style>.a{fill:#aeb4c2;}.b{clip-path:url(#a);}</style><clipPath id="a"><path class="a" d="M0-24.706H26.714v24H0Z" transform="translate(0 24.706)"/></clipPath></defs><g transform="translate(0 24.706)"><g class="b" transform="translate(0 -24.706)"><g transform="translate(0 0)"><path class="a" d="M-.406-.175c-6.341,0-10.263,1.757-11.657,5.222a12.187,12.187,0,0,0-.694,4.423A15.7,15.7,0,0,0-11.173,15.2c-.017-.348-.025-.686-.025-1a12.773,12.773,0,0,1,.263-2.706,8.4,8.4,0,0,1,.753-2.138A5.613,5.613,0,0,1-8.889,7.729,7.366,7.366,0,0,1-7.239,6.642a8.763,8.763,0,0,1,2.045-.656,18.564,18.564,0,0,1,2.258-.316c.749-.058,1.6-.086,2.531-.086H3.48V9.922a.142.142,0,0,0,.054.119c.1.1.135.1.239,0l7.216-7.216a.157.157,0,0,0,0-.238L3.772-4.631c-.1-.1-.135-.1-.238,0a.142.142,0,0,0-.054.119V-.175ZM-10.78,17.865a1.191,1.191,0,0,1-.99-.549,2.256,2.256,0,0,1-.248-.42l-.35-.788A17.386,17.386,0,0,1-14.214,9.47a13.608,13.608,0,0,1,.8-4.962C-11.778.432-7.4-1.632-.406-1.632H2.022v-2.88A1.593,1.593,0,0,1,2.5-5.662a1.633,1.633,0,0,1,2.3,0l7.217,7.216a1.614,1.614,0,0,1,0,2.3L4.8,11.07a1.632,1.632,0,0,1-2.3,0,1.6,1.6,0,0,1-.482-1.149V7.041H-.406c-.894,0-1.708.027-2.418.082A17.268,17.268,0,0,0-4.9,7.414a7.373,7.373,0,0,0-1.706.542,5.939,5.939,0,0,0-1.324.873A4.2,4.2,0,0,0-8.9,10.044a6.974,6.974,0,0,0-.617,1.766,11.4,11.4,0,0,0-.229,2.4c0,.5.023,1.061.069,1.68a2.711,2.711,0,0,0,.03.28,3.809,3.809,0,0,1,.043.478,1.249,1.249,0,0,1-.3.827,1.138,1.138,0,0,1-.885.4" transform="translate(14.214 6.134)"/></g></g></g></svg>