<svg xmlns="http://www.w3.org/2000/svg" xmlns:xlink="http://www.w3.org/1999/xlink" viewBox="0 0 16 16"><defs><style>.a,.d{fill:#aeb4c2;}.b{fill:none;}.c{clip-path:url(#a);}.d{fill-rule:evenodd;}</style><clipPath id="a"><path class="a" d="M0-32.457H16v16H0Z" transform="translate(0 32.457)"/></clipPath></defs><g transform="translate(-1012 -3477)"><rect class="b" width="16" height="16" transform="translate(1012 3477)"/><g class="c" transform="translate(1012 3477)"><g transform="translate(0 0)"><path class="d" d="M-8.23-15.756a7.338,7.338,0,0,1-7.319-7.317,7.337,7.337,0,0,1,7.317-7.318A7.337,7.337,0,0,1-.913-23.074,7.338,7.338,0,0,1-8.23-15.756m0-15.317a8.022,8.022,0,0,0-8,8,8.021,8.021,0,0,0,8,8,8.022,8.022,0,0,0,8-8,8.021,8.021,0,0,0-8-8" transform="translate(16.231 31.073)"/></g><g transform="translate(4.523 9.744)"><path class="d" d="M-3.627-2.147a4.592,4.592,0,0,1-3.4-1.468.353.353,0,0,1-.025-.515A.342.342,0,0,1-6.54-4.1a3.834,3.834,0,0,0,1.2.881,3.816,3.816,0,0,0,4.015-.423A6.594,6.594,0,0,0-.8-4.117a.351.351,0,0,1,.415-.077.319.319,0,0,1,.18.363.5.5,0,0,1-.117.214A4.487,4.487,0,0,1-3.084-2.193c-.2.026-.394.034-.543.045" transform="translate(7.153 4.235)"/></g><g transform="translate(4.174 5.562)"><path class="d" d="M-1.046-1.425a.345.345,0,0,0,.367-.326A.349.349,0,0,0-1-2.108a.345.345,0,0,0-.366.327.341.341,0,0,0,.32.356M.016-1.743A1.046,1.046,0,0,1-1.034-.72,1.047,1.047,0,0,1-2.063-1.779a1.045,1.045,0,0,1,1.057-1.03A1.045,1.045,0,0,1,.016-1.743" transform="translate(2.063 2.81)"/></g><g transform="translate(9.747 5.562)"><path class="d" d="M-1.071-.72a.353.353,0,0,0-.346.336.348.348,0,0,0,.344.351A.345.345,0,0,0-.728-.367.348.348,0,0,0-1.071-.72m1.039.339A1.049,1.049,0,0,1-1.071.669,1.048,1.048,0,0,1-2.112-.379,1.047,1.047,0,0,1-1.081-1.42,1.047,1.047,0,0,1-.032-.381" transform="translate(2.112 1.42)"/></g></g></g></svg>