<svg xmlns="http://www.w3.org/2000/svg" xmlns:xlink="http://www.w3.org/1999/xlink" viewBox="0 0 16 16">
  <defs>
    <style>
      .cls-1 {
        fill: #7f818c;
      }

      .cls-2 {
        clip-path: url(#clip-path);
      }
    </style>
    <clipPath id="clip-path">
      <path id="Path_148" data-name="Path 148" class="cls-1" d="M0-80.867H16v16H0Z" transform="translate(0 80.867)"/>
    </clipPath>
  </defs>
  <g id="Symbol_34_1" data-name="Symbol 34 – 1" transform="translate(-833 -635)">
    <g id="Group_289" data-name="Group 289" class="cls-2" transform="translate(833 635)">
      <g id="Group_288" data-name="Group 288" transform="translate(0 0)">
        <path id="Path_147" data-name="Path 147" class="cls-1" d="M-34.224-47.832l4.2,3.186a.111.111,0,0,0,.156,0,.141.141,0,0,0,.047-.154l-1.6-5.155,4.2-3.186a.144.144,0,0,0,.048-.156.133.133,0,0,0-.126-.094h-5.191l-1.6-5.155a.132.132,0,0,0-.125-.1.132.132,0,0,0-.126.1l-1.6,5.155h-5.19a.133.133,0,0,0-.126.1.141.141,0,0,0,.049.154l4.2,3.186-1.6,5.156a.14.14,0,0,0,.048.154.108.108,0,0,0,.155,0Zm4.276,4.2a1.039,1.039,0,0,1-.635-.216l-3.642-2.763-3.642,2.763a1.057,1.057,0,0,1-1.27,0,1.152,1.152,0,0,1-.391-1.26l1.391-4.472-3.643-2.763a1.153,1.153,0,0,1-.392-1.26,1.083,1.083,0,0,1,1.027-.779h4.5l1.391-4.471a1.082,1.082,0,0,1,1.027-.779,1.082,1.082,0,0,1,1.026.779l1.391,4.471h4.5a1.083,1.083,0,0,1,1.027.778,1.156,1.156,0,0,1-.392,1.261l-3.643,2.764,1.391,4.472a1.154,1.154,0,0,1-.391,1.26,1.047,1.047,0,0,1-.635.216" transform="translate(42.224 59.63)"/>
      </g>
    </g>
  </g>
</svg>
