<svg xmlns="http://www.w3.org/2000/svg" xmlns:xlink="http://www.w3.org/1999/xlink" viewBox="0 0 31.999 32">
  <defs>
    <style>
      .cls-1 {
        fill: none;
      }

      .cls-2 {
        clip-path: url(#clip-path);
      }

      .cls-3 {
        fill: #59b3e1;
      }

      .cls-4 {
        fill: #fff;
      }
    </style>
    <clipPath id="clip-path">
      <path id="Path_413" data-name="Path 413" class="cls-1" d="M0-32H32V0H0Z"/>
    </clipPath>
  </defs>
  <g id="Group_885" data-name="Group 885" transform="translate(0 32)">
    <g id="Group_761" data-name="Group 761" class="cls-2">
      <g id="Group_759" data-name="Group 759" transform="translate(16 -32)">
        <path id="Path_411" data-name="Path 411" class="cls-3" d="M0,0A16,16,0,0,1,16,16,16,16,0,0,1,0,32,16,16,0,0,1-16,16,16,16,0,0,1,0,0"/>
      </g>
      <g id="Group_760" data-name="Group 760" transform="translate(23.999 -20.797)">
        <path id="Path_412" data-name="Path 412" class="cls-4" d="M0,0A6.667,6.667,0,0,1-1.884.508,3.261,3.261,0,0,0-.44-1.28,6.634,6.634,0,0,1-2.526-.5a3.3,3.3,0,0,0-2.395-1.02A3.259,3.259,0,0,0-8.2,1.716a3.186,3.186,0,0,0,.085.735A9.368,9.368,0,0,1-14.884-.925,3.176,3.176,0,0,0-15.329.7a3.22,3.22,0,0,0,1.46,2.689,3.319,3.319,0,0,1-1.487-.4v.041a3.172,3.172,0,0,0,.224,1.17,3.276,3.276,0,0,0,2.41,2,3.3,3.3,0,0,1-.867.114,3.224,3.224,0,0,1-.616-.059A3.28,3.28,0,0,0-11.14,8.493a6.64,6.64,0,0,1-4.076,1.384A6.562,6.562,0,0,1-16,9.83a9.4,9.4,0,0,0,5.032,1.453A9.135,9.135,0,0,0-1.852,4.041,8.838,8.838,0,0,0-1.628,2.09c0-.14,0-.279-.009-.418A6.585,6.585,0,0,0,0,0"/>
      </g>
    </g>
  </g>
</svg>
